<svg xmlns="http://www.w3.org/2000/svg" viewBox="0 0 73.97 36.59"><defs><style>.cls-1{fill:#ffe500;}</style></defs><title>feuille</title><g id="Calque_2" data-name="Calque 2"><g id="Calque_1-2" data-name="Calque 1"><path class="cls-1" d="M74,18.53a1.65,1.65,0,0,0,0-.39c0-.07,0-.15,0-.22h0v-.05a1.1,1.1,0,0,0,0-.18h0v0c0-.1,0-.2,0-.3v-.07l0-.12a1.1,1.1,0,0,0,0-.18V16.9h0a.28.28,0,0,1,0-.09v-.05s0-.06,0-.09v-.17h0v0a.41.41,0,0,0,0-.11h0L71.77,16l-.42,0-.12,0-.31,0-.16,0-.27,0h-.17l-.27,0H67.52l-.23,0-.55,0L66,16l-.53.07-.16,0-.38.05-.16,0-.5.09h0l-.46.1-.11,0c-.49-1.58-1.82-3.14-3.28-5.81-1-2.16-2.48-1.53-3.11-1s-.51,2-1.37,1.43c-1.31-.91-3.44-3.31-6-3s-.18,4.11-1.89,3.85c-2-.31-2-8.56-7.8-10.47-4.75-1.59-3.17,10.37-6,9.35-2-.73-3.53-10.65-9.71-10.8-5.76-.14-3.09,8.77-5.27,7C14.79,3.49,11.87.65,9.74,1.51,7,2.63,7.45,5.45,6.94,7.34,3.22,5.44.76,5.53,0,10.69-.29,13,3.2,15.58,5.47,17.2c.11,2.57-.91,5.72,1,7.55,1.23,1.19,4.72,1.77,6.47,1.16.88-.31-4,5.19,2.05,7,5.64,1.75,6.78-2.4,9.27-2.54,2.32-.13-4.39,4.8,3.66,6.11,5.55.9,6.74-7.56,11-8,.84-.09-6.93,4.68.19,6.91,6.43,2,7.44-8.06,8.4-9.25.51-.62.22-.44,2.6.93,1.53.88,5.33-.52,6.47-2.65,1.2-3.34,6.16-4.26,7.13-6.11h0l.21,0,.44-.06.12,0,.42-.05h0l.41,0h.13l.39,0h1.68l.3,0H68l.23,0h.14l.2,0h.16l.36,0,.55.07.72.09h.1l.1,0,.66.1h0a2.33,2.33,0,0,1,1,.47l.16.14h0a1.21,1.21,0,0,1,.16.16h0l.15.17h0a2.43,2.43,0,0,0,.14.2l.08.13,0,0,.06.1,0,0,.06.12v0c0,.05.05.1.07.16s0,.11.07.17v.05l.06.18h0v-.1h0v-.05h0v0h0c.1-.33.31-.92.45-1.37l0-.11h0A3,3,0,0,0,74,18.53ZM60.07,17.12l-1.15,0c-.58,0-1.17,0-1.77,0-.8,0-1.61,0-2.44.09l-1.87.12-.63,0-1.91.17-.64.07-1.94.21-1.3.15-3.94.48-1.31.16-2.62.31-2,.21c-1.94.19-3.86.34-5.72.42l-1.24,0H28.41l-1.19,0a31.59,31.59,0,0,1-6.17-.74c1.33.14,2.62.21,3.89.24l1.25,0c1.46,0,2.88-.05,4.27-.15l1.19-.09.59,0L34,18.58l1.16-.14,2.33-.29L38.66,18l.58-.08,1.16-.15,2.92-.38,1.18-.14,1.79-.2,1.21-.11.61,0c1.22-.1,2.47-.17,3.74-.19.64,0,1.28,0,1.94,0a57.31,57.31,0,0,1,6.85.47Z"/></g></g></svg>