<svg xmlns="http://www.w3.org/2000/svg" viewBox="0 0 229.79 71.78"><defs><style>.cls-1{fill:#1d1d1b;}.cls-2{fill:#ffe500;}.cls-3{fill:#2fac66;}.cls-4{fill:#b17f4a;}</style></defs><title>Fichier 1</title><g id="Calque_2" data-name="Calque 2"><g id="Calque_1-2" data-name="Calque 1"><path class="cls-1" d="M51.46,25.3c0,9.59-.15,18.15-3.31,25.47S39,64.23,26.8,69.32C14.6,64.23,8.58,58,5.45,50.77S2.13,34.89,2.14,25.3v-23H51.46ZM53.08,0H.62A.64.64,0,0,0,0,.65V25.3c0,9.6.1,18.49,3.5,26.41s10.16,14.68,23,19.91l.4.16.4-.16c12.79-5.23,19.54-12,23-19.91S53.7,34.9,53.7,25.3V.65A.64.64,0,0,0,53.08,0"/><path class="cls-2" d="M51.46,25.3c0,9.59-.15,18.15-3.31,25.47S39,64.23,26.8,69.32C14.6,64.23,8.58,58,5.45,50.77S2.13,34.89,2.14,25.3v-23H51.46Z"/><path class="cls-3" d="M37.71,11.2v.12c-.18.32.65.61.81,1h.12A3.84,3.84,0,0,0,40,13.51a.3.3,0,0,0,.34.25c.22.34.88-.53.59-.73V12.9c-.85-.71-1.89-3.06-3.26-1.7"/><path class="cls-3" d="M37.24,11.44c-.18.22-.53.26-.58.61s1,.67.7,1.1c-.44-.15-.73-1.1-1.16-.85v.12c-.55.05-.67.93-.47,1.09.08-.37.53.48.59.13,1-.17.89,1.16,1.74.73v-.12h.11c.33-.39-.38-.42.12-.49h.11c.2-.25.54-.34.59-.73-.52-.51-1.25-1.46-1.75-1.59"/><path class="cls-3" d="M38.88,17.65c.6,0,.37.82,1,.74,0-.33.06-.72-.23-.74-.35-.6-1.8-1.75-2-1.33v.12c.37.42.64.95,1.17,1.21"/><path class="cls-3" d="M37.24,16.68c-.58,1.2.17,1.16.58,1.95-.34.14-.43-.59-.58-.24h-.12c-.35,0-.34.36-.34.73.51.11.58.69,1,.85.1,0,.23,0,.24-.12.47-.33.24-.67-.11-1,.16-.05.19-.15.34,0v-.13c.27-.17.45-.42.7-.61a8,8,0,0,0-1.51-1.46Z"/><path class="cls-3" d="M12.35,13.64a2.81,2.81,0,0,1,.58.61c.75-.1-.26-1.68.58-1.95h-.46c-.15,0-.16.37,0,.37-.52.25-.86-.73-1.28-1,0-.15.21-.1.34-.12h.12c.19-.25.25-.64.47-.86-.42-.68-.82-1.36-1.52-1.22-.22.18-.51.28-.46.74s.68.42.7,1c-.51-.49-1.71-1.23-2.09-.73v.13c0,.4.49.29.46.72,1,.62,1.54,1.72,2.56,2.32"/><path class="cls-3" d="M38.52,9.74c-.22-.06-.59.33-.35.36v.37c.31.35.66-.43.35-.73"/><path class="cls-3" d="M21.43,11.81A6.35,6.35,0,0,0,20,10.47v-.12c-.15-.26-.75-.66-.58-.86.83.54,1.41,1.88,2.21,1.71.5-.63-.2-.65-.23-1.34,0-.12.09-.14.11-.24-.45-.15-1-.77-.93-1.1h.12c0,.39.3.42.58.49.1-.34.27-.6.35-1a13.49,13.49,0,0,1-1.17-1.22c.16-.3.44.13.47-.12v-1c.18-.12-.39-.48-.82-.36-.75.57.46,1,.23,1.34-.73-.33-.8-1.36-1.62-1.59-.44,0-.33-.13-.7,0,.08,1.34,1.24,1.54,1.75,2.44-.16.3.45.38.11.49A20,20,0,0,0,18.4,6.57c-.36-.14-1.12-.16-1.16.37.12.8,1.82,1.66,2,2.44-.46-.09-.4-.72-.93-.74-.42-.36-.85.32-.93.74.36.36.08.42-.11.48h-.12c-.26.51,0,.81.35,1.1.27,0,1,.46.93,0,.14-.36-.76-.67-.93-1.1.67-.11,1,1.11,1.74,1.34.41.31.67.76,1.05,1.1.22.06.55.49.86.67l.31,0Z"/><path class="cls-3" d="M7.47,13.4H7.35v-.13c0-.34-.33-.3-.47-.48.12-.54.92.3.59.61m3,1.33v-.12h.23c0-.44-.5-.45-.7-.73.68-.56,1.48,2.48,2.56,1.1,0-.2.11-.21.12-.37-.81-1.26-2.14-2-2.91-3.28-.5-.14-.48-.8-1-.86,0-.1,0-.11-.11-.12v-.12c-1.39.57-.11,2.06.7,2.44C8.81,13,8.53,12,8,11.81H7.93v-.12c-.58.16-1.07.52-1,1a.47.47,0,0,0-.35-.13c-.45.6.5.78.82,1,0,.39-.46,1-.35,1.1.24.59,1-.21,1.28-.36-.19-.22-.59-.84-.7-.74.11-.59.93.78,1.39,1-.1.41-.25.11-.46,0-.2.29.36.84.7,1,.38-.19-.24-.3-.12-.61.36-.1.22.33.59.24v.12a1.07,1.07,0,0,0,.34.29l0,0h0c0-.46.37-.44.47-.74"/><path class="cls-3" d="M17.82,19.48c-.13-.27-.76-.39-.47-.73.12.28.76.39.47.73m1.05-2.92a3.87,3.87,0,0,0-1.28-.85h-.7c.06.42.31.65.35,1.1,0,.13.17.18,0,.24-.79-.51-.63-1.35-2.1-.86-.07,0-.14,0-.11.13.6,1,1.65,1.51,2.21,2.56a1.89,1.89,0,0,0-.82-.62c-.48-.38-.79-1-1.39-1.21.12.49-.19.54-.36.73s-1.37-.21-1,.36c.13.6.75.68,1,1.1v1c.08.29.72,0,.82.24,0-.47,1,0,.7-.48v-.12c.19-.17-.46-.56-.35-.73a1.7,1.7,0,0,1-1.17-1.22A6.82,6.82,0,0,0,16,19c.11.24.51.19.46.61a9.19,9.19,0,0,1,1.86,1.45c.45-.11.48.48.81.13v-.25c-.21-.65-1.2-1.06-1.16-1.58a6.3,6.3,0,0,0,.82.73c.45-.38-.16-1.68-.35-2.19.1-.55-.47-.4-.47-.85.69.16.65,1,1.05,1h.11c1.15.4.52-1.21-.11-1.34l.12-.2,0,0a1,1,0,0,1-.19.12"/><path class="cls-3" d="M39,8.16c.29,0,.36-.19.47-.37-.7-.46-1.27-1.68-2-1.7h-.12c-.2.11-.26.38-.35.61-.14.06.3.67-.23.36h-.12c-.32-.25-1.19-.43-1.16-.12.36.84,1.25,1.12,1.63,2V9a1.86,1.86,0,0,0,1.39.12c.08,0,.14,0,.12-.12.1-.44-.92-.74-1-1.34-.32,0-.27-.36-.58-.36.11-.48.57,0,.58.36.46-.16.29.36.59.37s.51.83.81.48c.13,0,.18.18.23,0-.16,0-.13-.27-.23-.36"/><path class="cls-3" d="M45.74,15.71c.33-.17,0-.6-.12-.73-.33,0-.59,0-.7.24a.57.57,0,0,0,.82.49"/><path class="cls-3" d="M39.46,16.81h.11c.52.3.79,1.52,1.4,1.33.26,0,.43,0,.46-.24-.69-.67-1.32-2.52-2.55-1.82,0,.44.33.53.58.73"/><path class="cls-3" d="M39.8,7.55a1,1,0,0,0,.12-.73c-.12-.28-.53-.26-.93-.25a.74.74,0,0,1-.11.37c.2.1.33.29.58.37a.31.31,0,0,0,.34.24"/><path class="cls-3" d="M33.4,11.44c-.06-.21.34-.5,0-.6-.39.05-.34-.37-.58-.49a2.5,2.5,0,0,0-.34,1.09c-.61.84.52-.47.92,0"/><path class="cls-3" d="M33.4,13.51c.43-.72,1.23-.53,1.75-1a5.79,5.79,0,0,0,.47-.61c.16,0,.19-.14.34,0,0-.52.38-.62.12-.85-.17.22-.48-.11-.58.36v.13c-.72.58-1.72.18-2.44.36h-.13c-.25.11-.22.85-.57.49,0-.14-.19-.13-.35-.12v.36a4,4,0,0,0,1.39.85"/><path class="cls-3" d="M30.15,22.16a1.49,1.49,0,0,0,0,1.1c1-.05.58-.88,0-1.1"/><polygon class="cls-3" points="24.79 20.68 24.8 20.69 24.8 20.67 24.79 20.68"/><path class="cls-3" d="M26.31,26.67c.27,0,.13-.35.35-.37s.57.6.81.25c0-.46-.42-.45-.46-.86-.37.06-.31-.33-.59-.36-.6-.18-.72-.87-1.28-1.1a.83.83,0,0,1-.23.37c-.07.44.25.47.23.85a.44.44,0,0,1-.05.22l.14.25,0-.23c.4.28.59.77,1,1"/><path class="cls-3" d="M33.29,17.41c.24-.26.37,0,.58.13a2.75,2.75,0,0,1,.58.6c-.15.31.46.38.12.49-.38-.45-.87-.8-1.28-1.22M30.61,20c.05.46,1.13.78.58,1.09-.24-.35-.43-.75-.92-.85-.18.19-.16.57-.36.73,0-.09,0-.24-.11-.24.15.92,1.16,2.5,2.56,1.7,0-.52-.34-.61-.58-.85h-.12c0-.34-.51-.33-.23-.61.2.11.34.3.58.37.08.24.31.33.58.37,0-.36.26-.38.23-.74-.46-.61.15-.29.24-.24.27,0,.43.19.81.12.65.05.66-1.25.93-2.19.47.13.73-.05,1.4,0A4,4,0,0,0,34,16.44h-.12c-.35-.09-.42.13-.69.12-.13.31.35.58,0,.73h-.12c-.08,0-.14,0-.13.12h-.11c0,.31-.43.2-.58.37a4.37,4.37,0,0,0,1.63,1.7v.13c0,.09,0,.23-.11.24-.77-.47-1.34-1.77-2.1-1.83h-.12c-1.33.36.63,1.41.47,1.95-.39-.12-.4-.63-.82-.73h-.11c-.15.18-.26.21-.32.17l-.17.43h0Z"/><path class="cls-3" d="M25.49,26.55c0,.53.36,1.08.7.85,0-.56-.38-.66-.7-.85"/><path class="cls-3" d="M42.59,10.1c.27.41.77.59.94,1.1-.86,0-1-.79-1.52-1.22.27-.3.22.19.58.12m-3.37.13v.12c0,.65,1,1.29,1.52,1.83v.12c.36.35.92,1.14,1.5.85h.12v.12c1.33-.47-.53-1.42-.93-1.95h-.12c0-.2-.17-.31,0-.36.38-.11.16.4.47.36h.12c.16.4.53.58.81.86.42.07.45-.27.82-.25.16-.26.18-.74.46-.24.24-.16.59-.19.58-.61a9.53,9.53,0,0,0-2.44-1.46c-.07.75-.66-.53-1.05-.13H41c-.5-.31-.39.75-.35.86-.15-.29-.59-.28-.58-.73l.22-.18-.13-.06c-.48,0-1.06.56-.91.85"/><path class="cls-3" d="M34.33,11.57c.71-.13.76-.07.82-.49V11c0-.38,1-.45.81-.61v-.12c.23-.29-.62-.49-.58-1,.36.23.5.71.94.85h.11v.13c.27,0,.13.35.35.36.23-.2.7-.15.81-.49-.26-1.34-1.49-1.68-2.21-2.55h-.12C35,7.21,34.7,8.4,35,8.64v.13c-.36.08.64.34.22.48a7.09,7.09,0,0,1-.93-.61H34a.81.81,0,0,0-.12.61,3.72,3.72,0,0,0,1.39,1.22v.12c0,.14-.12.19-.22.25,0-.13.09-.15.11-.25a.58.58,0,0,0-.35.12c-.46-.45-.78-1-1.4-1.33a1.88,1.88,0,0,0-.34.48c-.09.65,1,.85,1.27,1.71"/><path class="cls-3" d="M36.32,15.71H36.2c-.49-.34-1.45.51-1.4.73v.12c-.07,0-.14,0-.12.12,1,.89,1.42.36,1.87-.85-.12,0-.14-.1-.23-.12"/><path class="cls-3" d="M26.78,23.87c-.26,0-.38-.1-.35-.37s-.1-.14-.12-.24c.46.17,1.07.82,1.05,1.09-.33,0-.32-.39-.58-.48m1-.61a7.13,7.13,0,0,1-1.39-1.46,4.32,4.32,0,0,1,1.39,1.46m.93-1c-.3-.17-.53-.41-.81-.6.18-.51.72.25.81.6m-.93,4a1.78,1.78,0,0,0,.35-.85v-.12c-.06-.08-.47-.37-.12-.49,0,.1.1.14.24.12.49-.18,0-.83-.12-1.09s-.5-.52-.23-.61.22.33.58.24c0-.29.4-.23.35-.61s-.13-.27-.12-.49h.12c0-.22.09-.25.23-.12.36-.91-.83-1.23-.81-2.19-.45,0-.48.48-.47,1-.36.13.26.21.23.37s-.13,0-.11.12c-.09-.36-1.11-.6-1.28-.12-.09,0-.14.1-.12.25s-.18.13-.23.24h-.12c0-.1-.1-.14-.23-.12a1,1,0,0,0,.35,1.34c0,.12-.09.14-.12.24a1.7,1.7,0,0,0-.58.61c.29.74,1.12.94,1.4,1.7.45,0,.46.5.81.61"/><path class="cls-3" d="M32,14.73c.44-.06.59-.43.58-1-.24-.12-1.05-.35-1.05,0h-.11c-.52-.11.2.89.58,1"/><path class="cls-3" d="M42.25,16.19h.11c.15.55,1.14.83.93,1.35-.4-.52-1-.79-1.28-1.46.12,0,.14.09.24.11M43.76,16c.23.13.18.54.58.49-.1.54-.85-.28-.58-.49m-1.4,1.95a2.36,2.36,0,0,0,.47.61c.35-.08.67-.19.7-.61.13,0,.17-.14.23-.25.43.16.51.69.93.86.24.24.62-.4.7-.73-.36-.28-.81-.45-.93-1,.51,0,.71.6.81.73,0-.08,0-.15.12-.13v.13c0,.16.77,0,.92-.13-.07-.24-.3-.32-.57-.36-.16-.24-.52-.27-.82-.37a.78.78,0,0,1,.12-.6,4,4,0,0,0-1.51-1.35c-.21.07-.69-.14-.7.13-.06.58.71.31.58,1-.35-.28-.68-.59-1-.85a.64.64,0,0,0-.69.36c-.37.24.27.44.34.61s-.09.14-.11.24h-.12c-.32-1-.63-.55-1.16-1.21,0,.22-.19-.07-.24.12h-.11c-.2.11-.26.38-.35.61.65.88,1.46,2,2.44,2.19"/><path class="cls-3" d="M36.66,19.24c-.58-.63-1.2.11-1.4.37,0,.13.14.18.24.24-.25.26,1.3.25,1.39-.12.35-.15-.42-.11-.23-.49"/><path class="cls-3" d="M30.85,16.19c-.09-.5-.82-1-1.28-1.46h-.12c-.06-.51-.88-.26-1.28-.12v.12c.19.54,1.12.94,1,1.35-.46-.06-.5-.55-.93-.62v-.12a2.24,2.24,0,0,0-.93-.85,1,1,0,0,0-.58.73c0,.53.57.45.58,1-.18-.06-.3-.18-.47-.24s-.25-.14-.35-.24c-.3.44.28.95,0,1.34.05.45-.26.2-.46.24h-.24a5.78,5.78,0,0,0-.46,1c.51.52,1.41,1.29,1.74,1.59.08,0,.14,0,.12-.13.48-.2.16-.78.35-1.09a4.33,4.33,0,0,1-.93-1c.12,0,.14-.09.23-.12s0,.15.12.12c.22.34.65,1.11.93,1s.26-.46.46-.61.39.37.47,0-.41-.46-.47-.85c.17,0,.2.2.35.24.38.09.49.47.82.61s.26-1.09.11-1.21v-.13c.25-.27.4.1.82,0,.2-.07.68.15.69-.12-.21,0-.07-.4-.34-.37"/><path class="cls-3" d="M25.14,20.82V20.7h.35c.4.08,1.35.27,1.75-.25-.44-.39-.7-1-1.28-1.21-.05-.13-.45-.43-.35,0-.1.39.1.46.23.61-.47.08-.51.6-.93.73l.05-.06-.1.09c.11.05.16.18.28.21"/><path class="cls-3" d="M37.24,15.59a.65.65,0,0,1,.12-.37,1.2,1.2,0,0,0-.35-.73c-.06.35-.18-.18-.35-.12v-.12c-.45-.53-.56.17-1,.24-.2-.45-1-.23-1.17-.73h-.12C33,13,33.21,15.27,32.47,15.22v.12A3.39,3.39,0,0,0,32,17.29c.84-.21.65-1.13,1.51-1.46s1.9-.07,2.56-.73c.67-.13.46.65,1.16.49"/><path class="cls-3" d="M31.19,14.49v-.12c-.29-.35-.74-.52-.81-1.1-.65-.1-.81.29-1.05.61V14c.2.76,1.43,1.5,2.1,2.19h.11c.19-.62.39-1.6-.35-1.71"/><path class="cls-3" d="M15,27.76h-.12c-.44-.4-.3-.65-.93-.85a4.53,4.53,0,0,0,1.63,1.95h.11c.38-.48-.42-1.28-.69-1.1"/><path class="cls-3" d="M19.09,34.34c-.18-.21-.89-.51-1.16-.25.18.5.84.84,1.16.25"/><path class="cls-3" d="M11.53,34.09a.65.65,0,0,1,.47.13h.35c.37,0,.51-.28.47-.73-.63-.16-1-1.24-1.52-1.1-.2.16-.45.25-.46.61s.93.66.69,1.09"/><path class="cls-3" d="M43.87,22.52c.22-.09.51.77.94.86.28-.16.47.36.58,0C45,23,44.48,22.07,44.1,22h-.23c.17.28-.3.46,0,.48"/><path class="cls-3" d="M15.49,37.26c-.46-.32-.81-.78-1.28-1.09.37-.12,1.32.77,1.28,1.09m-.7-2.19c.29,0,.36.19.58.24-.1.41-.26.11-.46,0h-.12Zm-.58.61v.12c.12.57-.39-.19-.47.24-.14.18-.57.06-.58.37s.32.15.24.48c-.15,0-.57-.35-.58-.11H12.7c-.91.67.68,1.24.35,1.7,0-.14-.13-.19-.23-.25a.83.83,0,0,0-.35.25h-.12c-.12.57.44,1.07.81.73.13,0,.18-.14.24-.24s.13-.1,0-.12c-.5-.57.21-.26.46,0a6.71,6.71,0,0,1,.81-.49c-.41-.25-.62-.72-1-1a.32.32,0,0,1,.35-.25,5.13,5.13,0,0,0,1.39,1.47h.35c0-.25.32-.17.23-.5s-.54-.24-.46-.72c0-.15.18-.14.35-.13s.14.1.23.13c0-.2,0-.43.23-.37v-.13c.46.14-.69-.88-.93-1.21.52-.28.62.78,1.17.85s.36.47.93.25c.15.23.8-.5.58-.37a1,1,0,0,1-.7-.49h-.12c-.2-.4-.61-.57-.81-1,.12,0,.14.1.23.12h.24c.15.57.73.7,1,1.1.12,0,.14-.1.23-.13a1.46,1.46,0,0,0-.46-1.46v-.12c.09-.34-.54-.65-1.16-.37-.09.2-.58,0-.47.37-.19.28-.63-.22-.93-.24.19.48-.51,0-.47.36v.12c-.65-.25.42.22,0,.37h-.11c-.12-.34-.5,0-.7,0a.52.52,0,0,0,.35.61"/><path class="cls-3" d="M37.59,26.79h-.23c0-.17-.14-.21,0-.37-.28-.07-.54-.16-.58-.48a.46.46,0,0,1,.58.48c.49.06.54.58.93.74-.21.33-.56-.22-.7-.37M41,26.06c-.3,0-1.18-.46-1-.12-.45,0-.54-.42-1-.37-.39.26.34.35.22.73-.48,0-.66-1-1-.73a1.28,1.28,0,0,1-1.05,0c-.22,0-.08.4-.35.37,0-.14-.19-.3-.23-.12-.13,0-.18.13-.23.24l-.35.36c.14,0,.07.14,0,.25.41-.07.28.43.7.36,1-.23,1,.54,1.27,1.1.26-.1.63-.07.7-.37s-.33-.13-.35-.36c.07,0,.14,0,.12-.12a14.18,14.18,0,0,0,1.51,1.46h.12c.19.41,1.32.2,1-.12V28.5a9.53,9.53,0,0,0-1.51-1.71h-.12c-.4-1.17,1,.69,1.4,1,.28-.16.36.49.46.13.28-.68-.69-.84-.23-1.83"/><path class="cls-3" d="M10.14,34.09c.48.13.78-.25,1,0,.34-.56-1.49-1.67-1.51-1.09v.12H9.56c-.26.39.29,1.2.58,1"/><path class="cls-3" d="M44.1,27.28H44a7.08,7.08,0,0,0-1.28-1.34c.18-.54.57.23.82.36h.11c.06.41.77.57.46,1m-1.85-1.83c.07-.52.75.16.46.37-.3,0-.09-.48-.46-.37M44,24.6v.24c.11.13.43,0,.35.37.53.18.72.7,1.16,1-.14.49-.24,0-.58,0v-.12c0-.45-.61-.33-.58-.85H44v-.12c-.21-.48-1-1-1.4-.86s-.49-.22-.92-.12h-.12a.53.53,0,0,0,.12.37c-.3.09-.54-.48-.7-.13-.26.06,0,.6-.12.86v.12c.14,0,.13.19.12.36a2,2,0,0,1,.93.61c.06.75,0,1.59.69,1.71.29,0,.37-.19.59-.25.17.15.18.46.35.61.16.32.27.69.69.73s.15-.58.59-.48c.12.48.6,1.09,1,.84,0-.11.1-.14.12-.23,0-.52-.69-.43-.7-1a2.63,2.63,0,0,1-1.05-1.09h.24v.12c.25.34.67.51.81,1,.49,0,.46.57.93.61s.63.48,1.28.37v-.49c.16-.49-1.31-1-1-1.58,0,.07,0,.14.12.12.38,0,.25.47.58.48,0,.43.41.39.58.61.23-1.49-.47-1.62-1.4-2.43.21-.16.47-.26.47-.61a2.72,2.72,0,0,0-1.63-.61c-.13-.31-.5-.36-.81-.49s-.72-.3-.81.12c.17.06.29.19.46.25"/><path class="cls-3" d="M16.77,27.28c-.46-.05-.6-.43-.81-.73-.38-.66,0-.31.46-.13v.13c.23.49.8.62.93,1.21-.33,0-.32-.39-.58-.48m1.63,1.58c-.38-.3-.7-.64-1-1,.3-.11,1,.44,1,1m-.58.61c0,.29.51.07.58,0s.09-.15.12-.24,0-.43.23-.37c.58-.08.68.33,1.05.49A1.56,1.56,0,0,0,19,27.64a2.91,2.91,0,0,0-1.16-1.22,9,9,0,0,1-1.05-1.09v-.12c-.23-.3.48.12.58.24.5-.34,0-.93,0-1.46h-.69c-1.07.55.4.59-.12,1.1,0-.1,0-.24-.12-.25a.63.63,0,0,1-.46-.12,1.64,1.64,0,0,1-.82-.85c-.16.23-.48-.31-.47-.37,0,.17-.25.14-.34.25,0,.78.51,1.08.7,1.7-.37-.06-.48.16-.59.37h-.11a1.2,1.2,0,0,0-.35.73c.51.19,1.16.89,1.63.73h.11c.56.22.75.84,1.28,1.09v.13a2.17,2.17,0,0,0,.82,1"/><path class="cls-3" d="M8.74,28.86v.37a.45.45,0,0,1-.46-.49c.22,0,.25.14.46.12m-.46-.24c-.25.37-.44-.36-.7-.37s-.43.28-.58.49c-.1,0-.11,0-.12.12.33.48.16.54.59.61-.18.14-.29.35-.59.37,0,.19-.11.2-.11.36H6.65c0-.14-.12-.07-.12,0,.15.76,1.3,1.05,1.17,1.7-.51-.4-.83-1-1.4-1.34-.38.1-.35.61-.58.86,0,.18.1,0,.23,0,.18.5.8.55.93,1.09-.09.11-.32.08-.35.25-.31.28-1,1.2-.11,1.33.38.29.58-.46,1-.48,0-.52-.41-.63-.7-.85.28-.45.61.71.81.36H8c.1.29.31-.32.24-.61C8,32.41,8,32.05,7.7,32c.12-.27.36-.22.6-.08l.13-.66h0c.23-.49-.49-1.09-1-1.45.22-.58.49.29.81.36.5.09.51.69,1.28.48,0-.67-.53-.73-.7-1.21,0-.21.09-.23.23-.24h.12c0,.8.71.21.93.36-.11-.16-.11-.45-.34-.49V29c.45-.13,0-.37,0-.73a.47.47,0,0,0,.34.12c.06.17,1.05.3.93-.12.34-.13.54,0,.82.61.1,0,.11-.05.12-.12H12c.26-.09.15-.57.47-.61-.82-.45-1.25-1.95-2.33-1.71-.16,0-.33,0-.35.13H9.68c.33.62,1,.86,1.27,1.58-.37.11-.24-.32-.46-.37-.61,0-.7-1.21-1.28-.85-.26,0-.05.52-.12.73.15.21.47.25.59.49-.17.43-.49-.61-.71-.12-.35-.09-.33.21-.69.12,0-.11-.1-.22-.24-.24.17.22-.08.66.24.73"/><path class="cls-3" d="M29.22,10.6c.24-.25.23,0,.46.11.07,0,.14,0,.12.13.16.22.82-1,.35-1.1-.34-.46-.8-.78-1.16-1.22-.08-.49-.58-.54-.7-1-.32,0-.62.56-.47.61s.15.17.12.36c.09.38.57.78.35,1.1.49.05.62.48.93.73h.11c-.22.56-.44-.45-.93-.37-.25.59-.77.9-.81,1.71v.36h-.12a.54.54,0,0,0,.83.19l.33-.22c.45-.35.88-.82,1.15-.58h0c-.28-.19-.14-.58-.56-.83"/><path class="cls-3" d="M6.85,29.79l0,.05h0s0,0,0-.05"/><path class="cls-3" d="M19,27.16c.1-.27.3-.43.23-.86v-.61c-.53-.07-.72.22-1.28.13-.19.52.73.94,1.05,1.34"/><path class="cls-3" d="M11.89,27.16c.27.31.45.73.93.85h.11V27.4c-.33,0-.85-.48-1-.24"/><path class="cls-3" d="M31.19,6.57c.44.15.61.59.94.86.21,0,.25-.14.46-.12,0-.33,0-.7.12-.86-.45.11-.42-.3-.7-.37-.66-.16-.69-1-1.4-1.09-.13.19-.37.26-.34.61s.41.37.46.73c.36-.2.33.61.46.24"/><path class="cls-3" d="M42.13,20.09c-.4.16-1,.62-.82,1a5.6,5.6,0,0,0,2,.25c0-.53-.64-.3-.58-.86-.36.06-.31-.32-.58-.36"/><path class="cls-3" d="M38.06,23.26c.17.28.28.18.58.12a1.35,1.35,0,0,1,.93,1.1c0,.41.2.52.35.73v.12c.58.11.69-.89.58-1.1C39.78,24,39.39,23,38.76,22.4a7,7,0,0,0-2-1.34.58.58,0,0,0,.11.37c-.36.08-.47,0-.57.12.11,0,.13.1.23.13v.12c.23.63.86.87,1.27,1.34H38a.36.36,0,0,1-.19.21l.1.06a.5.5,0,0,1,.2-.15"/><path class="cls-3" d="M38.76,30.08c.22-.17.14-1,0-1.22s-1-.24-1.17,0c-.18,0-.08.26,0,.37.52.07.84,1,1.17.85"/><path class="cls-3" d="M38.76,32.15h.12c.25.3.42.69.81.85-.18.52-1.18-.55-.93-.85M38,31.66h-.13c-.4-.87.54-.05.58.37-.37.1-.15-.4-.45-.37m-.47-.49h-.12c0-.23-.25-.3-.24-.61.28.09.32.41.59.49,0,.1-.1.14-.23.12m3,1.95v-.49c-.1-.66-.61-.9-1-1.21s-.52-.52-.82-.74c-.11-.73-.91-.74-1-1.45-.22,0-.25-.14-.47-.13a1.38,1.38,0,0,0-1.27-.36c-.54-.09.27.82.58,1h.12c-.11.23.34.41,0,.49-.45-.1-.61-.51-.94-.74.06.45.19.71,0,1.1s.83.84.59,1.1c-.36-.12-.37-.59-.82-.61-.1.25-.18.78.12.49v.12c.26.18.26.62.82.49,0-.18,0-.45.11-.49.36.55,1.08.74,1.28,1.46.71.32,1,1.07,1.63,1.46h.12c.24.28.29.75.92.61.2-.2.1-.71.12-1.1a.58.58,0,0,1-.46-.6c.22,0,.14.33.46.24.06-.07.27-.58,0-.61"/><path class="cls-3" d="M42.59,31.05v-.12c-.05-.28-.51-.33-.23-.61.24.24.38.58.7.73-.08.37-.25-.12-.47,0m-1-1.7a.33.33,0,0,0,.23.36h.12c.41.81-.13.29-.47,0h-.58c-.36.61.16.84.35,1.22-.22.45-.53-.65-.82-.12v.12c-.29.32.07,1,.47,1,.15.45,1,1.16,1.39.61-.09-.34-.57-.28-.58-.73v-.12c-.19-.16-.45-.25-.46-.61.5.29.73.86,1.28,1.1h.11c.17-.19.3-.43.59-.49.11-.23-.35-.4,0-.49.54-.23-.15-.66-.12-1.09-.32-.39-.93-1-1.51-.73"/><path class="cls-3" d="M36.55,32.15h-.12A1.92,1.92,0,0,0,36.66,34h.12v.12c.68.06,1,.54,1.39.86h.12c.23.25,1,.62,1.28.36v-.12c-.57-.73-1.33-1.29-1.86-2.07-.53-.18-.69-.74-1.16-1"/><path class="cls-3" d="M46.9,19.61c.3-.36-.68-.17-1,0,0,.51.59.51.7,1,.58,0,1-.76.35-1"/><path class="cls-3" d="M29.1,6.33c.07.06,1.25.68.7,1,0-.1,0-.24-.12-.25-.41,0-.38-.41-.69-.49,0-.09,0-.23.11-.24m.12,1.83v.12a3.86,3.86,0,0,0,1.39,1.21c0,.08,0,.15.12.13.17.36.26.1.7.24,0-.24.31-.15.23-.48s-.46-.58-.7-.86c-.11-.48-.6-.59-.81-1H30c0-.87,1.2,1,1.4.85s0-.75.23-.85c-.05-.68-.85-.57-.93-1.22-.61-.26-.87-.88-1.4-1.22h-.46c-.33-.23-.23.37-.35.61.34,0,.43.28.58.49-.7.5.17.92-.47,1.58.28,0,.22.42.59.37"/><path class="cls-3" d="M35.62,27a1.07,1.07,0,0,0,.11.73h.59c0-.48-.43-.93-.7-.73"/><path class="cls-3" d="M36.66,36.17c0-.35-.55-.15-.46-.61-.05-.17-.66-.35-.35-.49a4.68,4.68,0,0,1,1.39,1.34c-.29,0-.36-.19-.58-.24m-1-1.1H35.5V35c-.1-.37-.88-.45-.58-.86.25,0,.37.11.34.37s.67.43.36.61M34,35.19c.57-.27.82.85,1.39,1-.54.24-.8-.87-1.39-1m4.89,1.59c-.13-.39-.34-.68-.36-.86,0,.32-.2-.16-.46,0H38a5.26,5.26,0,0,1-.94-1.1c0,.31-.39,0-.46,0-.9-.27-1.15-1.33-.93-2.43a.55.55,0,0,1-.36-.12c-.6.17-.49.35-.69.85-.13,0-.18.14-.24.24-.27.27.6.36.47.86-.23,0-.15-.34-.47-.25v-.24c-.39-.35-.77.09-.93.36,0,.53.58.46.59,1-.21,0-.46-.69-.47-.12H33.4a1,1,0,0,0,.82,1.46c.8-.19.32,1,.7,1.22h.81c.41.15.37-.08.59-.13.12-.49-.9-.52-.94-1.21.36.11.37.59.82.6h.12c.37.73,1.55,2.16,2.32,1-.24,0-.71-.46-.47-.61s.4.63.59.24c.25,0,0-.51.12-.72"/><path class="cls-3" d="M13.74,32.76c-.41-.34-.73-.77-1.16-1.1h-.11c-.25-1.07,1.43.74,1.27,1.1m.12-.13a1.17,1.17,0,0,1,.47.61c-.33,0-.69-.36-.47-.61m-3.11-1.34c.23.29.61.47.43.61.81.17,1.53,2,2.91,1.59v-.13a.32.32,0,0,0,.35-.24h.23c.57.05.69-1-.11-1.22.11-.41.26-.1.47,0,.4-.18.32-.5.69-.48a6.14,6.14,0,0,0-1.51-1.58v-.13a.33.33,0,0,0-.35-.25c.78-.17,1.61,1.63,2.56,2.08,0,.11,0,.11.12.12a1,1,0,0,0,.46.49.59.59,0,0,0,.35-.37c-.21-1.29-1.23-2-2.32-2.92-.49-.42-.82-1-1.4-1.34-.22.17-.21.59-.35.85h-.12c.3.22.5.53.82.73-.05.35-.69-.31-.82.13a.58.58,0,0,1-.34.12v.49a1.59,1.59,0,0,1,.81.84c.24.08.37.26.58.37v.12a2,2,0,0,0,.46.37c-.27.48-.84-.49-1-.86a1.78,1.78,0,0,1-.81-.84c-.25.05-.31-.09-.47-.13-.38.46.12,1.38,0,1.58-.41-.24-.45-.86-1.21-.73l-.45.55Z"/><path class="cls-3" d="M31.78,5.11c.28-.11.31-.85.11-1.09a.81.81,0,0,0-.81.48c.19.24.31.57.7.61"/><path class="cls-3" d="M46.43,22.4c-.37,0-1.07-.82-1.51-1.21.49-.06,1.14.76,1.51,1.21m-4-2.43c-.35.14.43.11.23.48.71.41,1.1,1.13,1.75,1.59h.11a9.56,9.56,0,0,0,1.28,1.34c.35.15.4,0,.7-.12v-.37c-.43-.61,1.23.19,1.05-.49v-.24c-.27-.12-.32-.47-.58-.61.13-.25.12-.25-.12-.12-.13-.44-.5-.61-.81-.85H46c0-.53-.58-.45-.58-1-.17.06-.6-.15-.58.12-.16.12-.44.11-.47.36-.07.61.62.4.58,1-.32,0-.32-.39-.58-.48-.55,0-.46-.74-.81-1h0c-.41.05-1.11-.2-1,.36"/><path class="cls-3" d="M13.16,22.28c.07,0,.14,0,.12-.12.57-.6-.61-1.08-.7-.36.17.19.3.42.58.48"/><path class="cls-3" d="M19.56,24.23h.12c.12.28.23.57.58.61h1.17c.07-.49-.5-.3-.47-.73,0-.17-.19-.21-.23-.36.12,0,.13-.1.23-.13,0,.32.24.32.47.37a14.59,14.59,0,0,0,1.27,1.34c-.06.48,1,.9,1.05.49.1-.64-.45-.59-.58-1a1.36,1.36,0,0,0-.82-.85,9.86,9.86,0,0,1-1-1.1c.24-.56.55.43.93.49.37-.11.24.32.46.37-.12.08.86,1.21,1.17.85-.27-.37-.27-1-.47-1.46V23c.26-.12-.79-.53-.46-.73s.3.33.58.37c.11,0,.13-.1.23-.13v-.36c.12-.38-.44-1.07-.93-1.22-.42,0-.78-.63-1.16-.24.38.45.92.74,1.16,1.34-.1.57-.66-.43-.58-.49-.83.06-1.09-1.6-1.75-1.21h-.12c-.27-.48-1.28.44-.69.48v.12c-.06.42,1,.4,1.28,1.34-.41,0-.38-.41-.7-.48s-.3.17-.58.12c-.06.59.37.66.58,1V23c.15.25.48.31.58.61-.11,0-.14.1-.23.13-.13-.12,0-.46-.35-.37-.46-.09-.4-.72-.93-.73a.72.72,0,0,1-.12.49h-.12c0,.13-.12.18-.22.24.15.37.28.75.69.85"/><path class="cls-3" d="M23.4,13.51c.09,0,.23,0,.23-.11s.23,0,.24-.13c-.14-.26-.56-.6-.35-.85a.74.74,0,0,0-.94.12,1.6,1.6,0,0,0,.82,1"/><path class="cls-3" d="M33.4,25.33a1.14,1.14,0,0,1,1.05-.12c.13-.4-1-1.51-1.63-1.95-.31,0-.5.38-.58.61V24c.23.62.83.83,1.16,1.34"/><path class="cls-3" d="M25.73,5.6c-.12-.41-.45-1.23-.82-1v.11c.19.38.36.77.82.86"/><path class="cls-3" d="M17.47,22.89c.07,0,.13,0,.12-.12-.33-.64-1-.93-1.29-1.58.78.44,1.26,1.21,2,1.7.26-.17.55-.32.47-.85-.82-.45-1.3-1.89-2.68-1.34.13.18.13.29-.12.36-.38-.3-1-.53-1.28.13.48.59,1.57,2.2,2.8,1.7"/><path class="cls-3" d="M16,23.14V23c-.18-.22-1.24-1.84-1.62-1.46h-.12c-.17.15-.17.47-.35.61.71.41,1.59,1.5,2.09,1"/><path class="cls-3" d="M31.66,25.33h.12c.27.58.85,1.43,1.74,1a.54.54,0,0,1,.12-.36c-.33-.39-.52-.92-1-1.1-.37.06-.31-.33-.58-.36,0,.43-.35.44-.35.85"/><path class="cls-3" d="M22.82,10.71A1.83,1.83,0,0,0,22.47,9c-.83,0-.45.68-.35,1.22.34.45-.38,1,.12,1.34h.11c.27-.17.29-.59.47-.86"/><path class="cls-3" d="M24.21,16.19h.12c0-.38.31-.4.24-.85-.36-.64-1.08-.9-1.4-1.58-.44-.87-1.06-.89-1.28-.12.17.16.31.54.12.73.11,0,.14-.1.23-.12.68.62,1.26,1.36,2,1.94"/><path class="cls-3" d="M13.74,20.7v-.49c0-.5-1.21-.84-1.16-1.82-.69-.12-.44-.92-1.4-1a1.14,1.14,0,0,0-.69.37A27.62,27.62,0,0,0,13.4,20.7Z"/><path class="cls-3" d="M24.21,9.38a.44.44,0,0,1,.47.48c.19.09.58.6.35.73,0,0-2.11-2-.82-1.21m-1,0a3,3,0,0,0,1.51,2.31c0,.16.2.11.23.24a2.31,2.31,0,0,0,.7-.24v-.25c-.17-.41-.35-.35-.35-.73.23.06.58.6.7.37.29-.27,0-1-.12-1.22-.14-.38-.5-.53-.58-1a3.49,3.49,0,0,1,.82.85.88.88,0,0,0,.69-.61c0-.07,0-.14-.11-.12-.27-.85-1.26-1-1.4-1.95.35.17.47.56.82.73h.34c0-.3.19-.38.24-.61a17,17,0,0,0-1.87-2.07h-.11c-.53.86.22,1,.46,1.71-.35.27-.84-.86-1-.73h-.23c-.14-.33-.61,0-.82,0,.33,1.18,1.22,1.38,2.09,2.43,0,.09,0,.25.12.25-.78.18-1.38-2.16-2-.86V8.4c-.07,0-.13,0-.11.12.2.05.72.37.35.61.1-.25-.38-.46-.35-.24-.3,0,.16.21,0,.49"/><path class="cls-3" d="M43.41,23.26h.12c0-.75-.61-1.39-1.17-1.1.36.36.55.89,1,1.1"/><path class="cls-3" d="M21.43,17.54v.12c.1.21.46.16.34.61-.3-.13-.39-.48-.7-.61,0-.15.19-.14.36-.12m1.51,1.58c-.3.34-.51-.44-.82-.49H22a.36.36,0,0,0-.24-.24c.42-.28.83.52,1.17.73m-.12-2.07c.3.28.7.48.81,1-.14,0-.16-.15-.35-.12v-.12c.12-.45-.79-.46-.46-.73m-2,0c-.17.28-.37-.24-.35.24v.12A1.63,1.63,0,0,0,21,19.12v.24c-.17.45,1.55.39,1.39.85-.05-.33.64.1.59-.24.12,0,.18-.13.23-.24-.11-.22-.39-.38,0-.49-.09.2.23.53.23.24.29-.18.33-.63.47-1q-.15,0-.12-.24c0-.1,0-.25.12-.25s0,.24.11.25,0-.15.12-.13a7.9,7.9,0,0,1,.47-1q-.15,0-.12-.24a8.76,8.76,0,0,0-1.17-1.22c-.5-.17-.69-.65-1-1,0-.17-.19-.2-.23-.36s-.86-.45-.94,0c-.44.79.68,1,.82,1.58,0,.26.63.46.35.61-.38-.09-.39-.56-.81-.61,0-.07,0-.14-.12-.12-.48-.45-1.14.59-.94.85.09-.26.39.23.47.37"/><path class="cls-3" d="M31.43,25.69h-.12a2.44,2.44,0,0,0-.7,1.1v.12c0,.52,1.59,0,1.63-.61-.19-.21-.58-.85-.81-.61"/><path class="cls-3" d="M17.82,11.93c-.3-.06-.48-.87-.82-.49.31,0,.71,1.05.82.49"/><path class="cls-3" d="M40.27,22.28a1.55,1.55,0,0,1-.7-.73c.26-.28.79.66.7.73M38.52,22a14.77,14.77,0,0,0,1.4,1.34,11.74,11.74,0,0,1,1.39.49c0-.23-.12-.27-.11-.49a2.9,2.9,0,0,1-.7-.85c.67.19.8.95,1.4,1.22.41.19.07-.42.35-.37a2.78,2.78,0,0,0,1,.49c-.26-1.06-1.63-2-2.79-2.56,0-.12-.09-.14-.12-.25-.2.08-.68-.14-.69.13.25.5-1.39.09-1.17.73Z"/><path class="cls-3" d="M34.92,23c.31.51,1.88,2.19,1.74,1.71.26-.17.11-.92-.11-1,0-.32-.55-.18-.23-.49-.6.17-.46-.43-.7-.61-.25.07-.77-.15-.82.12h.12Z"/><path class="cls-3" d="M15.61,10.1c.39.32.76.66,1.16,1,.11-.76-.74-1.55-1.16-1"/><path class="cls-3" d="M16,10.84c-.39.05-.34-.37-.58-.49-.46-.23-.81-1.14-1.16-1.1s-.36-.19-.58-.24-.14-.1-.23-.12c0,.27-.36.66-.12.73.08-.3.35.18.46.24h.12a7.51,7.51,0,0,0,1.28,1.47c.44-.1.25.46.58.48-.06.85-1-1-1.63-1.1-.17.23-.76,0-.93.25v.12h-.11a30.68,30.68,0,0,1,3.6,3.78h-.23a3,3,0,0,1-.58-.61v-.13c-.23,0-.23-.16-.35-.24s-.14-.1-.23-.12a1.6,1.6,0,0,0-.82-1h-.35a.57.57,0,0,1-.11.36c-.3,0-.23.41-.24.73a1.9,1.9,0,0,0,1.63.24c0,.37.07.75.35.86s.17.63.58.61a1.9,1.9,0,0,0,.35-.49c0-.36,1.49.29,1.28-.37v-.12c0-.37-.78-1-1.16-1.34h-.12c-.14-.54-.84-.49-.81-1.22.69.32,1.33,2.29,2.21,1.22v-.12c-.24-.77-1.41-1.61-2.1-2.31"/><path class="cls-3" d="M23.17,11.08a11.66,11.66,0,0,1,1.4,2.68,1.88,1.88,0,0,0-1.4-2.68"/><path class="cls-3" d="M12.11,22.89h.12c.4.33.85.46,1-.12C12.76,22,11.79,21.29,11,22c.5.09.72,1.11,1.16.85"/><path class="cls-3" d="M10,19.48c-.34-.17-.47-.56-.81-.73.26-.22.78.31.81.73m-3,0v.13c0,.09-.12.12-.12.24-.15,0-.18-.22-.35-.24H6.42c0-.1-.12-.13-.12-.25-.26.52-1.35.6-.81.73v.49c.21.47,1.07.26,1.51.48,0,.25-.44.76-.12,1H7c0,.1,0,.11.12.12A1.17,1.17,0,0,0,8,21.43v-.12h.12c-.17-.47-.68-.59-.81-1.1.87.67,1.56,1.44,2.67,1.34-.15-.49-.73-.53-.81-1.1.55.32.75,1,1.4,1.23.37-.06.46-.41.69-.62v-.12c-.34-.53-.9-.84-1.28-1.33.65-.11,1.39,1.38,1.87,1.45.51-.09.69.17,1.16.13,0-.1.11-.13.11-.25A11.46,11.46,0,0,0,11,18.75c0-.28-.55-.07-.46-.48a1.51,1.51,0,0,0-1.17-.62c-.21.06-.69-.16-.58.25a1.06,1.06,0,0,0,.47.49c-.4.37-.66-.44-.93-.61a.32.32,0,0,0-.35.24c-.23.09-.31.33-.35.61.1.1.07.33.23.37-.09.32-.54-.28-.58.24,0-.09,0-.17-.06-.25L7,19.13a.27.27,0,0,1,0,.35"/><path class="cls-3" d="M35.73,25.33c-.07-.3.15-.89-.11-1a3.36,3.36,0,0,0-.82-1c-.51.22-1.21-.43-1.28.12.53.64,1.77,2.3,2.21,1.83"/><path class="cls-3" d="M6.18,24.35H6.07A.33.33,0,0,0,5.84,24c0-.1.09-.14.23-.12h.11a.91.91,0,0,0,.24.36c0,.1-.1.14-.24.12M5.49,23c-.1.5.55.23.46.74-.2.22-.34-.06-.58-.13,0,.15-.21.28,0,.37.15.54,0,.5-.23.85-.19,0,0,.17.23.12a.72.72,0,0,0,.12.49c-.12,0-.15-.1-.24-.12H5.14v-.12c-.22-.05-.21-.35-.58-.25-.26.37-.42.84-.24,1.1.62-.47,1.33.63,1.63.49.09,0,.23,0,.23-.13,0-.31-.34-.36-.34-.73.23.2.54.33.58.73.59.14.58-.35.81-.6h.12c.35-.38-.54-.49-.47-1,.36,0,.58.85.93.49.59-.13,1,.8,1.4.12.07-.32-.91-.58-.93-1.22.34.37.79.63,1.16,1,.13,0,.18-.14.24-.25.33-.43.1-.56.81-.61.21,0,.58.13.46-.24s-.45-.41-.58-.73-.57-.38-.58-.86c.64.2,1,1.32,1.51,1.23.24,0,.23-.33.47-.37a1.46,1.46,0,0,0-1.86-1c-.17.05-.2.15-.35,0H9.44A1,1,0,0,0,7.93,22c.44,1,1.38,1.39,1.86,2.31-.32,0-.32-.39-.58-.48H9.09C8.71,23.29,8,22.43,7.47,22.4c-.16.12-.44.12-.47.37s.42,0,.35.37c0,.09,0,.23-.12.24a1.7,1.7,0,0,1-.93-.86c-.4,0-.44.44-.81.49"/><path class="cls-3" d="M44.92,21.19c.44.39,1.14,1.16,1.51,1.21-.37-.45-1-1.27-1.51-1.21"/><path class="cls-3" d="M36.78,25.94c0,.32.3.41.58.48a.46.46,0,0,0-.58-.48"/><path class="cls-3" d="M32.59,24.84c.53.18.72.71,1,1.1a.54.54,0,0,0-.12.36c-.89.46-1.47-.39-1.74-1h-.12c0-.41.38-.42.35-.85.27,0,.22.42.58.36m-.35-1c.08-.23.27-.64.58-.61.6.44,1.76,1.55,1.63,1.95a1.14,1.14,0,0,0-1.05.12c-.33-.51-.93-.72-1.16-1.34Zm2.56-.49a3.36,3.36,0,0,1,.82,1c.26.09,0,.68.11,1-.44.47-1.68-1.19-2.21-1.83.07-.55.77.1,1.28-.12m.82-.73c.24.18.1.78.7.61-.32.31.22.17.23.49.22.05.37.8.11,1,.14.48-1.43-1.2-1.74-1.71v-.24H34.8c.05-.27.57-.05.82-.12m-5,4.26v-.12a2.44,2.44,0,0,1,.7-1.1h.12c.23-.24.62.4.81.61,0,.62-1.62,1.13-1.63.61m9.08-5.72c0-.27.49-.05.69-.13,0,.11.12.13.12.25,1.16.54,2.53,1.5,2.79,2.56a2.91,2.91,0,0,1-1-.49c-.27-.05.07.55-.34.37-.6-.27-.73-1-1.4-1.23a2.82,2.82,0,0,0,.7.86c0,.22.14.26.11.49a11.74,11.74,0,0,0-1.39-.49A14.77,14.77,0,0,1,38.52,22v-.12c-.22-.64,1.42-.23,1.17-.73m3.84,2.07h-.12c-.5-.21-.69-.74-1-1.1.56-.29,1.22.35,1.17,1.1m.81,1c.31.13.68.18.81.49a2.72,2.72,0,0,1,1.63.61c0,.35-.26.45-.47.61.93.81,1.63.94,1.4,2.43-.17-.22-.59-.18-.58-.61-.33,0-.2-.52-.58-.48-.1,0-.11-.05-.12-.12-.26.6,1.21,1.09,1,1.58v.49c-.65.11-.75-.36-1.28-.37s-.44-.6-.93-.61c0,.56.65.46.7,1,0,.09-.12.12-.12.24-.44.24-.92-.37-1-.85-.44-.1-.26.46-.59.48s-.53-.41-.69-.73c-.17-.15-.18-.46-.35-.61-.22.06-.3.27-.59.25-.67-.12-.63-1-.69-1.71a2,2,0,0,0-.93-.61c0-.17,0-.34-.12-.36v-.12c.07-.26-.14-.8.12-.86.16-.35.4.22.69.13a.58.58,0,0,1-.11-.37h.11c.44-.1.56.15.93.12s1.19.39,1.4.86v.12h.35c.08-.33-.24-.24-.35-.37V24.6c-.17-.06-.29-.19-.46-.25.09-.42.52-.35.81-.12M43.87,22h.23c.38,0,.89.94,1.29,1.34-.11.36-.3-.16-.58,0-.43-.09-.72-.95-.94-.86s.17-.2,0-.48M41.2,27.89c-.1.36-.18-.29-.46-.13-.39-.28-1.8-2.14-1.4-1h.12A9.53,9.53,0,0,1,41,28.5v.12c.27.32-.86.53-1,.12H39.8a14.18,14.18,0,0,1-1.51-1.46c0,.1,0,.11-.12.12,0,.23.39.08.35.36s-.44.27-.7.37c-.23-.56-.28-1.33-1.27-1.1-.42.07-.29-.43-.7-.36.07-.11.14-.22,0-.25l.35-.36c0-.11.1-.22.23-.24,0-.18.2,0,.23.12.27,0,.13-.35.35-.37a1.28,1.28,0,0,0,1.05,0c.38-.28.56.7,1,.73.12-.38-.61-.47-.22-.73.5-.05.59.35,1,.37-.13-.34.75.11,1,.12-.46,1,.51,1.15.23,1.83m-5.47-.13a1.07,1.07,0,0,1-.11-.73c.27-.2.7.25.7.73Zm10.82-7.18c-.11-.46-.65-.46-.7-1,.37-.17,1.35-.36,1,0,.64.2.23,1-.35,1"/><path class="cls-3" d="M42.24,25.45c.38-.11.16.4.47.37.29-.21-.39-.89-.47-.37"/><path class="cls-3" d="M40.27,22.28c.09-.07-.44-1-.7-.73a1.55,1.55,0,0,0,.7.73"/><path class="cls-3" d="M43.64,26.3h-.11c-.25-.13-.64-.9-.82-.36A7.4,7.4,0,0,1,44,27.28h.11c.31-.41-.4-.57-.46-1"/><path class="cls-3" d="M37.36,26.42c-.14.16,0,.2,0,.37h.23c.14.15.49.69.7.37-.39-.16-.44-.68-.93-.74"/><path class="cls-3" d="M44.46,27.28v-.12h-.24a2.63,2.63,0,0,0,1.05,1.09c-.14-.46-.56-.63-.81-1"/><path class="cls-3" d="M44.92,26.06v.12c.34,0,.44.49.58,0-.44-.26-.63-.79-1.16-1,0,.52.55.4.58.85"/><path class="cls-3" d="M29.68,7.06c.11,0,.09.15.12.25.55-.3-.63-.92-.7-1s-.09.15-.11.24c.31.08.28.51.69.49"/><path class="cls-3" d="M15.37,35.31c-.22-.05-.29-.26-.58-.24v.24h.12c.2.11.36.41.46,0"/><path class="cls-3" d="M17.35,27.76c-.13-.59-.7-.72-.93-1.21v-.13c-.48-.18-.84-.53-.46.13.21.3.35.68.81.73.26.09.25.46.58.48"/><path class="cls-3" d="M15.49,37.26c0-.32-.91-1.21-1.28-1.09.47.31.82.77,1.28,1.09"/><path class="cls-3" d="M14.33,33.24a1.17,1.17,0,0,0-.47-.61c-.22.25.14.57.47.61"/><path class="cls-3" d="M7.47,29.47c-.43-.07-.26-.13-.59-.61,0-.08,0-.14.12-.12.15-.21.24-.48.58-.49s.45.74.7.37c-.32-.07-.07-.51-.24-.73l-.34.17-.78.52L6.64,29l.3.63-.09.17a.13.13,0,0,1,0,.05c.3,0,.41-.23.59-.37"/><path class="cls-3" d="M8.74,29.23v-.37c-.21,0-.24-.15-.46-.12a.45.45,0,0,0,.46.49"/><path class="cls-3" d="M12.58,31.66c.43.33.75.76,1.16,1.1.16-.36-1.52-2.17-1.27-1.1Z"/><path class="cls-3" d="M28.63,12l.45-.3.37-.11.33-.17c-.27-.24-.7.23-1.15.58"/><path class="cls-3" d="M18.4,28.86c-.08-.53-.75-1.08-1-1,.35.33.67.67,1,1"/><path class="cls-3" d="M29.1,6.21c-.15-.21-.24-.48-.58-.49.12-.24,0-.84.35-.61h.46c.53.34.79,1,1.4,1.22-.05-.35-.38-.41-.46-.73s.21-.42.34-.61c.71.12.74.93,1.4,1.1.28.06.24.47.7.36-.16.16-.12.53-.12.86-.21,0-.25.14-.46.12-.33-.27-.5-.7-.94-.86-.13.37-.1-.44-.46-.24.08.65.88.54.93,1.22-.25.1,0,.77-.23.85S30,6.68,30,7.55h.12c.21.38.7.49.81,1,.24.28.6.43.7.86s-.23.24-.23.48c-.44-.14-.53.12-.7-.24-.1,0-.11,0-.12-.13a3.86,3.86,0,0,1-1.39-1.21V8.16c-.37.05-.31-.33-.59-.36.64-.67-.23-1.09.47-1.59M31.89,4c.2.24.17,1-.11,1.09-.39,0-.51-.36-.7-.61A.81.81,0,0,1,31.89,4"/><path class="cls-3" d="M38.88,32.15h-.12c-.25.3.75,1.37.93.85-.39-.16-.56-.55-.81-.85"/><path class="cls-3" d="M37.82,31.66H38c.3,0,.08.47.46.37,0-.42-1-1.24-.59-.37"/><path class="cls-3" d="M43.18,31.17c-.35.09.11.26,0,.49-.29.06-.42.3-.59.49h-.11c-.55-.24-.78-.81-1.28-1.1,0,.36.27.45.46.61v.12c0,.45.49.39.58.73-.35.55-1.24-.16-1.39-.61-.4,0-.76-.65-.47-1v-.12c.29-.52.6.57.82.12-.19-.38-.71-.61-.35-1.22h.58c.34.29.88.81.47,0h-.12a.32.32,0,0,1-.23-.36c.58-.28,1.19.34,1.51.73,0,.43.66.86.12,1.09M40.5,33.73c-.32.09-.24-.24-.46-.24a.58.58,0,0,0,.46.6c0,.39.08.9-.12,1.1-.63.14-.68-.33-.92-.61h-.12c-.64-.39-.92-1.14-1.63-1.46.53.78,1.29,1.34,1.86,2.07v.12c-.33.26-1-.11-1.28-.36h-.12c-.43-.32-.71-.8-1.39-.86V34h-.12a1.92,1.92,0,0,1-.23-1.82h.12c.47.23.63.79,1.16,1-.2-.72-.92-.91-1.28-1.46-.16,0-.1.31-.11.49-.56.13-.56-.31-.82-.49v-.12c-.3.29-.22-.24-.12-.49.45,0,.46.49.82.61.24-.26-.9-.76-.58-1.1s.05-.65,0-1.09c.32.22.48.63.93.73.34-.08-.11-.26,0-.49h-.12c-.31-.15-1.12-1.06-.58-1a1.38,1.38,0,0,1,1.27.36c.22,0,.25.15.47.13-.08-.11-.18-.34,0-.37.16-.24,1-.15,1.17,0s.22,1.05,0,1.22-.65-.78-1.17-.85c.14.71.94.72,1,1.45.3.22.48.56.82.74s.94.55,1,1.21v.49c.27,0,.07.54,0,.61M38.76,37.5c-.19.39-.38-.25-.59-.24s.23.57.47.61c-.77,1.18-2-.25-2.32-1H36.2c-.45,0-.46-.49-.82-.6,0,.69,1.06.72.94,1.21-.22,0-.18.28-.59.13h-.81c-.38-.25.1-1.41-.7-1.22A1.05,1.05,0,0,1,33.4,35h.12c0-.57.26.14.47.12,0-.52-.58-.45-.59-1,.16-.27.54-.71.93-.36V34c.32-.09.24.24.47.25.13-.5-.74-.59-.47-.86.06-.1.11-.21.24-.24.2-.5.09-.68.69-.85a.55.55,0,0,0,.36.12c-.22,1.1,0,2.16.93,2.43.07,0,.44.31.46,0a5.26,5.26,0,0,0,.94,1.1h.11c.26-.16.44.32.46,0,0,.18.23.47.36.86-.08.21.13.71-.12.72"/><path class="cls-3" d="M42.36,30.32c-.28.28.18.33.23.61v.12c.22-.12.39.37.47,0-.32-.15-.46-.49-.7-.73"/><path class="cls-3" d="M35.26,34.46c0-.26-.09-.39-.34-.37-.3.41.48.49.58.86v.12h.12c.31-.18-.33-.39-.36-.61"/><path class="cls-3" d="M34,35.19c.6.11.85,1.22,1.39,1-.57-.13-.82-1.25-1.39-1"/><path class="cls-3" d="M35.85,35.07c-.31.14.3.32.35.49-.09.46.44.26.46.61.22,0,.29.26.58.24a4.68,4.68,0,0,0-1.39-1.34"/><path class="cls-3" d="M37.12,30.56c0,.31.19.38.24.62h.12c.13,0,.2,0,.23-.13-.27-.08-.31-.4-.59-.49"/><path class="cls-3" d="M6.07,23.87c-.14,0-.21,0-.23.12a.33.33,0,0,1,.23.36h.11c.14,0,.21,0,.24-.12a.91.91,0,0,1-.24-.36Z"/><path class="cls-3" d="M44.34,16.44c-.4,0-.35-.36-.58-.49-.27.21.48,1,.58.49"/><path class="cls-3" d="M43.29,17.54c.21-.52-.78-.8-.93-1.34h-.12c-.09,0-.11-.12-.23-.12.25.67.88.94,1.28,1.46"/><path class="cls-3" d="M37,7.31c.31,0,.26.38.58.36,0-.34-.47-.84-.58-.36"/><path class="cls-3" d="M39,8.52c-.3.35-.41-.54-.81-.48s-.13-.53-.58-.37c.12.6,1.14.9,1,1.34,0,.1,0,.12-.12.12A1.86,1.86,0,0,1,37.13,9V8.89c-.38-.83-1.27-1.11-1.63-1.95,0-.31.84-.13,1.16.12h.12c.53.31.09-.3.23-.36.09-.23.15-.5.35-.61h.12c.71,0,1.28,1.24,2,1.7-.11.18-.18.39-.47.37.1.09.07.33.23.36,0,.18-.1,0-.23,0m-.47,1.22c.31.3,0,1.08-.34.73V10.1c-.25,0,.12-.42.34-.36M41,12.9V13c.29.2-.37,1.07-.59.73a.3.3,0,0,1-.34-.25,3.84,3.84,0,0,1-1.4-1.21h-.12c-.16-.37-1-.66-.81-1V11.2c1.37-1.36,2.41,1,3.26,1.7m-2.56.86h-.12c-.5.07.21.1-.11.49h-.12v.12c-.85.43-.78-.9-1.74-.73-.06.35-.51-.5-.59-.13-.2-.16-.08-1,.47-1.09V12.3c.43-.25.72.7,1.16.85.32-.43-.85-.86-.7-1.1s.4-.39.59-.61c.49.13,1.22,1.08,1.74,1.59-.05.39-.39.48-.58.73M39,18.14c-.25.19-.43.44-.7.61v.13c-.15-.15-.18-.05-.34,0,.35.3.58.64.11,1,0,.12-.14.1-.24.12-.46-.16-.53-.74-1-.85,0-.37,0-.74.35-.73h.12c.14-.35.23.38.57.24-.4-.79-1.16-.75-.57-1.95h.23A8,8,0,0,1,39,18.14m-1.28-1.82c.18-.42,1.63.73,2,1.33.3,0,.23.41.23.74-.66.08-.44-.76-1-.74-.53-.26-.8-.79-1.17-1.21Zm3.72,1.58c0,.21-.2.27-.46.24-.61.19-.88-1-1.4-1.33h-.11c-.25-.2-.59-.29-.58-.73,1.23-.7,1.86,1.15,2.55,1.82m-1.16-2.8h.11c0-.19.21.1.24-.12.53.66.84.24,1.16,1.21h.12c0-.1.11-.11.11-.24s-.71-.37-.34-.61a.64.64,0,0,1,.69-.36c.37.26.7.57,1,.85.13-.66-.64-.39-.58-1,0-.27.49-.06.7-.13A4,4,0,0,1,45,16.08a.82.82,0,0,0-.12.6c.3.1.66.13.82.37.27,0,.5.12.57.36-.15.13-.87.29-.92.13v-.13c-.1,0-.11.05-.12.13-.1-.13-.3-.69-.81-.73.12.52.57.69.93,1-.08.33-.46,1-.7.73-.42-.17-.5-.7-.93-.86-.06.11-.1.23-.23.25,0,.42-.35.53-.7.61a2.36,2.36,0,0,1-.47-.61c-1-.16-1.79-1.31-2.44-2.19.09-.23.15-.5.35-.61M45.62,15c.09.13.45.56.12.73a.57.57,0,0,1-.82-.49c.11-.21.37-.27.7-.24m-8.73,4.74c-.09.38-1.64.39-1.39.13-.1-.06-.21-.11-.24-.24.2-.26.82-1,1.4-.37-.19.38.58.34.23.48m-2.21-3c0-.1,0-.11.12-.12v-.12c0-.22.91-1.07,1.4-.73h.12c.09,0,.11.12.23.12-.45,1.21-.91,1.74-1.87.85m-1.16-.85c-.86.33-.67,1.25-1.51,1.46.06-.68,0-1.51.47-1.95v-.12c.73,0,.53-2.18,1.86-1.46h.11c.15.5,1,.28,1.17.73.48-.07.59-.78,1-.24v.12c.17-.06.29.47.35.12a1.2,1.2,0,0,1,.35.73.58.58,0,0,0-.11.37c-.71.16-.5-.63-1.17-.49-.66.66-1.76.42-2.56.73m-2,.36h-.11c-.67-.68-1.9-1.42-2.1-2.18v-.13c.24-.33.4-.71,1.05-.61.07.58.52.75.81,1.1v.12c.74.11.54,1.09.35,1.7m-1,.49c-.42.1-.57-.27-.82,0v.13c.15.12.3,1.27-.11,1.21s-.44-.52-.82-.61c-.15,0-.18-.21-.35-.24.06.39.45.43.47.85s-.25-.12-.47,0-.14.58-.46.61-.71-.64-.93-1c-.1,0-.12,0-.12-.11s-.11.11-.23.11a4.33,4.33,0,0,0,.93,1c-.19.31.13.89-.35,1.09,0,.11,0,.12-.12.13-.33-.3-1.23-1.07-1.74-1.59a5.78,5.78,0,0,1,.46-1h.24c.2,0,.51.21.46-.24.28-.39-.3-.9,0-1.34.1.1.32.07.35.24s.29.18.47.24c0-.52-.58-.44-.58-1a1,1,0,0,1,.58-.73,2.18,2.18,0,0,1,.93.85v.12c.43.07.47.56.93.62.07-.41-.86-.81-1-1.35v-.12c.4-.14,1.22-.39,1.28.12h.12c.46.48,1.19,1,1.28,1.46.27,0,.13.36.34.37,0,.27-.49.05-.69.12m.93-2.92h.11c0-.35.81-.12,1.05,0,0,.54-.14.91-.58,1s-1.1-1.08-.58-1M32,12.3c.16,0,.33,0,.35.12.35.36.32-.38.57-.49h.13c.72-.18,1.72.22,2.44-.36v-.13c.1-.47.41-.14.58-.36.26.23-.12.33-.12.85-.15-.14-.18,0-.34,0a5.79,5.79,0,0,1-.47.61c-.52.44-1.32.25-1.75,1A4,4,0,0,1,32,12.66Zm.47-.86a2.5,2.5,0,0,1,.34-1.09c.24.12.19.54.58.49.34.1-.06.39,0,.6-.4-.47-1.53.84-.92,0m.92-2.06c.62.29.94.88,1.4,1.33a.58.58,0,0,1,.35-.12c0,.1-.11.12-.11.25.1-.06.2-.11.22-.25v-.12a3.72,3.72,0,0,1-1.39-1.22A.81.81,0,0,1,34,8.64h.35a6.38,6.38,0,0,0,.92.61c.42-.14-.58-.4-.22-.48V8.64c-.34-.24,0-1.43.22-1.09h.13c.71.87,1.94,1.21,2.21,2.55-.12.34-.59.29-.82.49-.22,0-.08-.4-.35-.36V10.1h-.11c-.44-.15-.58-.62-.93-.85,0,.49.81.69.57,1v.12c.15.16-.78.23-.81.61v.12c-.06.42-.11.36-.81.49-.3-.86-1.37-1.06-1.28-1.71.12-.16.19-.37.34-.48M39,6.57c.4,0,.81,0,.93.25a1,1,0,0,1-.12.73.31.31,0,0,1-.34-.24c-.24-.08-.38-.27-.58-.37A.74.74,0,0,0,39,6.57M30.15,23.26a1.49,1.49,0,0,1,0-1.1c.58.22,1,1.05,0,1.1m-4.66,3.29c.32.19.74.29.7.85-.34.23-.72-.32-.7-.85"/><path class="cls-3" d="M26.31,23.26c0,.1.11.12.11.24s.1.39.36.37.25.46.58.48c0-.27-.59-.92-1.05-1.09"/><path class="cls-3" d="M6.88,12.79c.14.18.49.14.47.48v.13h.12c.33-.31-.47-1.15-.59-.61"/><path class="cls-3" d="M27.82,23.26a4.32,4.32,0,0,0-1.39-1.46,7.13,7.13,0,0,0,1.39,1.46"/><path class="cls-3" d="M34.57,18.63c.34-.11-.27-.18-.12-.49a2.75,2.75,0,0,0-.58-.6c-.21-.11-.34-.39-.58-.13.41.42.9.77,1.28,1.22"/><path class="cls-3" d="M43.53,11.2c-.17-.51-.67-.69-.94-1.1-.36.07-.31-.42-.58-.12.48.43.66,1.18,1.52,1.22"/><path class="cls-3" d="M25,10.6c.23-.14-.15-.64-.35-.74a.44.44,0,0,0-.46-.48c-1.3-.82.77,1.17.81,1.22"/><path class="cls-3" d="M27.94,21.68a10,10,0,0,0,.81.6c-.09-.35-.63-1.11-.81-.6"/><path class="cls-3" d="M21.77,18.26c.12-.45-.24-.39-.34-.61v-.12c-.17,0-.34,0-.36.12.31.14.4.49.7.61"/><path class="cls-3" d="M7.23,23.38c.11,0,.09-.15.12-.25.07-.32-.24-.23-.35-.36s.31-.25.47-.37c.51,0,1.24.89,1.62,1.47h.12c.26.09.25.46.58.48C9.31,23.43,8.37,23,7.93,22a1,1,0,0,1,1.51.36h.12c.15.15.18.05.35,0a1.46,1.46,0,0,1,1.86,1c-.24,0-.23.33-.47.37-.52.09-.87-1-1.51-1.23,0,.48.47.49.58.86s.51.36.58.73-.25.22-.46.24c-.71,0-.48.18-.82.61-.05.11-.1.22-.23.25-.37-.35-.82-.61-1.16-1,0,.64,1,.9.93,1.22-.38.68-.81-.25-1.4-.12-.35.36-.57-.46-.93-.49-.07.49.82.6.47,1H7.23c-.23.25-.22.74-.81.6,0-.4-.35-.53-.58-.73,0,.37.3.42.34.73,0,.12-.14.1-.23.13-.3.14-1-1-1.63-.49-.18-.26,0-.73.24-1.1.37-.1.36.2.58.25v.12h.11c.09,0,.12.12.24.12A.72.72,0,0,1,5.37,25c-.22.05-.42-.08-.23-.12.22-.35.38-.32.23-.85-.21-.09,0-.22,0-.37.24.07.38.35.58.13.09-.51-.56-.24-.46-.74.37-.05.41-.46.81-.49a1.67,1.67,0,0,0,.93.86m6-.61c-.2.58-.65.45-1,.12h-.12c-.44.26-.66-.76-1.16-.85.84-.75,1.81,0,2.33.73m0-.61c0,.11,0,.12-.12.12-.28-.06-.41-.29-.58-.48.09-.72,1.27-.24.7.36m-2.79-4.38a1.14,1.14,0,0,1,.69-.37c1,.06.71.86,1.4,1-.05,1,1.14,1.32,1.17,1.82v.49H13.4a27.62,27.62,0,0,1-2.91-2.92m3.72,3.77h.12c.38-.38,1.44,1.24,1.63,1.46v.12c-.51.53-1.38-.56-2.1-1,.18-.14.18-.46.35-.61M16,21.06c.24-.07.24-.18.11-.36,1.38-.55,1.86.89,2.68,1.34.08.53-.21.68-.47.85-.72-.49-1.2-1.26-2-1.7.31.65,1,.94,1.29,1.58,0,.1-.05.11-.12.12-1.23.5-2.32-1.11-2.8-1.7.25-.66.9-.43,1.29-.13m3.13,2.07h.12a.67.67,0,0,0,.12-.48c.53,0,.47.64.93.73.32-.09.22.25.35.37.09,0,.12-.13.23-.13-.1-.3-.43-.36-.58-.61v-.12c-.21-.31-.64-.38-.58-1,.28,0,.25-.23.58-.12s.29.5.7.48c-.26-.94-1.34-.92-1.28-1.34v-.12c-.59,0,.42-1,.69-.48h.12c.66-.39.92,1.27,1.75,1.21-.08.06.48,1.06.58.49-.24-.6-.78-.89-1.16-1.34.38-.39.74.27,1.16.24.49.15,1.05.84.93,1.22v.36c-.1,0-.12.13-.23.13-.28,0-.22-.43-.58-.37s.72.61.46.73v.12c.2.45.2,1.1.47,1.47-.31.36-1.29-.77-1.17-.85-.22-.05-.09-.48-.46-.37-.38-.06-.69-1.05-.93-.49a9.86,9.86,0,0,0,1,1.1,1.36,1.36,0,0,1,.82.85c.13.39.68.34.58,1,0,.41-1.11,0-1.05-.49A14.59,14.59,0,0,1,21.43,24c-.23,0-.51,0-.47-.37-.1,0-.11.13-.23.13,0,.15.2.19.23.36,0,.43.54.24.47.73H20.26c-.35,0-.46-.33-.58-.61h-.12c-.41-.1-.54-.48-.69-.85.1-.06.2-.11.22-.25m2.22-7.3c.1,0,.1.05.12.12.42.05.43.52.81.61.28-.15-.35-.35-.35-.61-.14-.59-1.26-.79-.82-1.58.09-.45.81-.23.94,0,.19-.19,0-.57-.12-.73.22-.77.84-.75,1.28.12.32.68,1,.94,1.4,1.58.07.45-.26.47-.24.85h-.12c-.71-.58-1.29-1.32-2-1.94-.09,0-.12.12-.23.12,0,.16.2.19.23.36.35.32.54.81,1,1a9.19,9.19,0,0,1,1.17,1.21c0,.14,0,.22.12.25a7.26,7.26,0,0,0-.47,1c-.1,0-.11.05-.12.12s-.09-.14-.11-.24-.1.15-.12.24,0,.22.12.25c-.14.34-.18.79-.47,1,0,.29-.32,0-.23-.24-.39.11-.11.27,0,.48-.05.11-.11.23-.23.25,0,.34-.64-.09-.59.24.16-.46-1.56-.4-1.39-.85v-.24a1.65,1.65,0,0,1-.47-1.71v-.12c0-.48.18,0,.35-.24-.08-.14-.38-.63-.47-.37-.2-.26.46-1.3.94-.85m1-4.26h-.11c-.5-.38.22-.89-.12-1.34C22,9.69,21.64,9,22.47,9a1.83,1.83,0,0,1,.35,1.7c-.18.27-.2.69-.47.86m1.17.85c-.21.25.21.59.35.85,0,.12-.14.09-.24.12s-.14.1-.23.12a1.6,1.6,0,0,1-.82-1,.74.74,0,0,1,.94-.12m-.35-3.53c0-.22.45,0,.35.24.37-.24-.15-.56-.35-.61,0-.1,0-.11.11-.12V7.91c.6-1.3,1.2,1,2,.86-.11,0-.09-.16-.12-.25-.87-1-1.76-1.25-2.09-2.43.21,0,.68-.33.82,0h.23c.2-.13.69,1,1,.73-.24-.67-1-.85-.46-1.71h.11a17,17,0,0,1,1.87,2.07c-.05.23-.25.31-.24.61h-.34c-.35-.17-.47-.56-.82-.73.14,1,1.13,1.1,1.4,2,.09,0,.11.05.12.12a.91.91,0,0,1-.7.61,3.49,3.49,0,0,0-.82-.85c.08.44.44.59.58,1,.15.22.41,1,.12,1.22-.12.23-.47-.31-.7-.37,0,.38.18.32.35.73v.25a2.31,2.31,0,0,1-.7.24c0-.13-.23-.08-.23-.24a3,3,0,0,1-1.51-2.31c.16-.28-.3-.46,0-.49m1.74-4.26c.37-.26.7.56.82,1-.46-.09-.63-.48-.82-.86Zm-.34,9.13a11.66,11.66,0,0,0-1.4-2.68,1.88,1.88,0,0,1,1.4,2.68m-6.75-1.83c-.11.56-.51-.46-.82-.49.34-.38.52.43.82.49m.23,1.22v.12c-.88,1.07-1.52-.9-2.21-1.22,0,.73.67.68.82,1.22h.11c.38.37,1.17,1,1.16,1.34v.12c.21.66-1.29,0-1.27.37a2.47,2.47,0,0,1-.36.49c-.4,0-.36-.44-.58-.61s-.31-.49-.35-.86a1.87,1.87,0,0,1-1.62-.24c0-.33-.07-.71.23-.73a.57.57,0,0,0,.11-.36h.35a1.6,1.6,0,0,1,.82,1c.09,0,.11.12.23.12s.12.28.35.24v.13a3,3,0,0,0,.58.61h.24a31.53,31.53,0,0,0-3.61-3.78h.11V11c.17-.23.76,0,.93-.25.66.09,1.57,1.95,1.63,1.1-.32,0-.14-.58-.58-.49a7.18,7.18,0,0,1-1.28-1.46h-.11c-.12-.06-.39-.54-.47-.24-.24-.07.17-.46.12-.73.09,0,.11.12.23.12s.29.26.58.24.7.86,1.16,1.1c.24.12.19.54.59.49.68.7,1.85,1.54,2.09,2.31m-1.28-2.07c-.4-.32-.77-.66-1.16-1,.42-.58,1.27.22,1.16,1"/><path class="cls-3" d="M17.35,18.75c-.29.34.34.46.47.73.29-.34-.35-.45-.47-.73"/><path class="cls-3" d="M14.67,31.54a2,2,0,0,1-.46-.37v-.12c-.21-.11-.34-.29-.58-.37.2.37.77,1.34,1,.86"/><path class="cls-3" d="M13.63,30.68a1.59,1.59,0,0,0-.81-.84,1.78,1.78,0,0,0,.81.84"/><path class="cls-3" d="M10,19.48c0-.42-.55-.95-.81-.73.34.17.47.56.81.73"/><path class="cls-3" d="M23.28,17.78v.12c.19,0,.21.11.36.12-.12-.49-.51-.69-.82-1-.33.27.58.28.46.73"/><path class="cls-3" d="M22,18.63h.11c.31.05.52.83.82.49-.34-.22-.75-1-1.17-.73.11.05.21.1.24.24"/><path class="cls-1" d="M37.59,7.67c-.32,0-.27-.36-.58-.36.11-.48.57,0,.58.36"/><path class="cls-1" d="M7.35,13.27c0-.34-.33-.3-.47-.48.12-.54.92.3.59.6H7.35Z"/><path class="cls-1" d="M44.34,16.44c-.1.54-.85-.28-.58-.49.23.13.18.54.58.49"/><path class="cls-1" d="M21.43,17.65c.1.22.46.16.34.61-.3-.12-.39-.47-.7-.61,0-.14.19-.13.36-.11Z"/><path class="cls-1" d="M22,18.63c0-.14-.13-.19-.24-.24.42-.28.83.51,1.17.73-.3.34-.51-.44-.82-.49Z"/><path class="cls-1" d="M17.82,19.48c-.13-.27-.76-.39-.47-.73.12.28.76.39.47.73"/><path class="cls-1" d="M28.75,22.28a10,10,0,0,1-.81-.6c.18-.51.72.25.81.6"/><path class="cls-1" d="M40.27,22.28a1.55,1.55,0,0,1-.7-.73c.26-.28.79.66.7.73"/><path class="cls-1" d="M6.07,24.35A.33.33,0,0,0,5.84,24c0-.1.09-.14.23-.12h.11a.91.91,0,0,0,.24.36c0,.1-.1.14-.24.12Z"/><path class="cls-1" d="M42.71,25.82c-.31,0-.09-.48-.47-.37.08-.52.76.16.47.37"/><path class="cls-1" d="M44.92,26.06c0-.45-.61-.33-.58-.85.53.18.72.71,1.16,1-.14.49-.24,0-.58,0Z"/><path class="cls-1" d="M44,27.28a7.08,7.08,0,0,0-1.28-1.34c.18-.54.57.23.82.36h.11c.06.41.77.57.46,1Z"/><path class="cls-1" d="M36.78,25.94a.46.46,0,0,1,.58.48c-.28-.07-.54-.16-.58-.48"/><path class="cls-1" d="M37.36,26.79c0-.17-.14-.21,0-.37.49.06.54.58.93.74-.21.32-.56-.22-.7-.37Z"/><path class="cls-1" d="M6.88,28.86c.33.48.16.54.59.61-.18.14-.29.35-.59.37-.19-.25-.27-.61-.58-.74.2-.76,1-.88,1.51-1.34.58.09.06.77.47.86-.25.37-.44-.36-.7-.37s-.43.28-.58.49c-.1,0-.11,0-.12.12"/><path class="cls-1" d="M17.35,27.89c.3-.11,1,.44,1,1-.38-.3-.7-.65-1-1"/><path class="cls-1" d="M8.74,29v.25a.45.45,0,0,1-.46-.49c.22,0,.25.13.46.12Z"/><path class="cls-1" d="M42.59,30.93c-.05-.28-.51-.33-.23-.61.24.24.38.58.7.73-.08.37-.25-.12-.47,0Z"/><path class="cls-1" d="M37.36,31.17c0-.23-.25-.3-.23-.61.27.09.31.41.58.49,0,.1-.1.14-.23.12Z"/><path class="cls-1" d="M14.21,31.17a2,2,0,0,0,.46.37c-.27.48-.84-.49-1-.86.24.08.37.26.58.37Z"/><path class="cls-1" d="M12.47,31.66c-.25-1.07,1.43.74,1.27,1.1-.41-.34-.73-.77-1.16-1.1Z"/><path class="cls-1" d="M38.88,32.15c.25.3.42.69.81.85-.18.52-1.18-.55-.93-.85Z"/><path class="cls-1" d="M13.86,32.63a1.19,1.19,0,0,1,.47.62c-.33,0-.69-.37-.47-.62"/><path class="cls-1" d="M14.79,35.31v-.24c.29,0,.36.19.58.24-.1.41-.26.11-.46,0Z"/><path class="cls-1" d="M29.68,7.06c-.41,0-.38-.41-.69-.49,0-.09,0-.23.11-.24s1.25.68.7,1c0-.1,0-.24-.12-.25"/><path class="cls-1" d="M24.21,9.38a.44.44,0,0,1,.47.48c.19.09.58.6.35.73,0,0-2.11-2-.82-1.21"/><path class="cls-1" d="M42.59,10.1c.27.41.77.59.94,1.1-.86,0-1-.79-1.52-1.22.27-.3.22.19.58.12"/><path class="cls-1" d="M42.36,16.19c.15.55,1.14.83.93,1.34-.4-.51-1-.78-1.28-1.45.12,0,.14.09.24.11Z"/><path class="cls-1" d="M33.87,17.54a2.75,2.75,0,0,1,.58.6c-.15.31.46.38.12.49-.38-.45-.87-.8-1.28-1.22.24-.26.37,0,.58.13"/><path class="cls-1" d="M23.28,17.78c.12-.45-.79-.46-.46-.73.31.28.7.48.82,1-.15,0-.17-.15-.36-.12Z"/><path class="cls-1" d="M9.21,18.75c.26-.22.78.31.81.73-.34-.17-.47-.56-.81-.73"/><path class="cls-1" d="M44.92,21.19c.49-.06,1.14.76,1.51,1.21-.37,0-1.07-.82-1.51-1.21"/><path class="cls-1" d="M26.42,21.8a4.25,4.25,0,0,1,1.4,1.46,7.45,7.45,0,0,1-1.4-1.46"/><path class="cls-1" d="M26.78,23.87c-.26,0-.38-.1-.36-.37s-.09-.14-.11-.24c.46.17,1.07.82,1.05,1.09-.33,0-.32-.39-.58-.48"/><path class="cls-1" d="M24.33,50.9c0-.18,0-.45.12-.48.56.08-.09.67.23,1-.15,0-.16.16-.35.12Z"/><path class="cls-1" d="M26,50.17a11.88,11.88,0,0,1,0,1.58c-.23.15-.65.4-.93.13v-.37c1.12-.21-.08-1.1.11-1.83a.65.65,0,0,1,.47.13l.35.36"/><path class="cls-1" d="M16.77,27.28c-.46-.05-.6-.43-.81-.73-.38-.66,0-.31.46-.13v.13c.23.49.8.62.93,1.21-.33,0-.32-.39-.58-.48"/><path class="cls-1" d="M44.46,27.28c.25.34.67.51.81,1a2.63,2.63,0,0,1-1.05-1.09h.24Z"/><path class="cls-1" d="M12.82,29.84a1.59,1.59,0,0,1,.81.84,1.78,1.78,0,0,1-.81-.84"/><path class="cls-1" d="M28.75,33.85c-.1-.25-.35-.36-.35-.73,0-.14.13-.19.23-.24-.06.47.3.5.35.85-.11,0-.13.1-.23.12"/><path class="cls-1" d="M28.87,33a4.06,4.06,0,0,1,.35-1.95,6.28,6.28,0,0,1,.81.73c-.44.57.1.94-.12,1.46-.2.11-.29.34-.69.25-.12-.16-.11-.45-.35-.49"/><path class="cls-1" d="M37.82,31.66c-.4-.87.54-.05.59.37-.38.1-.16-.4-.46-.37Z"/><path class="cls-1" d="M25.49,32.88c.35.48-.15.92-.35,1.21-.19-.44.13-1.4,0-2.19.62,0,.13.86.35,1"/><path class="cls-1" d="M27,32.63a.69.69,0,0,1-.59-.85c.33,0,.8-.1.82.25s.31.15.23.48a.55.55,0,0,1-.46.12"/><path class="cls-1" d="M23.87,34.22v-.61c.2,0,.24-.15.46-.12,0,.43,0,.84-.46.73"/><path class="cls-1" d="M26.42,34c.26.38.81,1,.7,1.34-.32,0-.23-.41-.7-.24V34.7c0-.21-.32-.6,0-.73"/><path class="cls-1" d="M36.66,36.17c0-.35-.55-.15-.46-.61-.05-.17-.66-.35-.35-.49a4.68,4.68,0,0,1,1.39,1.34c-.29,0-.36-.19-.58-.24"/><path class="cls-1" d="M34.92,34.09c.25,0,.37.11.34.37s.67.43.36.61H35.5V35c-.1-.37-.88-.45-.58-.86"/><path class="cls-1" d="M34,35.19c.57-.27.82.85,1.39,1-.54.24-.79-.87-1.39-1"/><path class="cls-1" d="M24.91,36.29c-.19-.25-.53-.34-.58-.73.36-.37.87.41.58.73"/><path class="cls-1" d="M26.89,36c0-.34,0-.66.35-.61a.68.68,0,0,1,.12.37c-.27.05,0,.67-.35.61,0-.14,0-.35-.12-.37"/><path class="cls-1" d="M14.21,36.17c.37-.12,1.32.77,1.28,1.09-.46-.32-.81-.78-1.28-1.09"/><path class="cls-1" d="M25.49,37.26a.43.43,0,1,1-.11-.85c.16.16.11.53.11.85"/><path class="cls-1" d="M27,37.5c0,.39-.25.39-.59.37.16-.26-.05-.36.12-.73s.59-.19.47.36"/><path class="cls-1" d="M27.59,39.94c-1.11-.13-.93-1.75-.12-2.07.64.17.34,1.68.12,2.07"/><path class="cls-1" d="M25.84,41.89a.64.64,0,0,1-.7.61c.08-.53.06-1.16.35-1.46a2.42,2.42,0,0,1,.35.85"/><path class="cls-1" d="M26.66,42.13a13.94,13.94,0,0,1,0,1.71,1.07,1.07,0,0,1-.7-.49c-.05-.46.23-.57.35-.85.33,0-.1-.75.23-.73,0,.14,0,.35.12.36"/><path class="cls-1" d="M24.68,44.33C24.48,44,24.53,43,25,43c.27.31,0,.8-.12,1.09-.17.05.05.16,0,.36s-.07-.13-.23-.11"/><path class="cls-1" d="M25.61,44.33v.24c-.53,0-.44-1.29-.12-1.46s.23.09.24.24a.85.85,0,0,1,.11.61c-.24-.1-.52.32-.23.37"/><path class="cls-1" d="M26,46.15c.19,0,.2.12.35.12-.06.38-.44.45-.82.49a5.06,5.06,0,0,1,.12-1.34c.33,0-.09-.66.23-.61.08.41-.15,1.13.12,1.34"/><path class="cls-1" d="M27,47.13c.08.37-.12.44-.12.73-.41-.11-.54-.49-.7-.86.1-.1.32-.07.35-.24.13,0,.18-.13.24-.24.32-.06-.1.66.23.61"/><path class="cls-1" d="M31.31,53.21c-.15-.36-.33-.7-.46-1.09v-.37c.55-.14.4.47.69.61,0,.1.12.12.12.25.2.32,0,1-.35.6"/><path class="cls-1" d="M25.49,53.21c-.06-.25-.28-.34-.23-.73.22,0,.22-.35.58-.24-.07.46.22,1.37-.35,1"/><path class="cls-1" d="M25.38,56.5c.63-.37.63.85.93,1.22-.11.41-.26.11-.47,0-.17-.39-.56-.54-.46-1.22"/><path class="cls-1" d="M27.94,34.22c-.18.19-.8.21-.7-.25h.12c.17-.06.29-.18.46-.24,0,.23.09.26.23.12a.58.58,0,0,1-.11.37"/><path class="cls-1" d="M26.19,38.85c-.4.38,0,1.67-.58,1.82,0-1-.18-1.29,0-2,.34,0-.1-.83.23-.85.15.29.43.45.35,1"/><path class="cls-1" d="M27.36,44.81a.72.72,0,0,1,.11.49c-.24,0-.11.45-.35.49a.52.52,0,0,0-.23-.49v-.12a2.78,2.78,0,0,0-.35-.61c.12,0,.14-.1.24-.13.27.05.21.43.58.37"/><path class="cls-1" d="M24.21,60c-.2-.6-.82-.76-1.39-1-.09.87.76,1.61,1.39,1m-6.05-1.21a2.23,2.23,0,0,1-1.27-.25c.58,1.52,3.29.55,3.13-1a1.7,1.7,0,0,0-.93.73,1.87,1.87,0,0,0-.93.49m3.61-1.34c-.08-1.23,1.05-1.17,1.05-2.32a1.46,1.46,0,0,0-1.16,0,3,3,0,0,1-1.05,2.44c.44,1.91,0,4.06,1.74,4.63.09-1.35-.88-1.6-.92-2.81v-.11c.09-.45.34-.08.69-.13-.29-.46-.25-.83-.46-.85-.1-.42.17-.47.11-.85m11.4-2.32c.18,0,.43.05.47-.12A1.37,1.37,0,0,0,32,54.68c0,.26.1.38.35.36a.46.46,0,0,0,.81.12m7.21-.6a3.23,3.23,0,0,0,1.4.48c.17-.33-.26-.89-.35-1.34-.6-.32-1.32-.09-1,.86m-28.73-1c0,.4-.33.47-.23,1a4.47,4.47,0,0,0,2.21-1.22c-.62-.37-1.21.36-2,.24m2.91,0h.58a1.09,1.09,0,0,0-.58-.85c-.16.38,0,.41,0,.85m6.28-2.44c.28.24.93.08,1.4.13.15-.61-.36-.52-.35-1-.73-.11-1.08.18-1.05.85m11.05-1.33h-.35c.21.71.73,1.1,1.75,1v-.24a1.1,1.1,0,0,0-1.4-.73m2.44-1c-.45.09-.55.56-1,.61a1.18,1.18,0,0,0,1,.85Zm-10.23-1A2.17,2.17,0,0,0,24,45.79h-.35c-.09.62-.12,1.79.47,2.07m4.42-2.2c0,.32,0,.53.35.49.31-.28.19-1,.46-1.34.76.72-.49,2.92.7,3,0-2.06-.14-3.4-1.05-4.63-.32.15-.21.75-.23,1.21s-.35,1.09-.23,1.22M23.4,41.53c.16.15,1.31.31,1.28-.13s-1.27-.51-1.28.13M29.91,39c-.24-.22-.41.69-.58,1a5.12,5.12,0,0,0-.46,2.68c.28-.65.62.4.81.12.2.82.21-1.09,0-1.58-.05-.23-.25-.31-.23-.61.17-.43.78-1,.46-1.58m-12-4.88c.18.5.84.84,1.16.25-.18-.21-.9-.51-1.16-.25m-1.39,0c-.09.2-.58,0-.47.37-.19.28-.63-.22-.93-.24.19.48-.51,0-.47.36v.12c-.65-.25.42.22,0,.37h-.11c-.12-.34-.5,0-.7,0a.52.52,0,0,0,.35.61v.12c.12.57-.39-.19-.47.24-.14.18-.57.06-.58.37s.32.15.24.48c-.15,0-.57-.35-.58-.11H12.7c-.91.67.68,1.24.35,1.7,0-.14-.13-.19-.23-.25a.83.83,0,0,0-.35.25h-.12c-.12.57.44,1.07.81.73.13,0,.18-.14.24-.24s.13-.1,0-.12c-.5-.57.21-.26.46,0a6.71,6.71,0,0,1,.81-.49c-.41-.25-.62-.72-1-1a.32.32,0,0,1,.35-.25,5.13,5.13,0,0,0,1.39,1.47h.35c0-.25.32-.17.23-.5s-.54-.24-.46-.72c0-.15.18-.14.35-.13s.14.1.23.13c0-.2,0-.43.23-.37v-.13c.46.14-.69-.88-.93-1.21.52-.28.62.78,1.17.85s.36.47.93.25c.15.23.8-.5.58-.37a1,1,0,0,1-.7-.49h-.12c-.2-.4-.61-.57-.81-1,.12,0,.14.1.23.12h.24c.15.57.73.7,1,1.1.12,0,.14-.1.23-.13a1.46,1.46,0,0,0-.46-1.46v-.12c.09-.34-.54-.65-1.16-.37m-5.36,0c.34-.56-1.49-1.67-1.51-1.09v.12H9.56c-.26.39.29,1.2.58,1,.48.13.78-.25,1,0m24.08-1.82c-.6.17-.49.35-.69.85-.13,0-.18.14-.24.24-.27.27.6.36.47.86-.23,0-.15-.34-.47-.25v-.24c-.39-.35-.77.09-.93.36,0,.53.58.46.59,1-.21,0-.46-.69-.47-.12H33.4a1,1,0,0,0,.82,1.46c.8-.19.32,1,.7,1.22h.81c.41.15.37-.08.59-.13.12-.49-.9-.52-.94-1.21.36.11.37.59.82.6h.12c.37.73,1.55,2.16,2.32,1-.24,0-.71-.46-.47-.61s.4.63.59.24c.25,0,0-.51.12-.72-.13-.39-.34-.68-.36-.86,0,.32-.2-.16-.46,0H38a5.26,5.26,0,0,1-.94-1.1c0,.31-.39,0-.46,0-.9-.27-1.15-1.33-.93-2.43a.55.55,0,0,1-.36-.12m-24,.12c-.2.16-.46.25-.46.61s.93.66.69,1.09a.6.6,0,0,1,.47.13h.35c.37,0,.51-.28.47-.73-.63-.16-1-1.24-1.52-1.1m7.1-2.31h-.12c-.29.15-.36-.07-.46.12.37.2-.86,1.06,0,.73v.24c0,.17-.17.24-.12.49h.23c.51,0,.66-.33,1.28,0,.93-.56.15-2.18-.81-1.58m21.29.12c.42.53.65-.61.35-.85h-.58c-.29.28-.19,1.07.11.85Zm3.37-.12c-.32-.39-.93-1-1.51-.73a.33.33,0,0,0,.23.36h.12c.41.81-.13.29-.47,0h-.58c-.36.61.16.84.35,1.22-.22.45-.53-.65-.82-.12v.12c-.29.32.07,1,.47,1,.15.45,1,1.16,1.39.61-.09-.34-.57-.28-.58-.73v-.12c-.19-.16-.45-.25-.46-.61.5.29.73.86,1.28,1.1h.11c.17-.19.3-.43.59-.49.11-.23-.35-.4,0-.49.54-.23-.15-.66-.12-1.09m-7.21-1.34c-.54-.09.27.82.58,1h.12c-.12.23.34.41,0,.49-.45-.1-.61-.51-.93-.74.05.45.18.71,0,1.1s.82.84.58,1.1c-.36-.12-.37-.59-.82-.61-.1.25-.18.78.12.49v.12c.26.18.26.62.82.49,0-.18,0-.45.11-.49.36.55,1.08.74,1.28,1.46-.53-.18-.69-.74-1.16-1h-.12A1.92,1.92,0,0,0,36.66,34h.12v.12c.68.06,1,.54,1.39.86h.12c.23.25,1,.62,1.28.36v-.12c-.57-.73-1.33-1.29-1.86-2.07.71.32,1,1.07,1.63,1.46h.12c.24.28.29.75.92.61.2-.2.1-.71.12-1.1a.58.58,0,0,1-.46-.6c.22,0,.14.33.46.24.06-.07.27-.58,0-.61v-.49c-.1-.66-.61-.9-1-1.21s-.52-.52-.82-.74c-.11-.73-.91-.74-1-1.45.52.07.84,1,1.17.85s.14-1,0-1.22-1-.24-1.17,0c-.18,0-.08.26,0,.37-.22,0-.25-.14-.47-.13a1.38,1.38,0,0,0-1.27-.36m7.21.24c.38-.3-.6-.65-.82-.36.09.71,1.06,1,.94.48h-.12ZM21.19,31.9c.36.46.75.34,1.63.37a.78.78,0,0,1,.46-.49c-.22-.68-.34-.29-.46-1.22-.3-.21-1-.46-.7-1.33-.55-.31-.61-1.24-1.63-1.59-.24,1.13.05,1.28.12,2.44-.3.09-.37,0-.59.36,0,.8.64,1.53,1.05,1.46Zm-6.28-4.14c-.44-.4-.3-.65-.93-.85a4.58,4.58,0,0,0,1.63,1.95h.11c.38-.48-.42-1.28-.69-1.1ZM12.82,28h.11V27.4c-.33,0-.85-.48-1-.24.27.31.45.73.93.85m22.8-1a1.07,1.07,0,0,0,.11.73h.59c0-.48-.43-.93-.7-.73m-9.43.37c0-.56-.38-.66-.7-.85,0,.53.36,1.08.7.85m5.24-1.71h-.12a2.44,2.44,0,0,0-.7,1.1v.12c0,.52,1.59,0,1.63-.61-.19-.21-.58-.85-.81-.61m-12.22.61v-.61c-.53-.07-.72.22-1.28.13-.19.52.73.93,1.05,1.34.1-.27.3-.43.23-.86m18.85-.73a1.28,1.28,0,0,1-1.05,0c-.22,0-.08.4-.35.37,0-.14-.19-.3-.23-.12-.13,0-.18.13-.23.24l-.35.36c.14,0,.07.14,0,.25.41-.07.28.43.7.36,1-.23,1,.54,1.27,1.1.26-.1.63-.07.7-.37s-.33-.13-.35-.36c.07,0,.14,0,.12-.12a14.18,14.18,0,0,0,1.51,1.46h.12c.19.41,1.32.2,1-.12V28.5a9.94,9.94,0,0,0-1.51-1.71h-.12c-.4-1.17,1,.69,1.4,1,.28-.16.36.49.46.13.28-.68-.69-.84-.23-1.83-.3,0-1.18-.46-1-.12-.45,0-.54-.42-1-.37-.39.26.34.35.22.73-.48,0-.66-1-1-.73m-16.63,1.1h.11c-.06-.54,0-.4-.11-.85a1.52,1.52,0,0,0-2,.12A1.19,1.19,0,0,0,20,27c.28-.37.55.28.82,0a.76.76,0,0,0,.59-.12Zm21.16-2.44c-.37,0-.49-.22-.93-.12h-.11a.58.58,0,0,0,.11.37c-.29.09-.53-.48-.69-.13-.26.06,0,.6-.12.86v.12c.14,0,.13.19.12.36a2,2,0,0,1,.93.61c.06.75,0,1.59.69,1.71.29,0,.37-.19.59-.25.17.15.18.46.35.61.16.32.27.69.69.73s.15-.58.59-.48c.12.48.6,1.09,1,.84,0-.11.1-.14.12-.23,0-.52-.69-.43-.7-1,.49,0,.46.58.93.61s.63.48,1.28.37v-.49c.16-.49-1.31-1-1-1.58,0,.07,0,.14.12.12.38,0,.25.47.58.48,0,.43.41.39.58.61.23-1.49-.48-1.62-1.4-2.43.21-.16.47-.26.47-.61a2.72,2.72,0,0,0-1.63-.61c-.13-.31-.5-.36-.81-.49s-.72-.3-.81.12c.17.06.29.19.46.25v.24c.11.13.43,0,.35.37H44v-.12c-.21-.47-1-1-1.4-.86M16,24.72a1.65,1.65,0,0,1-.81-.85c-.16.23-.48-.31-.47-.37,0,.17-.25.14-.34.25,0,.77.51,1.08.7,1.7-.37-.06-.48.16-.59.37h-.11a1.17,1.17,0,0,0-.35.73c.51.19,1.16.89,1.63.73h.11c.56.22.75.84,1.28,1.09v.13a2.09,2.09,0,0,0,.82,1c0,.3.51.08.58,0s.09-.14.12-.23,0-.43.23-.37c.58-.08.68.33,1.05.49A1.56,1.56,0,0,0,19,27.64a2.91,2.91,0,0,0-1.16-1.22,9,9,0,0,1-1.05-1.09v-.12c-.24-.3.48.12.58.24.5-.34,0-.93,0-1.46h-.7c-1.06.55.41.59-.11,1.1,0-.1,0-.25-.12-.25a.67.67,0,0,1-.47-.12m15.83.61c.27.58.85,1.43,1.74,1a.54.54,0,0,1,.12-.36c-.33-.39-.52-.92-1-1.1-.37.06-.31-.33-.58-.36,0,.43-.35.44-.35.85Zm2.67-.12c.13-.4-1-1.51-1.63-1.95-.31,0-.5.38-.58.61V24c.23.62.83.83,1.16,1.34a1.14,1.14,0,0,1,1.05-.12M12.58,23.75h-.11c.06-.64-.45.48-1.17,1s-1.44.29-1.39,1c0,.18.28.11.46.13.31.32,1.26.23,1.16.6.23-.31,1,.47,1.29.13h.11c.43-.33.23-1.6,1.4-1.46.09-1-.54-.52-.47-1.83-.75-.18-.48.71-1.28.49m23,.6a3.52,3.52,0,0,0-.82-1c-.51.22-1.21-.43-1.28.12.53.64,1.77,2.3,2.21,1.83-.07-.3.15-.89-.11-1m-.7-1.58V23c.31.51,1.88,2.19,1.74,1.71.26-.17.11-.92-.11-1,0-.32-.55-.18-.23-.49-.6.17-.46-.43-.7-.61-.25.07-.77-.15-.82.12ZM9.44,22.4A1,1,0,0,0,7.93,22c.44,1,1.38,1.39,1.86,2.31-.32,0-.32-.39-.58-.48H9.09C8.7,23.29,8,22.43,7.47,22.4c-.16.12-.44.12-.47.37s.42,0,.35.37c0,.09,0,.23-.12.24a1.67,1.67,0,0,1-.93-.86c-.4,0-.44.44-.81.49-.1.5.55.23.46.74-.2.22-.34-.06-.58-.13,0,.15-.21.28,0,.37.15.53,0,.5-.23.85-.19,0,0,.17.23.12a.72.72,0,0,0,.12.49c-.12,0-.15-.1-.24-.12H5.14v-.12c-.22-.05-.21-.35-.58-.25-.26.37-.42.84-.24,1.1.61-.47,1.33.63,1.63.49.09,0,.23,0,.23-.13,0-.31-.34-.36-.34-.73.23.2.54.33.58.73.59.14.58-.35.81-.6h.12c.35-.38-.54-.49-.47-1,.36,0,.57.85.93.49.59-.13,1,.8,1.4.12.07-.32-.92-.58-.93-1.22.34.37.79.63,1.16,1,.13,0,.18-.14.23-.25.34-.43.11-.56.82-.61.2,0,.58.13.46-.24s-.45-.41-.58-.73-.57-.38-.58-.86c.64.2,1,1.32,1.51,1.23.24,0,.23-.33.47-.37a1.46,1.46,0,0,0-1.86-1c-.17.05-.2.15-.35,0Zm2.79.49c.4.33.85.46,1-.12C12.76,22,11.79,21.29,11,22c.5.09.72,1.11,1.16.85Zm1-.73c.57-.6-.61-1.08-.7-.36.17.19.3.42.58.48.07,0,.14,0,.12-.12m22.92,0c0-.07-.1-.14-.12,0a1,1,0,0,0,1.16,1c0-.23-.61-1.14-.92-1Zm3.72,3.05v.12c.58.11.69-.9.58-1.1C39.78,24,39.39,23,38.76,22.4a7,7,0,0,0-2-1.34.58.58,0,0,0,.11.37c-.36.08-.47,0-.57.12.11,0,.13.1.23.13v.12c.23.63.86.87,1.27,1.34H38a.34.34,0,0,1-.36.24h-.11c-.36.35-.28,1.14-.24,1.58.37.14.31,0,.58.13a11,11,0,0,1,.47-1.22c-.29,0-.28-.28-.47-.37,0-.14.13-.19.24-.24.17.28.28.18.58.12a1.35,1.35,0,0,1,.93,1.1c0,.41.2.52.35.73m2.44-3.05c.36.36.55.89,1,1.1h.12c0-.75-.61-1.39-1.17-1.1m-1.86-.85c0-.12-.09-.14-.12-.25-.2.08-.68-.14-.69.13.25.5-1.39.09-1.17.73V22a14.77,14.77,0,0,0,1.4,1.34,11.74,11.74,0,0,1,1.39.49c0-.23-.12-.27-.11-.49a2.82,2.82,0,0,1-.7-.86c.67.2.8,1,1.4,1.23.41.18.07-.42.34-.37a2.91,2.91,0,0,0,1,.49c-.27-1.06-1.63-2-2.79-2.56m-7.21.61c-.1.36-.53.74-.12,1,.72-.2,1.42-.37,2-.49-.13,0-.18-.13-.23-.24,1.38-.42.82-.68,2-1.58-.09,0-.13-.11-.11-.24-1.06.11-1.66-.1-1.74.72a5,5,0,0,0-1.64.86ZM16,23c-.18-.22-1.24-1.84-1.62-1.46h-.12c-.17.15-.17.47-.35.61.71.41,1.59,1.5,2.09,1Zm2.33-.12c.26-.17.55-.32.47-.85-.82-.45-1.3-1.89-2.68-1.34.13.18.13.3-.12.36-.39-.3-1-.53-1.28.13.48.59,1.57,2.2,2.8,1.7.07,0,.13,0,.12-.12-.33-.64-1-.93-1.29-1.58.78.44,1.26,1.21,2,1.7m-.12,1.95a1.27,1.27,0,0,0,1.17,0,.59.59,0,0,1,.11-.36c-.4-.27-.43-.93-1.16-.86a1.43,1.43,0,0,0-.12,1.22m2.21-4.5c-.27-.48-1.28.44-.69.48v.12c-.06.42,1,.4,1.28,1.34-.41,0-.39-.41-.7-.48s-.3.17-.58.12c-.06.59.37.66.58,1V23c.15.25.48.31.58.61-.11,0-.14.1-.23.13-.13-.12,0-.46-.35-.37-.46-.09-.4-.72-.93-.73a.72.72,0,0,1-.12.49h-.12c0,.13-.12.18-.22.24.15.37.28.75.69.85h.12c.12.28.23.57.58.61h1.17c.07-.49-.5-.3-.47-.73,0-.17-.19-.21-.23-.36.12,0,.13-.1.23-.13,0,.32.24.32.47.37a14.59,14.59,0,0,0,1.27,1.34c-.06.48,1,.9,1.05.49.1-.64-.45-.59-.58-1a1.36,1.36,0,0,0-.82-.85,9.86,9.86,0,0,1-1-1.1c.24-.56.55.43.93.49.37-.11.24.32.46.37-.12.08.86,1.21,1.17.85-.27-.37-.27-1-.47-1.46V23c.25-.12-.8-.53-.47-.73s.31.33.59.37c.11,0,.13-.1.23-.13v-.36c.12-.38-.44-1.07-.93-1.22-.42,0-.78-.63-1.16-.24.38.45.92.74,1.16,1.34-.1.57-.67-.43-.58-.49-.83.06-1.09-1.6-1.75-1.21Zm13.38,11.2c.74-.14,1.32-.47,1.29-1.1a1.43,1.43,0,0,0-1.52.24H33.4a3.42,3.42,0,0,0-1,.49c-.15,0-.16.16-.35.12s-.73.45-.93.74c1.12.72,1.78-.26,2.67-.37-.06,0-.13,0-.11-.12Zm-.93,24.35c-1.92-.71-2.68-2.63-4.53-3.41,0,.59.48.63.46,1.22.46,0,.81,0,.93.37.25.56-.33,1.37.35,1.58,0-.23-.16-.73.23-.61s.43.7.82.85v-.11c.8-.25,1.25.85,1.85,1.21.24.93,1.51.77,1.4,2.07.49.06.19-.7.59-.73.68,1.06,2.4.24,2.44-.85-.89.56-2.75.5-3.26-.37-.53-.3-.7-1-1.28-1.22M21,53.21c-1.89.34-5,.5-5.82,2.32,1.8-.23,3.4-2,5.12-.85.06-1.27,1.54-.4,1.86-.37.08-.54.53-1.58-.11-1.83-.43,0-.31.58-.58.73s-.44-.31-.47,0m2.32.25c-.13-.6.32-1.8-.35-1.83-.12.65-.5,1.78.35,1.83M29.1,22.28c.36-.91-.83-1.23-.81-2.19-.46,0-.48.48-.47,1-.36.13.26.21.23.37s-.13,0-.11.12c-.09-.36-1.11-.6-1.28-.12-.09,0-.14.1-.12.25s-.18.13-.23.24h-.12c0-.1-.1-.14-.23-.12a1,1,0,0,0,.35,1.34c0,.12-.09.14-.12.24a1.62,1.62,0,0,0-.58.61c.29.74,1.12.94,1.4,1.7-.37.06-.31-.32-.59-.36-.6-.18-.72-.87-1.28-1.1a.83.83,0,0,1-.23.37c-.07.44.25.47.23.85,0,.6-.39-.11-.57-.12h-.12c-.22.3-.17.88-.58,1-.93.26-1-1.08-2-.36.21.7,1.28.52,1.39,1.34-.43.22-.88-.54-1.39,0-.07,1.28,1.42.94,1.51,2.07.27,0,.5-.27.58.11a4.24,4.24,0,0,0-.23,1.59c1.16-.23,1.4,1.71.46,1.95a1.69,1.69,0,0,1-.58-.73,1.23,1.23,0,0,1-1.51.61,1.23,1.23,0,0,0-1.28-.37c-1.07.11-1.42-.54-2.56-.36-.52.23-.57.93-1.28,1-.5-.08-.5-.69-1.28-.49-.15.33-.31.65-.46,1h3.26c.21-.18.13-.67.57-.61,0,.13.06.31.12.12a18.84,18.84,0,0,1,2,1,.79.79,0,0,1,.93-.6c0,.12.1.14.12.24A8.73,8.73,0,0,1,22,34.82c.46.2.62.74,1.27.74-.07-.58-.4-.88-.35-1.59.34-.87.43.57.82.73a1.67,1.67,0,0,1,0,1.95c.83-.13.93.49.93,1.22-.17.07-.6-.14-.58.13.19.77,1.13.76,1,1.82-.2.37-.36-.34-.46,0-.24.11-.35.36-.35.73.26.18.77.09.81.49v.85a2,2,0,0,1-1.39.24v1.1c.17.07.6-.14.58.12a2.73,2.73,0,0,0,0,1.95c.48.14.45-.26.81-.24.24.81-.34,1.41-.23,1.7.25-.36.42.36.35.73-.15,0-.16-.15-.35-.12,0,.49.21.67.12,1.22-.49.28-.92-.05-1.28-.24-.1.87.84.65.82,1.46-.37-.07-.05.6-.47.48s-.18-.86-.58-1c0,.65-.88.46-1.05,1,.63,0,.9.44.81,1.22.21.11.59,0,.7.24a3.73,3.73,0,0,1-.58,1.71c.35,0,.3.5.81.36,0-.4-.33-.54-.23-1.09.41,0,.94-.56,1.16-.37.06.56-.11,1.35.12,1.71.33,0,.48-.23.82-.25.48.23.48,1,1.28.86.36-.5-.71-.34-.47-1.1a1.76,1.76,0,0,1,.93.24c.19-.2-.1-.5,0-1-.65,0-.75.6-1.4.61-.26-.5.41-.92.7-1.22.22,0,.26-.13.47-.12,0-.39-.26-.54-.7-.49-.49.38-.57-.38-.12-.49.12,0,.14-.09.24-.12a15.71,15.71,0,0,1-.7-2.07v.73c-.4.1-.49-.13-.7-.24.12-.45-.39-.24-.47-.49-.15-1.18.67-1.54,1.28-1,.07.25-.14.8.12.85-.13-.58.38-.5.82-.48.06,1.28-.18,3,1.16,3.28a.77.77,0,0,1,.7.73c1.59-.54,1.54,1.61,2.56,2.08.27-.29.13-1,.58-1.1a6,6,0,0,0,.81.48c.36-.43-.11-.77-.35-1A5.43,5.43,0,0,0,32,52a2.94,2.94,0,0,1-.23-1.1h-.12a6.75,6.75,0,0,1-1.05-1c-1.17-.32-1.33-1.69-2-2.56a3.72,3.72,0,0,0,.24,1.46,2.73,2.73,0,0,1,.46,1.22v.37c.24,0,.23.32.47.36.05.35.88-.11.93.24a13,13,0,0,1-1.28.86c-.15-.62-.19-1.34-.82-1.46-.31,0-.2.51-.46.6-.31-.31-.2-.87-.23-1.7.14-.8-.38-.9-.47-1.46s0-1.12.35-.61a.37.37,0,0,0,.23.24,2.61,2.61,0,0,0,.24-.73c.27-.36-.28-1.18-.12-1.46-.07-.22.34-.51,0-.61-.13.11,0,.45-.35.37.13-.91-.81-.69-.93-1.34a3.38,3.38,0,0,1,.47-2.19,1.22,1.22,0,0,1,.11-1.22c.51,0,.61.33.7.73-.2.8-1.64,2.58,0,2.8-.21-1.51.49-2.09.23-3.53-.08-.49.2-1.35-.23-1.46a5,5,0,0,0-.7-1.71c.17-.16,0-.25,0-.61.27-.09.77-.57.47-.85s-.09-.72.35-.61c.33.55.05,1,.58,1.46-.11.33-.36.52-.47.86.56,0,.88.4,1.28,0,.09-1.22-1.13-2.14-.58-3,.36-.09.22.33.58.24,0-.81.9-.37,1.4-.36.28-.16.27-.62.7-.61,0,.22.07.41.23.48a2.31,2.31,0,0,1,.58-1,3.09,3.09,0,0,0,2.21-1.34,8.27,8.27,0,0,0-3,1.1s-.9.55-1.17,0a4,4,0,0,1-.23-1.22c.16-.6.26-1.27.81-1.46h.7c.11-.21,0-.61.24-.74s.23.25.46.25c0-.34.15-.57.58-.48a1.74,1.74,0,0,0,.23,1c.2-.41,0-1.26.59-1.22s.17,1,.93.86A1.17,1.17,0,0,0,35,29.1c-.19-.37-1-.1-1-.6s.4-.31.69-.37A2.68,2.68,0,0,0,34.8,27c-1.72-.72-2.65,1-4.66.73-.13-.24-.38-.68-.11-1a7.6,7.6,0,0,0,.82-1.58c.12-.64.56-1,.69-1.59-.54,0-.7.39-1.28.37-.37.33-.25,1.2-.46,1.7a12.53,12.53,0,0,0-.47,2.2c-.31.24-.13,1-.46,1.21-.16.16-.12.53-.12.86,1,.29,1-1.45,1.86-1.71a13,13,0,0,0,2.32-.49c.08,0,.46-.3.47,0-.24.31-.72.39-.93.74a5.24,5.24,0,0,0-2.79,2.06c-.54.05-.71.48-1.16.61-.82.55-1.48-.69-1.16-1.33,0-.73.85-1.22.69-1.71-.08-.28.21-.95-.23-.85-.63.51-.22,2.12-1.16,2.31-.37-.49.47-1.25.11-1.7-.49.2-.63,1.32-.35,1.95a1.21,1.21,0,0,1-1.28.6c-.33-1.16-1.38-1.55-1.39-3-.19-.46.76-.34.93,0v.12c-.06.43.52,1.24.46,2.07.8-.13.58-1.08.82-1.22-.88-.56-.86-1.84-.7-2.68.4.28.59.77,1,1,.27,0,.13-.35.35-.37s.57.6.81.25c0-.46-.42-.45-.46-.86.45,0,.46.5.81.61a1.78,1.78,0,0,0,.35-.85v-.12c-.07-.08-.47-.37-.12-.49,0,.1.1.14.24.12.49-.18,0-.83-.12-1.09s-.5-.52-.23-.61.22.33.58.24c0-.29.4-.23.35-.61s-.13-.27-.12-.49h.12c0-.22.09-.25.23-.12m16.75-2.67c0,.51.59.51.7,1,.58,0,1-.77.35-1,.3-.36-.68-.17-1,0m-.46,3.77C45,23,44.48,22.07,44.1,22h-.23c.17.28-.3.46,0,.48s.51.77.94.86c.28-.16.47.36.58,0m-1-2.8c-.55,0-.46-.74-.81-1-.42.05-1.13-.21-1.05.36-.35.14.43.11.23.48-.36.06-.31-.32-.58-.36-.4.16-1,.62-.82,1a5.6,5.6,0,0,0,2,.25c0-.53-.64-.3-.58-.86.71.41,1.1,1.13,1.75,1.59h.11a9,9,0,0,0,1.28,1.34c.35.14.4,0,.7-.12v-.37c-.44-.61,1.23.19,1.05-.49v-.24c-.27-.12-.33-.47-.58-.61.13-.25.12-.26-.12-.12-.13-.43-.5-.61-.81-.85H46c0-.53-.58-.45-.58-1-.17.06-.61-.15-.58.11-.16.13-.44.12-.47.37-.08.61.62.41.58,1-.32,0-.32-.39-.58-.48m-7.68-1.34c-.58-.63-1.2.11-1.4.37,0,.13.14.18.24.24-.25.26,1.3.25,1.39-.13.35-.14-.42-.1-.23-.48m7.91-.12c.21-.28-1.12-1.12-1.16-.12.27.29.94.91,1.16.24Zm-4.53,1v.25c.85.76,1.27-.77,2.09-.86-.28-.07.28-.26.35-.36.09-.28-.13-.82-.24-.49h-.11c-.34-.29-1.28.52-1.86.49-.17.37.09.52-.23,1m-1-1.95a8,8,0,0,0-1.51-1.46h-.24c-.58,1.2.17,1.16.58,1.95-.34.14-.43-.59-.58-.24h-.12c-.35,0-.34.36-.34.73.51.11.58.69,1,.85.1,0,.23,0,.24-.12.47-.33.24-.67-.11-1,.16-.05.19-.15.34,0v-.13c.27-.17.45-.42.7-.61m.7-.49c-.35-.6-1.8-1.75-2-1.33v.12c.37.42.64.95,1.17,1.21.6,0,.37.82,1,.74,0-.33.06-.72-.23-.74m-9.55,5.61c1-.05.59-.88,0-1.1a1.6,1.6,0,0,0,0,1.1m6.06-4.63A4.08,4.08,0,0,0,34,16.44h-.12c-.35-.09-.42.13-.7.12-.12.31.36.58,0,.73h-.11c-.08,0-.14,0-.13.12h-.11c0,.31-.43.2-.58.37a4.37,4.37,0,0,0,1.63,1.7v.13c0,.09,0,.23-.12.24-.76-.47-1.33-1.77-2.09-1.83h-.12c-1.33.36.63,1.41.47,1.95-.39-.12-.4-.63-.82-.73h-.11c-.73.85-.38-1.4,0-1.34-.23,0,.14-.41,0-.73-.32,0-.23.2-.47,0-.32.81-.71,2-2.32,1.83,0,.09,0,.24-.12.24.58.74.63,1.44,1.51,1.7.13-.58.33-1.23.93-1.09V20c.05.46,1.13.78.58,1.09-.24-.35-.43-.75-.93-.85-.17.19-.15.57-.35.73,0-.09,0-.24-.11-.24.15.92,1.16,2.5,2.56,1.7,0-.52-.34-.61-.58-.85h-.12c0-.34-.51-.33-.23-.61.2.11.34.3.58.37.08.24.31.32.58.37,0-.36.26-.38.23-.74-.46-.61.15-.29.24-.24.27,0,.43.19.81.12.65,0,.66-1.25.93-2.19.47.13.73-.05,1.4,0m0-2.92c-.49-.34-1.45.51-1.4.73v.12c-.07,0-.14,0-.12.12,1,.89,1.42.36,1.87-.85-.12,0-.14-.1-.23-.12Zm9.54,0c.33-.17,0-.6-.12-.73-.34,0-.59,0-.7.24a.56.56,0,0,0,.82.49M41.43,17.9c-.69-.67-1.32-2.52-2.55-1.82,0,.44.33.53.58.73h.11c.52.3.79,1.52,1.4,1.33.26,0,.43,0,.46-.24m2.1-3.17c-.21.07-.69-.14-.7.13-.06.58.71.31.58,1-.35-.28-.68-.59-1-.85a.67.67,0,0,0-.7.36c-.36.24.27.44.35.61s-.09.14-.11.24h-.12c-.32-1-.63-.55-1.17-1.21,0,.22-.18-.07-.23.12h-.11c-.2.11-.26.38-.35.61.65.88,1.46,2,2.44,2.19a2.36,2.36,0,0,0,.47.61c.35-.08.67-.19.7-.61.13,0,.17-.13.23-.25.43.16.51.69.93.86.24.24.62-.4.7-.73-.36-.28-.81-.45-.93-1,.51,0,.71.6.81.73,0-.08,0-.15.12-.13v.13c0,.16.77,0,.92-.13-.07-.24-.3-.32-.57-.36-.16-.24-.52-.27-.82-.37a.78.78,0,0,1,.12-.6,4,4,0,0,0-1.51-1.35m-23.27.13c.42-.14,0-1.06-.58-.85.05.26-.36.65-.12.72-.21.19-.69.46-.35.86-.8-.18.48.66-.34,1a3.87,3.87,0,0,0-1.28-.85h-.7c.06.42.31.65.34,1.1,0,.13.17.18,0,.24-.78-.51-.62-1.35-2.09-.86-.07,0-.14,0-.11.13.6,1,1.65,1.51,2.2,2.56a1.8,1.8,0,0,0-.81-.62c-.48-.38-.79-1-1.39-1.21.12.49-.19.54-.36.73s-1.37-.21-1,.36c.12.6.75.68,1,1.1v1c.08.29.72,0,.82.24,0-.47,1,0,.7-.48v-.12c.18-.17-.46-.56-.35-.73a1.72,1.72,0,0,1-1.17-1.22A7.08,7.08,0,0,0,16,19c.12.24.52.19.47.61a9.19,9.19,0,0,1,1.86,1.45c.45-.11.48.48.81.13v-.25c-.21-.65-1.2-1.06-1.16-1.58a6.3,6.3,0,0,0,.82.73c.44-.38-.16-1.68-.35-2.19.1-.55-.47-.4-.47-.85.69.16.65,1,1.05,1h.11c1.15.4.51-1.21-.11-1.34.1-.21.26-.47.46-.24h.36c.12-.39,0-.43.22-.85.27-.06,0-.65.24-.73m14.07-1.1C33,13,33.21,15.27,32.47,15.22v.12A3.37,3.37,0,0,0,32,17.29c.84-.21.65-1.13,1.51-1.46s1.9-.07,2.56-.73c.67-.14.46.65,1.16.49a.65.65,0,0,1,.12-.37,1.2,1.2,0,0,0-.35-.73c-.06.35-.18-.18-.35-.12v-.12c-.45-.54-.56.17-1,.24-.2-.45-1-.23-1.17-.73ZM38,15c.24,0,0,.43.11.61a.78.78,0,0,1,.34.24c1-.38,1.69-1.46.94-2.32-.27.19-.5,0-.58.13s-.57.94-.81,1.34m-6.41-1.22h-.11c-.52-.11.2.89.58,1s.59-.43.58-1c-.24-.12-1.05-.35-1.05,0M26,19.24c-.05-.13-.45-.43-.35,0-.1.39.1.46.23.61-.47.08-.51.6-.93.73.47-.44.34-1.51.35-2.44-.24-.1-.64.19-.35.25v.12a1.44,1.44,0,0,0-.7,1.21v.13a1.28,1.28,0,0,0-.46,1.21c.08.29.64.49.7.86.13.78-.91,1.45-.24,2.31.54-.13.65-.65,1.05-.61-.06-.17.14-.62-.12-.61v-.12a1.85,1.85,0,0,0,0-1.46v-.12c.07-.43-.41-.3-.35-.73.17,0,.2.2.35.24V20.7h.35c.4.08,1.35.27,1.75-.25-.44-.39-.7-1-1.28-1.21m4.89-3c-.09-.5-.82-1-1.28-1.46h-.12c-.06-.51-.88-.26-1.28-.12v.12c.19.54,1.12.94,1,1.35-.46-.06-.5-.55-.93-.62v-.12a2.24,2.24,0,0,0-.93-.85,1,1,0,0,0-.59.73c0,.53.58.45.59,1-.18-.06-.3-.18-.47-.24s-.25-.14-.35-.24c-.3.44.28.95,0,1.34.05.45-.26.2-.46.24h-.24a5.78,5.78,0,0,0-.46,1c.51.52,1.41,1.29,1.74,1.59.08,0,.14,0,.12-.13.48-.2.16-.78.35-1.09a4.33,4.33,0,0,1-.93-1c.11,0,.14-.09.23-.11s0,.14.12.11c.22.34.64,1.11.93,1s.26-.46.46-.61.39.37.47,0-.41-.46-.47-.85c.17,0,.2.2.35.24.38.09.49.47.82.61s.26-1.09.11-1.21v-.13c.25-.27.4.1.82,0,.2-.07.68.15.69-.12-.22,0-.08-.4-.34-.37m.34-1.82c-.29-.35-.74-.52-.81-1.1-.65-.1-.81.28-1.05.61V14c.2.76,1.43,1.5,2.1,2.18h.11c.19-.61.39-1.59-.35-1.7Zm-8-.61c-.44-.87-1.06-.89-1.28-.12.17.16.31.54.12.73-.13-.22-.86-.45-.94,0-.44.79.68,1,.82,1.58,0,.26.63.46.35.61-.38-.09-.39-.56-.81-.61,0-.07,0-.14-.12-.12-.48-.45-1.14.59-.94.85.09-.26.39.23.47.37-.17.28-.37-.24-.35.24v.12A1.63,1.63,0,0,0,21,19.12v.24c-.17.45,1.55.39,1.39.85-.05-.33.64.1.58-.24.13,0,.19-.13.24-.25-.11-.21-.39-.37,0-.48-.09.2.23.53.23.24.29-.18.33-.63.47-1-.1,0-.14-.11-.12-.25s0-.24.12-.24,0,.24.11.24,0-.14.12-.12a7.26,7.26,0,0,1,.47-1c-.1,0-.14-.11-.12-.25a9.88,9.88,0,0,0-1.17-1.21c-.5-.17-.69-.66-1-1,0-.17-.19-.2-.23-.36.11,0,.14-.1.23-.12.68.62,1.26,1.36,2,1.94h.12c0-.38.31-.4.24-.85-.36-.64-1.08-.9-1.4-1.58m.46-.37c.1,0,.23,0,.24-.12-.14-.26-.56-.6-.35-.85a.74.74,0,0,0-.94.12,1.6,1.6,0,0,0,.82,1c.09,0,.23,0,.23-.12m-5-.12c-.22,0-.26.14-.47.12a.66.66,0,0,1-.11.49c.45.74.72.38,1.16.37.2-.69.33-1,.47-1.46-.35,0-.27-.63-.93-.86a1.73,1.73,0,0,0-.12,1.34m17-1.34c.16,0,.19-.14.34,0,0-.52.38-.62.12-.85-.17.22-.48-.11-.58.36v.13c-.72.58-1.72.18-2.44.36h-.13c-.25.11-.22.85-.57.49,0-.14-.19-.13-.35-.12v.37a4.13,4.13,0,0,0,1.39.84c.43-.72,1.23-.53,1.75-1a5.79,5.79,0,0,0,.47-.61m-12.45-.85a11.66,11.66,0,0,1,1.4,2.68,1.88,1.88,0,0,0-1.4-2.68M38.4,13.76c.2-.25.54-.34.59-.73-.52-.51-1.25-1.46-1.75-1.59-.18.22-.53.26-.58.61s1,.67.7,1.1c-.44-.15-.73-1.1-1.16-.85v.12c-.55.05-.67.93-.47,1.09.08-.37.53.48.59.13,1-.17.89,1.16,1.74.73v-.12h.11c.33-.39-.38-.42.12-.49ZM41,12.9c-.85-.71-1.89-3.06-3.26-1.7v.12c-.18.32.65.61.81,1h.12A3.75,3.75,0,0,0,40,13.51a.3.3,0,0,0,.34.25c.22.34.88-.53.59-.73ZM33.4,10.84c-.39.05-.34-.37-.58-.49a2.64,2.64,0,0,0-.35,1.09c-.6.84.53-.47.93,0-.06-.21.34-.5,0-.6m4.77-.49v.12c.31.35.66-.43.35-.73-.22-.06-.59.33-.35.36ZM15.61,10.1c.39.32.76.66,1.16,1,.11-.76-.74-1.56-1.16-1m10.47,4.39c.64,0,.68-.58,1-.85a1.3,1.3,0,0,1-.35-1.1c.28-.16.22,0,.59-.12-.38-1.33.74-2.52.23-3.53-1.22.53-1.19,2.71-.82,3.29-.89-.13-1.25.15-1.86.85.38.9-.2,3.46.35,3.78h.12c.08.27.35-.27.58-.25V15.22c.13,0,.18.18.23,0-.21-.05.07-.52-.11-.61ZM22.47,9c-.83,0-.45.68-.35,1.22.34.45-.38,1,.12,1.34h.11c.27-.17.29-.59.47-.86A1.83,1.83,0,0,0,22.47,9m-4.65,2.92c-.3-.06-.48-.87-.82-.49.31,0,.71,1.05.82.49M13.63,9c-.12,0-.14-.1-.23-.12,0,.27-.36.66-.12.73.08-.3.35.18.46.24h.12a7.18,7.18,0,0,0,1.28,1.46c.44-.09.25.47.58.49-.06.85-1-1-1.63-1.1-.17.23-.76,0-.93.25v.12h-.11a30.68,30.68,0,0,1,3.6,3.78h-.23a3,3,0,0,1-.58-.61v-.13c-.23,0-.23-.16-.35-.24s-.14-.1-.23-.12a1.6,1.6,0,0,0-.82-1h-.35a.57.57,0,0,1-.11.36c-.3,0-.23.4-.24.73a1.9,1.9,0,0,0,1.63.24c0,.37.07.75.35.86s.17.62.58.61a2.09,2.09,0,0,0,.35-.49c0-.36,1.49.29,1.28-.37v-.12c0-.37-.78-1-1.16-1.34h-.12c-.14-.54-.84-.49-.81-1.22.69.32,1.33,2.29,2.21,1.22v-.12c-.24-.77-1.41-1.61-2.1-2.31-.39.05-.34-.37-.58-.49-.46-.24-.81-1.14-1.16-1.1s-.36-.19-.58-.24m15.82,2.92c-.07-.27-.18.15-.35-.12,0,.58-1.16.24-.93.86h-.12c-.62-.14-.47.39-.35.84,1,.29,2.05-.84,2.56-1.09.07-.48,1.17-.48,1.28-1.1V11.2c-.79-.45-1.56.65-2.09.49.09,0,.14.1.12.24ZM29,8.52c-.07-.49-.57-.54-.69-1-.32,0-.62.56-.47.61s.15.17.12.36c.08.38.57.78.35,1.1.49.05.62.48.93.73h.11c-.22.56-.44-.45-.93-.37-.25.59-.77.9-.81,1.71v.36h-.12c.67,1.09,1.82-1.1,2.33-.61-.3-.18-.15-.59-.58-.85.24-.24.23.05.46.12.07,0,.14,0,.12.13.16.22.82-1,.34-1.1C29.81,9.28,29.35,9,29,8.52m10.94-1.7c-.12-.28-.53-.25-.93-.25a.74.74,0,0,1-.11.37c.2.1.33.29.58.37a.31.31,0,0,0,.34.24,1,1,0,0,0,.12-.73M36.43,10.1v.13c.27,0,.13.35.35.36.23-.2.7-.15.81-.49-.26-1.34-1.49-1.68-2.21-2.55h-.12C35,7.21,34.7,8.4,35,8.64v.13c-.36.08.64.34.22.48a7.09,7.09,0,0,1-.93-.61H34a.81.81,0,0,0-.12.61,3.72,3.72,0,0,0,1.39,1.22v.12c0,.14-.12.19-.22.25,0-.13.09-.15.11-.25a.58.58,0,0,0-.35.12c-.46-.45-.78-1-1.4-1.33a1.88,1.88,0,0,0-.34.48c-.09.65,1,.85,1.27,1.71.71-.13.76-.07.82-.49V11c0-.38,1-.45.81-.61v-.12c.23-.29-.62-.49-.58-1,.36.23.5.71.94.85Zm1-4h-.12c-.2.11-.26.38-.35.61-.14.06.3.67-.23.36h-.12c-.32-.25-1.19-.43-1.16-.12.36.84,1.25,1.12,1.62,2V9a1.89,1.89,0,0,0,1.4.12c.08,0,.14,0,.12-.12.1-.44-.92-.74-1-1.34.46-.16.28.36.58.37s.52.83.82.48c.13,0,.18.18.23,0-.16,0-.13-.27-.23-.36.29,0,.36-.19.47-.37-.7-.46-1.27-1.68-2-1.7m-18.73-1c-.44,0-.33-.13-.7,0,.08,1.34,1.24,1.54,1.75,2.44-.16.3.45.38.11.49A20,20,0,0,0,18.4,6.57c-.36-.14-1.12-.17-1.17.37.13.8,1.83,1.66,2,2.44-.46-.09-.4-.72-.93-.74-.42-.36-.85.32-.93.74.36.36.08.42-.12.48h-.11c-.26.51,0,.81.35,1.1.27,0,1,.45.93,0,.14-.36-.76-.67-.93-1.1.67-.11,1,1.11,1.74,1.34.41.3.67.76,1.05,1.1.29.08.79.82,1.17.73V11.81A6.19,6.19,0,0,0,20,10.47v-.12c-.14-.26-.75-.67-.58-.86.84.54,1.41,1.88,2.22,1.71.5-.63-.2-.65-.23-1.34,0-.12.09-.14.11-.24-.45-.15-1-.77-.93-1.1h.12c0,.39.29.42.58.49.1-.34.27-.6.35-1a12.24,12.24,0,0,1-1.17-1.22c.16-.3.44.13.47-.12v-1c.18-.12-.39-.48-.82-.36-.75.57.46,1,.23,1.34-.73-.33-.8-1.36-1.62-1.59M32,6.09c-.66-.17-.69-1-1.4-1.1-.13.19-.38.26-.35.61s.42.37.47.73c-.61-.26-.87-.88-1.4-1.22h-.46c-.33-.23-.23.37-.35.61.34,0,.43.28.58.49-.7.5.17.92-.47,1.58.28,0,.22.42.59.37v.12a3.86,3.86,0,0,0,1.39,1.21c0,.08,0,.15.12.13.16.36.26.1.7.24,0-.24.31-.16.23-.48s-.46-.58-.7-.86c-.11-.48-.6-.59-.82-1H30c0-.87,1.2,1,1.4.85s0-.75.23-.85c-.05-.68-.85-.57-.93-1.22.36-.2.33.61.46.24.44.15.61.59.94.86.21,0,.25-.14.46-.12,0-.33,0-.7.12-.86-.46.11-.42-.3-.7-.36m-5.7,1.7h.11c0-.3.19-.38.24-.61a17,17,0,0,0-1.87-2.07h-.11c-.53.86.22,1,.46,1.71-.35.27-.84-.86-1-.73h-.23c-.14-.33-.61,0-.82,0,.33,1.18,1.22,1.38,2.09,2.43,0,.09,0,.25.12.25-.78.18-1.38-2.16-2-.86V8.4c-.07,0-.13,0-.11.12.2.05.72.37.35.61.1-.25-.38-.46-.35-.24-.3,0,.16.21,0,.49a3,3,0,0,0,1.51,2.31c0,.16.2.11.23.24a2.41,2.41,0,0,0,.7-.24v-.25c-.17-.41-.35-.35-.35-.73.23.06.58.6.7.37.29-.27,0-1-.12-1.22-.14-.38-.5-.53-.58-1a3.49,3.49,0,0,1,.82.85.88.88,0,0,0,.69-.61c0-.07,0-.14-.11-.12-.27-.85-1.26-1-1.4-1.95.35.17.47.56.82.73Zm-1.4-3.16v.11c.19.38.36.77.82.86-.12-.41-.45-1.23-.82-1m6.87.48c.28-.11.31-.85.11-1.09a.8.8,0,0,0-.81.48c.19.24.31.57.7.61M10.49,17.78A27.62,27.62,0,0,0,13.4,20.7h.34v-.49c0-.5-1.21-.84-1.16-1.82-.69-.12-.44-.92-1.4-1a1.14,1.14,0,0,0-.69.37m16.4,39.45c-.52-.46-.64-1.35-1.75-1.22-.43,2.65,1.56,2.76,2.22,4.27a14.48,14.48,0,0,1,.46,2.44v.61h.35c.24.13.25.12.12-.13.44.1.6-.74.46-.85a1.12,1.12,0,0,1-.12-1.46,3.05,3.05,0,0,1-.81-2.32c-.15,0-.16-.15-.35-.12-.65.18-.28-.66-.58-1.22M42.83,14.12c.57,0,1,.19,1.63.74.78-.83,1.7,0,2,.36h.12c-.21.86.9,1.32.58,2.68-.37-.11-.36.19-.58.24A.55.55,0,0,1,46,17.9c-.36.36-.84.58-.82,1.34,1.13-.18,2-.57,2.68.37a1.13,1.13,0,0,1-.35.84,2.55,2.55,0,0,1,.58,2.32c-.5.05-.35.21-.46.49-.36-.09-.43.12-.7.12v.49h-.12c-.55.54-.89-.36-1,.48.4.79,1.34.29,1.74,1.1-.34.14-.27.61-.35.73,1.36.37,1.58,3.45,0,3.78-.35,0-.45-.26-.7-.37-.44.82-1.26.65-1.86,0a8.26,8.26,0,0,1-.81.25c.62,1.81-.8,2.25-1.17,3.4-.63.14-.49,0-1.28,0-.39.28-.32,1-.57,1.46.6.54-.63,1.23-1.4,1.34.11,1.42-.11,2.64-1.63,2.93h-.12c-.43-.53-1.1-.12-1.39-.86-.58.08-1.65.45-1.52-.24-.84,0-.55-1.15-.93-1.22-.15-.23-.24.29-.58,0s.23-.84-.24-1.09v-.13c.29,0-.12-.32-.11-.48-.51.11-1.52-.3-1.51.36h-.12c-1.32,1.07-.78,4.41-.46,5.24v.12c-.72,1.08.2,1.93-.82,3.17A4.67,4.67,0,0,1,30.73,47a1.27,1.27,0,0,0-.23-.12c-.34,2.91,2.1,3.47,3.49,1.1a1.8,1.8,0,0,1-.35,3.29c0,.52.55.4.58.85-.28,0-.34-.21-.7-.12a1,1,0,0,0-.7.12C33,53,33.88,53.05,34,54c.47.09.22-.59.69-.49s.81.45,1.28.61c.46-1.07,2.43-.55,3-1.46.3,0,.16.47.47.48,0-1.28,1.67-.84,2.2-1.58-.17-.06-.29-.18-.46-.24-.5-.14-1.48-.4-1.63.12-1.22.75-2.31,1.64-4.19,1.7-.46-.47-.73-.47-1.16-.85,1.56.14,2.85.14,3.73-.73h.11c0,.1-.12.12-.11.24,1.22-.73,2.86-1.67,4.53-.85,0,0-.17.21-.12.24a5.22,5.22,0,0,1,1.17.37c0,.2-.11.21-.12.37a1.53,1.53,0,0,1,1.16-.25c-.81.91-1.15.95-2.79.85-.79,1.06,1,2,1.51,1.47.18.55-.86,1.58-1.16,1.58-1.49.74-3.23-2.68-4.54-.61-.41-.15-1.17.32-.81-.12-.18.26-.53.34-.7.61H36c0-.1.12-.13.12-.25-.67.31-1.63,0-2.44.49a2.17,2.17,0,0,0,4,.61c.32.84.64,2.17-.23,2.31,0,.14,0,.22.12.25-.2.16-1.36.7-1,.24-1.88,1-1.25,3.45-3.5,4.38-1-.1-1.48-.12-1.74-1.09.9.19,1.54-.59,2-1.46-1-.5-2.38-.26-2.79-2,.54,0,1.54.31,1.86-.37.77-1.6-3.24-2-3.37-3.16-.36.15-.6-.42-.7-.13h-.12c-1.23-.58-.82,1.46-.93,1.83.25.28.88.64.7,1,1.4.14,2.07,3.68,1.28,5.24a4.24,4.24,0,0,1-2.91,2.06c.69-1.07,1.49-4.14.7-5.23.14.2-1.43-1.14-1.28-1-.23-.25-.24-.18-.47-.36v-.13c.17-.82-1.27-1.95-.23-2.55-.2-.07,0-.58-.23-.61v-.25c0-.27-.29.16-.58,0a.53.53,0,0,0,.11-.36c.84-.44,1.8,1.49,2.45.49-.54-.58-1.51-.7-2.09-1.22-.36,0-.53.26-.82.37a.33.33,0,0,0,.23.36c.26.18-.15.3.12.36-.25.19-1,.45-.82.73v.13c-.6.64-.4,2.74.12,2.68h.12a1.36,1.36,0,0,0,1.51.49c.14,1.07-.54,1.29-1.05,1.7-.48-.25-.72-.08-1.05-.37-.52.29.05.85-.23,1.1.27-.08.14.34.35.61v.73c-.28,1.16-1.38,2.33-2.32,1.46-.09-.16-.32.06-.59-.12,1.35-.85,1-3,.23-3.9.05-.16.21-.19.24-.36a.61.61,0,0,1-.35.12c-.13-1.82-2.67.77-3.72-.86v-.11c.21-.44-.1-.86.11-1.35.85.09.8.63,1.4.13h.11v.24c1.18-.74,2.21-1.17,2.33-1.95v-.12c.4-.34.33-.49.58-.85-1.61-.69-3.37.51-4.88.48a.58.58,0,0,1,.11.37c-.25-.25-.38.31-.81.24a2.35,2.35,0,0,0,.23,2.19c-2.56.67-1.61-2.33-.93-3.89-1.73-.83-2.93.81-4.77.12,0-.33.88-.79.93-.85s0-.58.12-.73a6,6,0,0,1,2.09-1c.46-.13,1,0,1.4-.24h.11c.17.2,1.16.16,1.17.12H16c.19.45.84.43,1.17.73,1.37-.71,2.56.2,3.72-.61H21c.19.35.63-.43.93,0-.19-.24,0-.15,0-.48-.08-.13-.27-.13-.23-.37a3.21,3.21,0,0,1-1.52,0c-.3-.32,0-.58-.58-.73,0-.15.21-.1.35-.12.17.36.52-.09.46-.37a.7.7,0,0,0-.57-.12v.37c-.38-.06-.24-.66-.47-.86,1,.59,3.36.43,3.37-1.33a2,2,0,0,0,.12-.86,24.3,24.3,0,0,0,.11-2.43c.09-1.17.16-2.76-.69-3.17.17-.22.5-.29.69-.49-.23-1,.27-1.89-.46-2.55A2.43,2.43,0,0,0,21.89,36v-.12c-.71-.28-1.24-1.12-1.63-.85h-.12c-.54-.79-1.25-.12-1.27.36v.13c0,1-1,2-1.87,1.58A3.49,3.49,0,0,0,16.3,39c-.41.54-1.41.39-2,.12a1.78,1.78,0,0,1-2.33.37c0-1.77-.27-3.81,1.28-3.78-.07-.7.66-1.17.58-1.46v-.13c0-.49-1.17.2-1.16.86-1.2-.23-3.34,0-3.49-1.34a2.6,2.6,0,0,0-1.28.48H7.81c-.12-.6-1.41,1.22-2.21.37-.16-.58-.17-1.82.58-1.58,0-.08-.28-.47,0-.49-1.53-.67-.37-2.5.7-2.55,0,.19-.11.2-.12.36H6.65c0-.14-.12-.07-.12,0,.15.76,1.3,1.05,1.17,1.7-.51-.41-.83-1-1.4-1.34-.38.1-.35.61-.58.86,0,.18.1,0,.23,0,.18.5.79.55.93,1.09-.09.11-.32.08-.35.25-.31.28-1,1.2-.11,1.33.37.29.58-.46,1-.48,0-.52-.41-.63-.71-.85.29-.45.62.71.82.36H8c.1.29.31-.32.24-.61C8,32.41,8,32.05,7.7,32c.22-.52.91.14,1.16.36a.77.77,0,0,0,0,.85c.34,0,.65,0,.58-.48v-.13c.31.09.22-.25.35-.36.38-.15.09.39.47.24.69-.08.62-1,.35-1.46.14.44.79.68.57.85.81.17,1.53,2,2.91,1.59v-.13a.32.32,0,0,0,.35-.24h.23c.57.05.69-1-.11-1.22.11-.41.26-.1.47,0,.4-.18.32-.5.69-.48a6.14,6.14,0,0,0-1.51-1.58v-.13a.33.33,0,0,0-.35-.25c.78-.17,1.61,1.63,2.56,2.08,0,.11,0,.11.12.12a1,1,0,0,0,.46.49.59.59,0,0,0,.35-.37c-.21-1.29-1.23-2-2.32-2.92-.49-.42-.82-1-1.4-1.34-.22.17-.21.59-.35.85h-.12c.3.22.5.53.82.73-.05.35-.69-.31-.82.13a.58.58,0,0,1-.34.12v.49c-.25.05-.31-.09-.47-.13-.38.46.12,1.38,0,1.58-.42-.25-.44-.91-1.28-.73V30c.08-.25.65,0,.7-.25h.12c.7-.57-.44-.9-.94-.48h-.11c-.41-.3-.54.73-.82,1v.12c-.09,0-.11-.12-.23-.12.4.43-.4.29-.23.85-.68.1-.9.2-1.17.24.23-.49-.49-1.09-1-1.45.22-.58.49.29.81.36.5.09.51.69,1.28.48,0-.67-.54-.73-.7-1.22,0-.2.09-.22.23-.23h.12c0,.8.71.21.93.36-.11-.16-.11-.45-.35-.49V29c.46-.13,0-.37,0-.73a.51.51,0,0,0,.35.12c.06.17,1.05.3.93-.12.34-.13.54,0,.82.61.1,0,.11-.05.12-.12H12c.26-.09.15-.57.47-.61-.82-.45-1.25-1.95-2.33-1.71-.16,0-.33,0-.35.13H9.67c.34.62,1,.86,1.28,1.58-.37.11-.24-.32-.46-.37-.61,0-.7-1.21-1.28-.85-.26,0-.05.52-.12.73.15.21.47.25.58.49-.16.43-.48-.61-.7-.12-.35-.09-.33.21-.69.12,0-.11-.1-.22-.24-.24a5.13,5.13,0,0,0,.7-.49c-.16-.27-.36-.66,0-.85-.23-.29-.34-.69-.93-.61-.66.67-2.4,2-2.79.24a5.21,5.21,0,0,1-1,.12c-.3-.16-.12-.64-.23-.73v-.12c.45-.84,1.28-.54,1-2.07.42.16.24-.95,1-1.1-.5.06.43-.68.46-.48a.84.84,0,0,0-.12-.61c-.71.27-.86-.13-1.39-.25C5,19.5,5.61,19.3,6.88,19c.19.11.27.32.12.48v.13c0,.09-.12.11-.12.24-.15,0-.18-.22-.35-.24H6.42c0-.1-.12-.13-.12-.25-.26.52-1.35.6-.81.73v.49c.21.47,1.07.26,1.51.48,0,.25-.44.76-.12,1H7c0,.1,0,.11.12.12A1.17,1.17,0,0,0,8,21.43v-.12h.12c-.17-.47-.67-.59-.81-1.1.87.67,1.56,1.44,2.67,1.34-.15-.49-.73-.53-.81-1.1.55.32.75,1,1.4,1.23.37-.06.46-.41.69-.62v-.12c-.34-.54-.9-.84-1.28-1.33.65-.11,1.39,1.38,1.87,1.45.51-.09.69.17,1.16.13,0-.1.11-.13.11-.25A11.18,11.18,0,0,0,11,18.75c0-.28-.55-.07-.46-.49a1.53,1.53,0,0,0-1.16-.61c-.22.06-.7-.16-.59.25a1.06,1.06,0,0,0,.47.49c-.4.37-.66-.44-.93-.61a.32.32,0,0,0-.35.24c-.23.08-.31.33-.35.61.1.1.07.33.23.37-.09.32-.54-.28-.58.24-.72-2.36,2-2,3-1.83.18-.17.12-.6.35-.73,1.06,0,1.41.79,2,1.34.53-.25,1-1,1.51-.61.37-.18.2-.93.24-1.46.46-.17.93-.32,1-.85-.81-1-3,.31-2.79.73h-.11c-.28,0-.44.19-.82.12a1.79,1.79,0,0,0-.7-.85c-.43,0-.35.52-.93.36,0-.45.37-.43.47-.73v-.12h.23c0-.44-.5-.45-.7-.73.67-.56,1.48,2.48,2.56,1.1,0-.2.11-.21.12-.37-.81-1.26-2.14-2-2.91-3.29,1,.62,1.54,1.72,2.56,2.32a2.81,2.81,0,0,1,.58.61c.75-.1-.26-1.68.58-1.95h-.46c-.15,0-.16.37,0,.37-.52.25-.86-.73-1.28-1,0-.15.21-.1.34-.12h.12c.19-.25.25-.64.47-.86-.42-.68-.82-1.36-1.52-1.22-.22.18-.51.28-.46.74s.68.42.7,1c-.51-.49-1.71-1.23-2.09-.73v.12c0,.41.49.3.46.73-.5-.13-.48-.79-1-.85,0-.1,0-.11-.11-.12v-.12c-1.39.57-.12,2.06.7,2.44C8.81,13,8.53,12,8,11.81H7.93v-.12c-.58.16-1.07.52-1,1a.48.48,0,0,0-.35-.13c-.45.6.49.78.82,1,0,.39-.46,1-.35,1.1.24.59,1-.21,1.28-.36-.19-.22-.59-.84-.7-.74.11-.59.93.78,1.39,1-.1.41-.25.11-.46,0-.2.29.36.84.7,1,.38-.18-.24-.29-.12-.6.36-.1.22.33.58.24v.12a2.84,2.84,0,0,0,.47.37c-.4.64-1,.3-1.28.49-.52-.26-.31-.55-.58-1-.8.08-1.16.23-1.63.24a3.5,3.5,0,0,1,0-1.58c-.38-.34-1.08-.7-1.05-1.09.5-.63,1.48-.74,2-1.35a1.11,1.11,0,0,1,.58-1.46h.12c-.06.1-.1.24-.24.24a11.46,11.46,0,0,0,2.33-.36c-.34-1.46,1.82-.58,2.1.12.62-.06.38-.38.46-1.09.4-.11.76-.34.93-.37H14c.86.84,1,1.34,2.21,1,.41-.26.6-.75.93-1.1-.81-.76-1.23-2,.35-2.19.15-.75-.14-1.19.23-1.71a2.11,2.11,0,0,1,2,.86c.31-.09.44-.36.69-.5a2,2,0,0,1,1.17,2c.16,0,.54.33.7.12.19.25.24.63.46.85.68-.61-.35-1.31.23-1.95C24.59,6.31,24,4.4,25,4c.09.22.34.08.11.36.33-.35.32.18.59.25h.11c-.17.8.47,1.08,1.05,1.09.71.7-.32,1.62.12,2.07h.11v.12a6,6,0,0,1,1.4-1c-.28-.34-.16-1.16-.47-1.46.43-1,1-.86,2.21-.61A2.24,2.24,0,0,1,32,3.53c.62.85.1,1.29.23,2.44,1.56.22.87,1.72,0,2.19v.12c-.28-.14-.05,1.49-.11,2,.28-.16.36.06.46-.13.09-.75.7-2.25,1.86-2.31.52-2,1.95-.88,2.67-2.19.39-.2.45,0,.94,0,.34.58,1.26.55,2,.73-.13,0-.28.2-.12.24.08-.44.67,0,.69.37A1.59,1.59,0,0,1,39.69,8c0-.08,0-.15.11-.13-.16.55-.34,1.09.35,1.47-.47,0-1.09.56-.93.85v.12c0,.65,1,1.29,1.52,1.83v.12c.36.35.92,1.14,1.5.85h.12v.12c1.33-.47-.53-1.42-.93-1.95h-.12c0-.2-.17-.31,0-.36.38-.11.16.4.47.36h.12c.16.4.53.58.81.86.42.07.45-.27.82-.25.16-.26.18-.74.46-.24.24-.16.59-.19.58-.61a9.53,9.53,0,0,0-2.44-1.46c-.07.75-.66-.53-1.05-.13H41c-.5-.31-.39.75-.36.86-.14-.29-.58-.28-.57-.73.63-.53,1.48-1.12,2.2-.85.56.19.5.65.82,1s1.18.23,1.63.61.35.91.58.73c0,.5-.39.36-.46.49.25.64-1,.69-1.4,1.1,0,2-2.7-.13-2.33,1.94v.12c-.14.07.13.26.12.37.48-.49.91-.52,1.51-1Z"/><path class="cls-4" d="M33.29,50.54a1.1,1.1,0,0,0-1.4-.73h-.35c.21.71.73,1.1,1.75,1Z"/><path class="cls-4" d="M19.09,58.33a1.87,1.87,0,0,0-.93.49,2.23,2.23,0,0,1-1.27-.25c.59,1.52,3.29.55,3.14-1a1.69,1.69,0,0,0-.94.73"/><path class="cls-4" d="M21.89,50.29c-.73-.11-1.08.18-1.05.85.28.24.93.08,1.4.13.15-.61-.36-.52-.35-1"/><path class="cls-4" d="M24.1,47.86A2.17,2.17,0,0,0,24,45.79h-.35c-.09.62-.12,1.79.47,2.07"/><path class="cls-4" d="M22,52.48c-.43,0-.31.58-.58.73s-.44-.31-.47,0c-1.89.34-5,.5-5.82,2.32,1.8-.23,3.4-2,5.12-.85.06-1.27,1.54-.4,1.86-.37.08-.54.53-1.58-.11-1.83"/><path class="cls-4" d="M34.33,50.29V48.83c-.45.09-.55.56-1,.61a1.18,1.18,0,0,0,1,.85"/><path class="cls-4" d="M11.65,53.58c0,.4-.33.47-.23,1a4.47,4.47,0,0,0,2.21-1.22c-.62-.37-1.21.36-2,.24"/><path class="cls-4" d="M25.14,56c-.43,2.64,1.57,2.75,2.22,4.26a14.48,14.48,0,0,1,.46,2.44v.61h.35c.24.13.25.12.12-.13.44.1.6-.74.46-.85a1.12,1.12,0,0,1-.12-1.46,3.05,3.05,0,0,1-.81-2.32c-.15,0-.16-.15-.35-.12-.65.18-.28-.66-.58-1.22-.52-.46-.64-1.35-1.75-1.21"/><path class="cls-4" d="M14.56,52.73c-.16.39,0,.41,0,.85h.58a1.1,1.1,0,0,0-.58-.85"/><path class="cls-4" d="M32,54.68c0,.26.1.38.35.36a.46.46,0,0,0,.81.13c.18,0,.43,0,.47-.13A1.37,1.37,0,0,0,32,54.68"/><path class="cls-4" d="M22.94,51.63c-.13.65-.51,1.79.34,1.83-.13-.59.32-1.8-.34-1.83"/><path class="cls-4" d="M32.82,55.89c-1.92-.71-2.68-2.63-4.53-3.41,0,.59.48.63.46,1.23.46,0,.81,0,.93.36.25.56-.33,1.37.35,1.58,0-.23-.16-.73.24-.61s.42.7.81.85v-.11c.8-.25,1.25.86,1.85,1.21.24.93,1.52.77,1.41,2.07.48.06.18-.7.58-.73.68,1.06,2.4.24,2.44-.85-.89.56-2.75.5-3.26-.37-.53-.3-.7-1-1.28-1.22"/><path class="cls-4" d="M41.78,55c.17-.33-.26-.89-.35-1.33-.6-.33-1.32-.1-1,.85a3.27,3.27,0,0,0,1.4.48"/><path class="cls-4" d="M24.21,60c-.2-.6-.82-.76-1.39-1-.09.87.76,1.61,1.39,1"/><path class="cls-4" d="M21.66,55.16a3,3,0,0,1-1.05,2.44c.44,1.91,0,4.06,1.74,4.63.09-1.35-.88-1.6-.92-2.81V59.3c.1-.44.34-.07.69-.12-.28-.46-.25-.83-.46-.85-.1-.42.17-.47.11-.85-.08-1.23,1.06-1.17,1.05-2.32a1.46,1.46,0,0,0-1.16,0"/><path class="cls-4" d="M21.88,52.35h0"/><path class="cls-4" d="M33.52,52a1,1,0,0,0-.7.12C33,53,33.88,53.05,34,54c.47.09.22-.59.69-.49s.81.45,1.28.61c.46-1.07,2.43-.54,3-1.46.3,0,.16.47.47.48,0-1.28,1.67-.84,2.21-1.58-.18-.06-.3-.18-.47-.24-.5-.13-1.48-.4-1.63.12-1.22.75-2.31,1.64-4.19,1.7-.46-.47-.73-.47-1.16-.85h.13l-.17-.14c-.24,0-.32-.2-.66-.11"/><path class="cls-4" d="M24.91,36.29c-.19-.25-.53-.34-.58-.73.36-.37.87.41.58.73m.47.12c.16.16.11.53.11.85a.43.43,0,1,1-.11-.85m-.24-4.51c.62,0,.13.86.35,1,.35.48-.15.92-.35,1.21-.19-.44.13-1.4,0-2.19m.7,6c.15.29.43.45.35,1-.4.38,0,1.67-.58,1.82,0-1-.18-1.29,0-2,.34,0-.1-.83.23-.85m.47,4.63c.33,0-.1-.75.23-.73,0,.14,0,.35.12.36a13.94,13.94,0,0,1,0,1.71,1.07,1.07,0,0,1-.7-.49c-.05-.46.23-.57.35-.85M26.42,34c.26.38.81,1,.7,1.34-.32,0-.23-.41-.7-.24V34.7c0-.21-.32-.6,0-.73M27.24,32c0,.24.31.15.23.48a.55.55,0,0,1-.46.12.69.69,0,0,1-.59-.85c.33,0,.8-.1.82.25m.58,1.7c0,.23.09.26.23.12a.58.58,0,0,1-.11.37c-.18.19-.8.21-.7-.25h.12c.17-.06.29-.18.46-.24m-.23,6.21c-1.11-.13-.93-1.75-.12-2.07.64.17.34,1.68.12,2.07m-.35-4.51a.68.68,0,0,1,.12.37c-.27.05,0,.67-.35.61,0-.14,0-.34-.12-.37,0-.34,0-.66.35-.61m-.7,1.71c.17-.41.59-.19.47.36,0,.39-.25.39-.59.37.16-.26-.05-.36.12-.73m.82,7.67a.72.72,0,0,1,.11.49c-.24,0-.11.45-.35.49a.52.52,0,0,0-.23-.49v-.12a2.78,2.78,0,0,0-.35-.61c.12,0,.14-.1.24-.12.27,0,.21.42.58.36m-.47,3c-.41-.11-.54-.49-.7-.86.1-.1.32-.07.35-.24.13,0,.18-.13.24-.24.32-.06-.1.66.23.61.08.37-.12.44-.12.73m-1.4-1.1a5.06,5.06,0,0,1,.12-1.34c.33,0-.09-.66.23-.61.08.41-.15,1.13.12,1.34.19,0,.2.12.35.12-.06.39-.44.45-.82.49m0-3.65c.2,0,.23.09.24.24a.85.85,0,0,1,.11.61c-.24-.1-.52.32-.23.37v.24c-.53,0-.44-1.29-.12-1.46m-.35-.61c.08-.53.06-1.15.35-1.46a2.42,2.42,0,0,1,.35.85.64.64,0,0,1-.7.61m-1.27-8.28v-.61c.2,0,.24-.15.46-.12,0,.44,0,.84-.46.73m4.76-1.34c-.06.47.3.5.36.85-.12,0-.14.1-.24.12-.1-.25-.35-.36-.35-.73,0-.14.13-.19.23-.24m.59-1.83a6.28,6.28,0,0,1,.81.73c-.44.57.1.94-.12,1.46-.2.11-.29.34-.69.25-.12-.16-.11-.45-.35-.49a4.06,4.06,0,0,1,.35-1.95m1.63,20.7c.55-.14.4.47.69.61,0,.1.12.12.12.25.2.32,0,1-.35.6-.15-.36-.33-.7-.46-1.09Zm-5.71-2.07a.65.65,0,0,1,.47.13l.35.36a11.88,11.88,0,0,1,0,1.58c-.23.15-.65.4-.93.13v-.37c1.12-.21-.08-1.1.11-1.83m.35,3.53c-.06-.25-.29-.34-.23-.73.22,0,.22-.35.58-.24-.07.46.22,1.37-.35,1m-.81-1.82c-.15,0-.16.15-.35.12V50.9c0-.18,0-.45.12-.48.56.08-.09.67.23,1m.23-6.94c-.1.23-.07-.14-.23-.12C24.48,44,24.53,43,25,43c.27.31,0,.8-.12,1.09-.17.05.05.16,0,.37m-3-17.17c-.07,1.28,1.42.94,1.51,2.07.27,0,.5-.27.58.11a4.24,4.24,0,0,0-.23,1.59c1.16-.23,1.4,1.71.46,1.95a1.69,1.69,0,0,1-.58-.73,1.23,1.23,0,0,1-1.51.61,1.23,1.23,0,0,0-1.28-.37c-1.07.11-1.42-.54-2.56-.36-.52.23-.57.93-1.28,1-.5-.08-.5-.69-1.28-.49-.15.33-.31.65-.46,1h3.26c.21-.18.13-.67.57-.61,0,.13.06.31.12.12a18.84,18.84,0,0,1,2,1,.79.79,0,0,1,.93-.6c0,.12.1.14.12.24A8.37,8.37,0,0,1,22,34.82c.46.2.62.74,1.27.74-.07-.58-.4-.87-.34-1.59.33-.87.43.57.81.73a1.67,1.67,0,0,1,0,1.95c.83-.13.93.49.93,1.22-.17.07-.6-.14-.58.13.19.77,1.13.76,1,1.82-.2.37-.36-.34-.46,0-.24.11-.35.36-.35.73.26.18.77.09.81.49v.85a2,2,0,0,1-1.39.24v1.1c.17.07.6-.14.58.12a2.78,2.78,0,0,0,0,1.95c.48.14.45-.26.81-.24.24.81-.34,1.41-.23,1.7.25-.36.42.36.35.73-.15,0-.16-.15-.35-.12,0,.49.21.67.12,1.22-.49.28-.91-.05-1.28-.24-.1.87.84.65.82,1.46-.37-.07-.05.6-.47.48s-.18-.86-.58-1c0,.65-.88.46-1.05,1,.63,0,.9.44.81,1.22.21.11.59,0,.7.24a3.73,3.73,0,0,1-.58,1.71c.35,0,.3.5.81.36,0-.4-.33-.54-.23-1.09.41,0,.94-.56,1.16-.37.06.56-.11,1.35.12,1.71.33,0,.48-.23.82-.25.48.23.48,1,1.28.86.36-.5-.71-.34-.47-1.1a1.76,1.76,0,0,1,.93.24c.19-.19-.1-.5,0-1-.65,0-.75.6-1.4.61-.26-.5.41-.92.7-1.22.22,0,.26-.13.47-.12,0-.39-.26-.54-.7-.49-.49.38-.57-.38-.11-.49.11,0,.13-.09.23-.12a15.71,15.71,0,0,1-.7-2.07v.73c-.4.1-.49-.13-.7-.24.12-.45-.39-.24-.47-.49-.15-1.18.67-1.54,1.28-1,.07.25-.14.8.12.85-.13-.58.38-.5.82-.48.06,1.28-.18,3,1.16,3.28a.77.77,0,0,1,.7.73c1.6-.54,1.54,1.61,2.56,2.08.27-.29.13-1,.58-1.1a6,6,0,0,0,.81.48c.36-.43-.11-.77-.35-1A5.43,5.43,0,0,0,32,52a2.94,2.94,0,0,1-.23-1.1h-.12a6.75,6.75,0,0,1-1.05-1c-1.17-.32-1.33-1.69-2-2.56a3.72,3.72,0,0,0,.24,1.46,2.73,2.73,0,0,1,.46,1.22v.37c.24,0,.23.32.47.36.05.35.88-.11.93.24a13,13,0,0,1-1.28.86c-.15-.62-.19-1.34-.82-1.46-.31,0-.2.51-.46.6-.31-.31-.2-.87-.23-1.7.14-.8-.38-.9-.47-1.46s0-1.12.35-.61a.37.37,0,0,0,.23.24,2.61,2.61,0,0,0,.24-.73c.27-.36-.27-1.18-.12-1.46-.07-.22.34-.51,0-.61-.13.11,0,.45-.35.37.13-.91-.81-.69-.93-1.34a3.44,3.44,0,0,1,.47-2.19,1.22,1.22,0,0,1,.11-1.22c.51,0,.61.33.7.73-.2.8-1.64,2.58,0,2.8-.21-1.51.49-2.09.23-3.53-.08-.49.2-1.35-.23-1.46a5.08,5.08,0,0,0-.7-1.71c.17-.16,0-.25,0-.61.27-.09.77-.57.47-.85s-.09-.72.35-.61c.33.55.05,1,.58,1.46-.11.33-.36.52-.47.86.56,0,.88.4,1.28,0,.09-1.22-1.13-2.14-.58-3,.36-.09.22.33.58.24,0-.81.9-.37,1.4-.36.28-.16.27-.62.7-.61,0,.22.07.41.23.48a2.31,2.31,0,0,1,.58-1,3.09,3.09,0,0,0,2.21-1.34,8.27,8.27,0,0,0-3,1.1s-.9.55-1.17,0a4,4,0,0,1-.23-1.22c.16-.6.26-1.27.81-1.46h.7c.11-.21,0-.61.24-.74s.23.25.46.25c0-.34.15-.57.58-.48a1.74,1.74,0,0,0,.23,1c.2-.41,0-1.26.59-1.22s.17,1,.93.86A1.17,1.17,0,0,0,35,29.1c-.19-.37-1-.1-1-.6s.4-.31.69-.37A2.65,2.65,0,0,0,34.8,27c-1.72-.72-2.64,1-4.65.73-.13-.23-.39-.68-.12-1a7.6,7.6,0,0,0,.82-1.58c.13-.64.56-1,.69-1.58-.54,0-.7.38-1.27.36-.38.33-.25,1.2-.47,1.7a12.53,12.53,0,0,0-.47,2.2c-.31.24-.13,1-.46,1.21-.16.16-.12.53-.12.86,1,.29,1-1.45,1.86-1.71a13,13,0,0,0,2.32-.49c.08,0,.46-.3.47,0-.24.31-.72.39-.92.74a5.23,5.23,0,0,0-2.8,2.06c-.54.05-.71.48-1.16.61-.82.55-1.48-.69-1.16-1.33,0-.73.85-1.22.69-1.71-.08-.28.21-.95-.23-.85-.63.51-.22,2.12-1.16,2.31-.37-.49.47-1.25.12-1.7-.5.2-.64,1.32-.36,1.95a1.21,1.21,0,0,1-1.28.6c-.32-1.15-1.38-1.55-1.39-3v0l-.49-.18a.24.24,0,0,1,0,.09c-.43.22-.88-.54-1.39,0"/><path class="cls-4" d="M29.68,42.74c.2.82.21-1.09,0-1.58-.05-.23-.25-.3-.23-.61.17-.43.78-1,.46-1.58-.24-.22-.41.69-.58,1a5.14,5.14,0,0,0-.46,2.68c.28-.65.62.4.81.12"/><path class="cls-4" d="M24.21,54.92c.84-.44,1.8,1.49,2.45.49-.54-.58-1.51-.7-2.09-1.22-.36,0-.53.26-.82.37a.33.33,0,0,0,.23.36c.23.16-.07.27.06.34l.11-.07a.51.51,0,0,0,.06-.27"/><path class="cls-4" d="M24.68,41.4c-.15-.41-1.27-.51-1.28.13.16.15,1.31.31,1.28-.13"/><path class="cls-4" d="M28.75,44.45c0,.4-.35,1.08-.23,1.21,0,.32,0,.53.35.49.31-.28.19-1,.46-1.34.76.72-.49,2.92.7,3,0-2.06-.14-3.4-1.05-4.63-.32.15-.21.75-.23,1.22"/><path class="cls-1" d="M75.81,9.07a4.69,4.69,0,0,0-4.18,2.78,15.91,15.91,0,0,0-1.55,7.71,19.66,19.66,0,0,0,.71,5.58,8.27,8.27,0,0,0,2.06,3.65A4.37,4.37,0,0,0,76,30.07a6.84,6.84,0,0,0,3.12-.66v1.44a6.61,6.61,0,0,1-3.27.71,5.75,5.75,0,0,1-3.88-1.43A9.22,9.22,0,0,1,69.36,26a20.27,20.27,0,0,1-.91-6.45q0-5.58,2-8.77a6.12,6.12,0,0,1,5.42-3.18,7,7,0,0,1,3.73,1l-.72,1.37A5.54,5.54,0,0,0,75.81,9.07Z"/><path class="cls-1" d="M95.6,19.56c0,3.86-.58,6.82-1.73,8.9a5.58,5.58,0,0,1-10,0c-1.13-2.09-1.7-5.05-1.7-8.9q0-6,1.69-9a5.47,5.47,0,0,1,5.07-2.95,5.39,5.39,0,0,1,5,3.1C95,12.77,95.6,15.73,95.6,19.56Zm-11.82,0a18.57,18.57,0,0,0,1.3,7.85,4,4,0,0,0,7.59,0c.87-1.76,1.3-4.38,1.3-7.88a18.65,18.65,0,0,0-1.28-7.82,4.06,4.06,0,0,0-3.77-2.63,4.11,4.11,0,0,0-3.85,2.67A18.45,18.45,0,0,0,83.78,19.56Z"/><path class="cls-1" d="M107.58,31.24,101.38,10h-.13c.11,2.23.16,3.64.16,4.24v17h-1.5V7.94h2.32l5.22,17.82a25.52,25.52,0,0,1,.91,4h.13a32.28,32.28,0,0,1,1-4l5.18-17.85h2.39v23.3h-1.56V14.4c0-.66.05-2.11.16-4.34h-.13l-6.17,21.18Z"/><path class="cls-1" d="M129.82,31.24,123.62,10h-.13c.1,2.23.16,3.64.16,4.24v17h-1.5V7.94h2.31l5.23,17.82a25.52,25.52,0,0,1,.91,4h.12a32.28,32.28,0,0,1,1-4l5.18-17.85h2.39v23.3h-1.56V14.4c0-.66.06-2.11.16-4.34h-.13l-6.16,21.18Z"/><path class="cls-1" d="M155.61,7.94V23.67q0,7.89-5.65,7.89a5,5,0,0,1-4.3-2,9.83,9.83,0,0,1-1.48-5.85V7.94h1.58V23.86a8.13,8.13,0,0,0,1.09,4.62A3.55,3.55,0,0,0,150,30.07a3.41,3.41,0,0,0,3-1.59,8.64,8.64,0,0,0,1-4.68V7.94Z"/><path class="cls-1" d="M172.79,31.24h-2L162,10.35h-.13c.13,1.44.2,2.84.2,4.17V31.24h-1.53V7.94h2l8.75,20.66h.1c-.09-1.74-.13-3.2-.13-4.37V7.94h1.53Z"/><path class="cls-1" d="M186.34,31.24h-8.45V7.94h8.45v1.5h-6.89v8.85H186v1.49h-6.5v10h6.89Z"/><path class="cls-1" d="M83.56,52q0,5.77-2.35,8.83a8,8,0,0,1-6.77,3h-5.7V40.59H75a7.48,7.48,0,0,1,6.33,3Q83.57,46.59,83.56,52Zm-4.45.13q0-7.81-4.3-7.81H73.07V60.09h1.41a3.75,3.75,0,0,0,3.5-2A12.29,12.29,0,0,0,79.11,52.14Z"/><path class="cls-1" d="M91,40.59l.22.35a49,49,0,0,1-2.81,7.63H85.22c.68-2.72,1.21-5.38,1.61-8Z"/><path class="cls-1" d="M104.15,63.89H93.65V40.59h10.5v3.74H98v5.55h5.72v3.76H98v6.45h6.16Z"/><path class="cls-1" d="M115.28,44a3.28,3.28,0,0,0-2.94,2.19,13.92,13.92,0,0,0-1.08,6.07q0,8.1,4.23,8.1a7.78,7.78,0,0,0,3.87-1.18v3.85A7.71,7.71,0,0,1,115,64.21a6.87,6.87,0,0,1-6-3.14c-1.4-2.08-2.11-5-2.11-8.8s.73-6.73,2.18-8.85a6.93,6.93,0,0,1,6-3.17,8.57,8.57,0,0,1,2.44.35A9.48,9.48,0,0,1,120,41.83l-1.43,3.52a12.8,12.8,0,0,0-1.53-.9A3.91,3.91,0,0,0,115.28,44Z"/><path class="cls-1" d="M137.05,63.89h-4.33V53.67H127V63.89h-4.34V40.59H127v9.26h5.72V40.59h4.33Z"/><path class="cls-1" d="M152.19,63.89,150.86,58h-6.08l-1.34,5.88h-4.33l5.77-23.4h5.88l5.79,23.4ZM150,54.17l-1.24-5.42c-.07-.33-.24-1.16-.5-2.48s-.42-2.21-.47-2.66c-.14.92-.32,1.92-.53,3s-.76,3.61-1.66,7.54Z"/><path class="cls-1" d="M158.6,63.89V40.59h4.34v19.5h6v3.8Z"/><path class="cls-1" d="M171.72,63.89V40.59h4.34v19.5h6v3.8Z"/><path class="cls-1" d="M195.34,63.89h-10.5V40.59h10.5v3.74h-6.17v5.55h5.73v3.76h-5.73v6.45h6.17Z"/><path class="cls-1" d="M215.06,63.89h-5.29L202.56,47h-.21a20.13,20.13,0,0,1,.4,4.14V63.89h-4V40.59h5.32l7.14,16.7h.18a21.91,21.91,0,0,1-.31-4V40.59h4Z"/><path class="cls-1" d="M229.79,57.46a7,7,0,0,1-1.65,5,6.25,6.25,0,0,1-4.76,1.74A10.41,10.41,0,0,1,218.2,63V58.72a8.94,8.94,0,0,0,4.8,1.71,2.4,2.4,0,0,0,1.87-.69,2.62,2.62,0,0,0,.63-1.86,3.38,3.38,0,0,0-.75-2.13,11,11,0,0,0-2.47-2.14,10.59,10.59,0,0,1-2.27-2,7,7,0,0,1-1.2-2.13,8.09,8.09,0,0,1-.42-2.74A6.59,6.59,0,0,1,220.06,42a5.87,5.87,0,0,1,4.47-1.75,9.75,9.75,0,0,1,5.14,1.5l-1.43,3.47a14,14,0,0,0-1.6-.79,4.5,4.5,0,0,0-1.79-.35,2,2,0,0,0-1.62.69,2.88,2.88,0,0,0-.57,1.89,3.26,3.26,0,0,0,.68,2.05,10,10,0,0,0,2.37,2,9.85,9.85,0,0,1,3.18,3.12A7.24,7.24,0,0,1,229.79,57.46Z"/></g></g></svg>