<svg xmlns="http://www.w3.org/2000/svg" viewBox="0 0 576.77 155.13"><defs><style>.cls-1{fill:#1a171b;}.cls-2{fill:#369837;}.cls-3,.cls-4{fill:#f2e530;}.cls-3{fill-rule:evenodd;}.cls-5{fill:#c99731;}.cls-6{fill:#363;}</style></defs><title>Fichier 1</title><g id="Calque_2" data-name="Calque 2"><g id="Calque_1-2" data-name="Calque 1"><path class="cls-1" d="M268.63,150.63a.91.91,0,0,0-.65-.46c-.54,0-2.79,1.55-6.4,1.55-2.79,0-4.72-1.34-4.72-4.13a12.06,12.06,0,0,1,.19-2l1.38-8.84c.06-.33.19-1.49.19-1.71,0-.43,0-.76-.7-.84l-1-.11.11-.7h7.06l-.11.7-1,.11c-1,.14-1,.68-1.3,2.55l-1.21,7.73a16,16,0,0,0-.22,2.38c0,1.82.81,3.34,3.42,3.34a7.67,7.67,0,0,0,4.44-1.38l1.93-12.07a15.15,15.15,0,0,0,.19-1.71c0-.32,0-.76-.71-.84l-1-.11.1-.7h7.06l-.11.7-1,.11c-.95.14-1,.68-1.3,2.55l-2.36,14.54a8.33,8.33,0,0,1-1.49.41Z"/><path class="cls-1" d="M278.22,144a20.9,20.9,0,0,0,.35-2.63c0-.41-.16-.63-.38-.63-.54,0-1.22.87-1.57,1.2l-.43-.6c.73-.76,2.84-2.82,4.61-2.82.51,0,.86.38.86,1.14a17.67,17.67,0,0,1-.62,3.23l.06,0c.46-1,3.58-4.42,6.32-4.42a1.32,1.32,0,0,1,1.51,1.46,15.4,15.4,0,0,1-.29,2l-.95,5.23a14.57,14.57,0,0,0-.25,1.58c0,.3.06.62.46.62s1.28-1,1.58-1.36l.51.6c-.46.65-2.71,3-4.55,3-.85,0-1.09-.65-1.09-1.38a12.45,12.45,0,0,1,.3-2.2l1-5.28a8.76,8.76,0,0,0,.19-1.55c0-.71-.32-.92-.78-.92-2.23,0-4.37,5.5-4.75,8l-.51,2.93-2.94.4Z"/><path class="cls-1" d="M313.57,148.57c-.7.87-2.51,3.14-4.61,3.14-.56,0-1-.46-1-1.27a21.94,21.94,0,0,1,.4-2.71l0-.06c-.95,1.33-3.05,4-5.89,4-1.38,0-2-1.05-2-2.76,0-4.86,4.23-10.39,10.28-10.39a9.2,9.2,0,0,1,1.87.22l-.84,4.77c-.29,1.79-.82,4.8-.82,5.4,0,.33,0,.54.39.54s1.46-1.19,1.76-1.52Zm-8.89,1.33c1.52,0,2.95-2.77,3.79-5a38.68,38.68,0,0,0,1.09-5,3.72,3.72,0,0,0-1.31-.19c-2.3,0-4.57,4.64-4.57,8.44,0,1,.26,1.82,1,1.82"/><path class="cls-1" d="M325,147.24c-.79,1.49-2.8,4.48-6.35,4.48-2.46,0-3.3-1.77-3.3-3.77,0-5.16,3.76-9.39,7.83-9.39a3,3,0,0,1,2.63,1,4.8,4.8,0,0,1-1.22,2.07h-.28c-.45-.73-1.21-2-2.51-2-2.07,0-3.2,4.26-3.2,7.16,0,1.72.48,3.1,1.76,3.1,1.73,0,3.5-2.28,4-3.1Z"/><path class="cls-1" d="M336.18,147.24c-.79,1.49-2.79,4.48-6.35,4.48-2.46,0-3.31-1.77-3.31-3.77,0-5.16,3.78-9.39,7.85-9.39a3,3,0,0,1,2.62,1,4.7,4.7,0,0,1-1.22,2.07h-.27c-.46-.73-1.22-2-2.52-2-2.06,0-3.2,4.26-3.2,7.16,0,1.72.49,3.1,1.76,3.1,1.74,0,3.5-2.28,4-3.1Z"/><path class="cls-1" d="M351.65,148.73c-.79.92-2.52,3-4.58,3-.68,0-1-.4-1-1.16a18,18,0,0,1,.62-3.28l-.05-.06c-1,1.49-3.2,4.5-6.38,4.5-.87,0-1.38-.59-1.38-1.59a9.23,9.23,0,0,1,.19-1.71l1-5.56a12.46,12.46,0,0,0,.22-1.44c0-.46-.19-.63-.44-.63s-1.25.9-1.51,1.17l-.44-.6c.89-.95,2.9-2.79,4.56-2.79.7,0,1,.49,1,1.11a12.28,12.28,0,0,1-.25,1.84l-1.11,6.08a8.88,8.88,0,0,0-.19,1.44c0,.73.29.87.62.87,2.41,0,4.29-4.83,5-8.65l.41-2.28,3-.41-1.41,8.14a19.84,19.84,0,0,0-.41,2.47.35.35,0,0,0,.38.32c.5,0,1.34-.92,1.74-1.36Z"/><path class="cls-1" d="M363.65,147.29c-.68,1.36-3.12,4.42-6.68,4.42-2.68,0-3.47-1.76-3.47-4.2,0-4.45,3.77-8.95,7.68-8.95,1.9,0,3.2.68,3.2,2.33,0,3.34-5.37,5.08-7.62,5.91,0,1.12.24,3.1,2,3.1s3.77-2.28,4.26-3.07Zm-6.84-1.35c1.27-.41,4.69-2.15,4.69-4.8,0-1-.35-1.5-1.32-1.5-2.23,0-3.37,5.24-3.37,6.3"/><path class="cls-1" d="M372.52,148.73c-.46.65-2.71,3-4.55,3-.85,0-1.09-.65-1.09-1.38a12.7,12.7,0,0,1,.3-2.2l1-5.63c.05-.44.14-.9.14-1.09,0-.44-.11-.63-.44-.63s-1.36.95-1.63,1.2l-.43-.6c.79-.84,3-2.82,4.69-2.82.76,0,1,.49,1,1.28,0,.24-.11.75-.27,1.79l-1.06,5.66a12.3,12.3,0,0,0-.22,1.58c0,.3.06.62.46.62s1.28-1,1.58-1.36Zm-3.06-13.94a1.92,1.92,0,0,1,1.89-2.06,1.29,1.29,0,0,1,1.42,1.46,1.92,1.92,0,0,1-1.79,2,1.34,1.34,0,0,1-1.52-1.41"/><path class="cls-1" d="M381.05,148.73c-.47.65-2.72,3-4.56,3-.84,0-1.09-.65-1.09-1.38a16.08,16.08,0,0,1,.3-2.2l2.15-12.47a12.6,12.6,0,0,0,.16-1.36c0-.62-.19-.71-.54-.71a5.22,5.22,0,0,0-1.58.63l-.27-.6c.84-.54,3.45-1.84,4.64-1.84.54,0,.92.11.92.81a15.59,15.59,0,0,1-.24,1.87l-2.2,12.83a11.12,11.12,0,0,0-.24,1.58c0,.3.05.62.46.62s1.27-1,1.57-1.36Z"/><path class="cls-1" d="M382.73,155.13a49.1,49.1,0,0,0,2-7.13,9.2,9.2,0,0,1,3.09-.68c0,1.87-2.49,5.64-3.23,7.16Z"/><path class="cls-1" d="M414.5,148.73c-.78.92-2.52,3-4.58,3-.68,0-1-.4-1-1.16a18.07,18.07,0,0,1,.63-3.28l-.06-.06c-1,1.49-3.2,4.5-6.37,4.5-.86,0-1.38-.59-1.38-1.59a9.23,9.23,0,0,1,.19-1.71l1-5.56a12.46,12.46,0,0,0,.22-1.44c0-.46-.19-.63-.44-.63s-1.24.9-1.51,1.17l-.43-.6c.89-.95,2.9-2.79,4.55-2.79.7,0,1,.49,1,1.11a10.92,10.92,0,0,1-.24,1.84l-1.11,6.08a8.88,8.88,0,0,0-.19,1.44c0,.73.3.87.63.87,2.41,0,4.28-4.83,5-8.65l.4-2.28,3-.41-1.41,8.14a18,18,0,0,0-.41,2.47.34.34,0,0,0,.38.32c.49,0,1.33-.92,1.74-1.36Z"/><path class="cls-1" d="M418.55,144a20.9,20.9,0,0,0,.35-2.63c0-.41-.16-.63-.38-.63-.54,0-1.22.87-1.57,1.2l-.44-.6c.74-.76,2.85-2.82,4.62-2.82.52,0,.87.38.87,1.14a17.61,17.61,0,0,1-.63,3.23l.06,0c.46-1,3.58-4.42,6.32-4.42.92,0,1.52.41,1.52,1.46a14,14,0,0,1-.3,2l-1,5.23a14,14,0,0,0-.24,1.58c0,.3.05.62.45.62s1.28-1,1.58-1.36l.52.6c-.46.65-2.72,3-4.56,3-.84,0-1.09-.65-1.09-1.38a12.45,12.45,0,0,1,.3-2.2l1-5.28a8.76,8.76,0,0,0,.19-1.55c0-.71-.32-.92-.78-.92-2.22,0-4.37,5.5-4.75,8l-.52,2.93-2.92.4Z"/><path class="cls-1" d="M453.91,148.57c-.71.87-2.53,3.14-4.62,3.14-.56,0-1-.46-1-1.27a22,22,0,0,1,.41-2.71l-.06-.06c-.94,1.33-3,4-5.88,4-1.38,0-2-1.05-2-2.76,0-4.86,4.23-10.39,10.28-10.39a9,9,0,0,1,1.87.22l-.83,4.77c-.31,1.79-.81,4.8-.81,5.4,0,.33,0,.54.38.54s1.46-1.19,1.75-1.52ZM445,149.9c1.52,0,3-2.77,3.8-5a42.32,42.32,0,0,0,1.09-5,3.73,3.73,0,0,0-1.3-.19c-2.32,0-4.59,4.64-4.59,8.44,0,1,.27,1.82,1,1.82"/><path class="cls-1" d="M457.87,144.77a23.29,23.29,0,0,0,.36-2.84c0-.57-.06-1.12-.46-1.12-.57,0-1.28.79-1.63,1.17l-.46-.6c.46-.68,2.74-2.82,4.23-2.82.71,0,1.06.49,1.06,1.25a9.5,9.5,0,0,1-.27,2l.05.06c.63-1,1.9-3.34,3.55-3.34a5,5,0,0,1,2.36.71c-.3.65-.94,2.17-1.92,2.17-.63,0-1.52-.66-2.17-.66-1,0-1.82,4.16-2.14,6.05l-.76,4.48-2.94.4Z"/><path class="cls-1" d="M471.36,146.29a15.69,15.69,0,0,0-.3,2.31c0,.67.06,1.3.84,1.3s2.14-1.66,2.64-2.25l.54.51c-.95,1.41-2.66,3.56-5.48,3.56-1,0-1.55-.71-1.55-2.07a22.11,22.11,0,0,1,.27-2.49l1.28-7.11-2.12-.24.09-.55,2.21-.29.17-.84a21.84,21.84,0,0,1,3.23-2.47l.43.16a20.32,20.32,0,0,0-.95,3.15l3.15.29-.08.55-3.26.24Z"/><path class="cls-1" d="M498.33,148.73c-.65.82-2.68,3-4.47,3-.73,0-1.17-.4-1.17-1a24.25,24.25,0,0,1,.6-3.55l-.06,0c-.59,1.16-3,4.63-5.88,4.63-1.49,0-2.09-1.46-2.09-3.09,0-4.36,3.31-10.06,8.73-10.06h.54l.52-2.9a7.9,7.9,0,0,0,.17-1.36c0-.62-.2-.71-.55-.71a5.27,5.27,0,0,0-1.57.63l-.27-.6c.84-.54,3.44-1.84,4.64-1.84.54,0,.92.11.92.81a14.43,14.43,0,0,1-.22,1.87l-2.33,13.32a7.7,7.7,0,0,0-.14,1.06c0,.38.05.65.49.65s1.36-1,1.66-1.36Zm-8.76,1.17c1.14,0,2.39-2.15,2.94-3.31a19.43,19.43,0,0,0,1.73-6.38,1.46,1.46,0,0,0-1.41-.57c-2.39,0-4.32,5-4.32,8.11,0,1.06.22,2.15,1.06,2.15"/><path class="cls-1" d="M510.17,147.29c-.68,1.36-3.12,4.42-6.68,4.42-2.68,0-3.47-1.76-3.47-4.2,0-4.45,3.77-8.95,7.68-8.95,1.9,0,3.2.68,3.2,2.33,0,3.34-5.37,5.08-7.62,5.91,0,1.12.24,3.1,2,3.1s3.77-2.28,4.26-3.07Zm-6.84-1.35c1.28-.41,4.69-2.15,4.69-4.8,0-1-.35-1.5-1.32-1.5-2.23,0-3.37,5.24-3.37,6.3"/><path class="cls-1" d="M529.27,140.3a3.21,3.21,0,0,1,2.31-1.74c.73,0,1.08.68,1.08,1.63,0,3.8-4.44,11.52-8.92,11.52a1.76,1.76,0,0,1-1.6-1.92,16.48,16.48,0,0,1,.21-2.52L523,143c0-.46.13-1.12.13-1.41s0-.82-.46-.82-1.28.87-1.57,1.17l-.47-.6c.55-.62,2.64-2.79,4.16-2.79.9,0,1.35.54,1.35,1.79a23.15,23.15,0,0,1-.26,2.63l-.55,3.55a11.75,11.75,0,0,0-.19,2.2c0,.82.19,1.17.93,1.17,1.16,0,3.71-3.72,3.71-6.7a5.6,5.6,0,0,0-.52-2.63Z"/><path class="cls-1" d="M540.48,148.73c-.46.65-2.71,3-4.56,3-.84,0-1.08-.65-1.08-1.38a11.79,11.79,0,0,1,.3-2.2l1-5.63c.05-.44.13-.9.13-1.09,0-.44-.1-.63-.43-.63s-1.36.95-1.63,1.2l-.43-.6c.78-.84,3-2.82,4.69-2.82.76,0,1,.49,1,1.28,0,.24-.11.75-.28,1.79l-1.05,5.66a12.3,12.3,0,0,0-.22,1.58c0,.3.06.62.46.62s1.28-1,1.58-1.36Zm-3.06-13.94a1.93,1.93,0,0,1,1.9-2.06,1.29,1.29,0,0,1,1.41,1.46,1.92,1.92,0,0,1-1.8,2,1.34,1.34,0,0,1-1.51-1.41"/><path class="cls-1" d="M550.71,140.3a3.21,3.21,0,0,1,2.31-1.74c.73,0,1.08.68,1.08,1.63,0,3.8-4.44,11.52-8.92,11.52a1.76,1.76,0,0,1-1.6-1.92,15.32,15.32,0,0,1,.22-2.52l.65-4.26c0-.46.13-1.12.13-1.41s-.05-.82-.46-.82-1.27.87-1.57,1.17l-.46-.6c.54-.62,2.63-2.79,4.15-2.79.9,0,1.35.54,1.35,1.79a23.15,23.15,0,0,1-.26,2.63l-.55,3.55a11.75,11.75,0,0,0-.19,2.2c0,.82.19,1.17.93,1.17,1.16,0,3.71-3.72,3.71-6.7a5.6,5.6,0,0,0-.52-2.63Z"/><path class="cls-1" d="M557.42,144.77a25.1,25.1,0,0,0,.35-2.84c0-.57,0-1.12-.46-1.12-.57,0-1.27.79-1.63,1.17l-.46-.6c.46-.68,2.74-2.82,4.24-2.82.7,0,1,.49,1,1.25a8.9,8.9,0,0,1-.27,2l.06.06c.62-1,1.89-3.34,3.55-3.34a5.07,5.07,0,0,1,2.36.71c-.3.65-1,2.17-1.93,2.17-.62,0-1.52-.66-2.17-.66-1,0-1.81,4.16-2.14,6.05l-.76,4.48-2.93.4Z"/><path class="cls-1" d="M576,147.29c-.68,1.36-3.12,4.42-6.68,4.42-2.68,0-3.47-1.76-3.47-4.2,0-4.45,3.77-8.95,7.68-8.95,1.9,0,3.2.68,3.2,2.33,0,3.34-5.37,5.08-7.62,5.91,0,1.12.24,3.1,2,3.1s3.76-2.28,4.25-3.07Zm-6.84-1.35c1.27-.41,4.69-2.15,4.69-4.8,0-1-.35-1.5-1.33-1.5-2.22,0-3.36,5.24-3.36,6.3"/><path class="cls-2" d="M378.25,98.44c-2.79-2.16-6.18-3.65-6.37-7.15a3.29,3.29,0,0,1,3.1-3.51c3.86.13,6.39,3.88,7.88,5.77a8.67,8.67,0,0,0,2.64-4.29c-1.58-1.47-2.5-2.19-7.4-2.27-5.74,0-11.34,3.9-11.35,9,0,4.1,2.57,6.65,5.49,9s6.19,4.37,6.31,8.11a3.89,3.89,0,0,1-3.7,3.7c-4.48-.24-7.34-5.18-8.54-8.36a11.73,11.73,0,0,0-4.14,5.46c1.13,2,3.1,3.64,8.88,3.7,7.15-.09,12.61-3.36,12.64-10.4,0-4.26-2.55-6.64-5.44-8.79M307.68,87c-10.2,0-19.34,9.65-19.36,20.78a13.14,13.14,0,0,0,1.12,5.66c1.14,2.22,3.06,4.15,7.66,4.2,8.45,0,13.32-6.08,16.37-10.4l-.06,0c-1.84,2.29-5.65,6.89-10.55,7a5.47,5.47,0,0,1-5.14-3.39,12.64,12.64,0,0,1-1-5.2v-.66l-.18.07.18-1.83A41.85,41.85,0,0,1,298.47,95c1.19-3.39,3-7,6.7-7.19a3.24,3.24,0,0,1,3,2,7.41,7.41,0,0,1,.59,3c0,6.34-5.34,9.6-10.49,11.57l-.28.11a38.57,38.57,0,0,0,10-3.31c4.32-2.1,7.89-5.14,7.8-8.29,0-4.17-3.4-5.77-8.09-5.86m27.22,8.28.19-.65a34.48,34.48,0,0,0,.63-4.35c-.17-2.74-.46-3.18-2.06-3.29-3.17-.09-8.53,3.51-11.55,5.87a7,7,0,0,1,2.8-.86,2.11,2.11,0,0,1,1.85,1.1,4.26,4.26,0,0,1,.43,2.06,28.22,28.22,0,0,1-.35,3.15h0L324,117.49l7.86-.79.69-4.7a72.69,72.69,0,0,1,3.21-12.94c.27-.7.55-1.39.85-2l-1.11-1.13Zm2.49.17a13.92,13.92,0,0,1,.95-1.55,3.93,3.93,0,0,0-.93,1.46ZM280.27,70c-3.5,0-8.69,2.36-12.15,4.35a8.4,8.4,0,0,1,2.24-.37h.12a2.17,2.17,0,0,1,1.95,1.38,4.58,4.58,0,0,1,.22,1.59c0,.53-.36,2.41-.49,3.36l-4.89,30.6c-.13.84-.54,3.43-.53,3.63.21,2.65.45,2.91,2.27,3.07,4.52.05,8.72-3.81,11.33-6.63l-.39.35a4.34,4.34,0,0,1-2.46,1.28,2.32,2.32,0,0,1-1.81-.68,2.85,2.85,0,0,1-.6-2.12l5.43-33.5c.27-1.8.89-5.19.87-5.2,0-.73-.17-.9-.21-.93s-.29-.18-.9-.17m73.07,42.6a2.33,2.33,0,0,1-1.8-.68,2.71,2.71,0,0,1-.62-1.94,36.26,36.26,0,0,1,.63-3.81l2.17-11.4a36.83,36.83,0,0,0,.52-4.74c-.07-2.32-1.24-3-3.07-3.07-2.83,0-6.26,1.54-9,3.47a16.51,16.51,0,0,0-1.53,1.15,5.24,5.24,0,0,1,2.56-.78,3.19,3.19,0,0,1,2.82,3.44,36.85,36.85,0,0,1-.62,4.63l-2.31,12c-.13.67-.54,3.41-.53,3.6.21,2.65.46,2.92,2.27,3.08,4.55.06,8.77-3.85,11.38-6.67l-.44.39a4.43,4.43,0,0,1-2.46,1.28M145.79,87.78c3.24.11,5.72,2.9,7.2,5.26a9.9,9.9,0,0,0,2.63-4.42c-.85-.66-2.81-1.64-6.56-1.63-6.92,0-11.45,3.78-14.42,8.3s-4.16,9.74-4.13,11.87c.14,6.67,1.82,10.41,7.42,10.47,8.85,0,13-6.36,15.46-10.84-1.66,2.47-5,7.17-9,7.4a4.65,4.65,0,0,1-4.57-2.73,15.69,15.69,0,0,1-.9-6.27,38.18,38.18,0,0,1,1.77-10.88c1.18-3.31,2.31-6.24,5.12-6.53M175.18,70c-3.49,0-8.63,2.34-12.09,4.32a8.7,8.7,0,0,1,2.18-.33,2.11,2.11,0,0,1,1.93,1.1,4.08,4.08,0,0,1,.36,1.86,21.76,21.76,0,0,1-.3,3.38l-6,37.14,7.71-.78.68-4A81.2,81.2,0,0,1,173.2,97.5c.18-.48.38-.94.58-1.38l-.84-.85-.54-.55,3-18.4c.28-1.76.9-4.85.88-5.19,0-.73-.17-.9-.21-.93a1.47,1.47,0,0,0-.9-.18M96.07,74.23a3.15,3.15,0,0,1,2.75,3.28c0,.66-.41,3.75-.69,5.47l-3.94,25.1a29,29,0,0,1-1.2,5.77,4,4,0,0,1-3.32,2.63l-.83.14h31.65a50.85,50.85,0,0,0,3.22-11.54l-1.58-.3c-1.52,3.68-2.65,6.31-4.4,8.19-1.93,2-4.56,2.87-8.36,2.85a17.57,17.57,0,0,1-6.32-1.36l-.85-.34,3-19.15h4.91c2.55,0,3.87,0,5,.75,1.23.9,1.11,2.18,1.13,3.23v1.1h.61l1.82-11.37h-.55l-.78,2.6a3.55,3.55,0,0,1-2.55,2.53,17,17,0,0,1-4.56.36h-4.86l3-19.29h6.26c3.95,0,6.31,1.19,7.36,3.31.86,1.74.94,3.69,1.2,5.69l1.44-.15a56.93,56.93,0,0,0,.68-9.33v-.31H95.24Zm94.3,38.4a2.3,2.3,0,0,1-1.91-.9A2.78,2.78,0,0,1,188,110a30.55,30.55,0,0,1,.62-3.81l2.24-11.67a22.12,22.12,0,0,0,.45-4.2c-.17-2.61-.75-3.16-3.61-3.35-3.47,0-6.69,1.91-9.2,4.1a5.11,5.11,0,0,1,1.53-.25h.12a2.64,2.64,0,0,1,2.3,1.29,5.11,5.11,0,0,1,.54,2.62,30,30,0,0,1-.49,4.22l-2.31,12c-.19,1-.54,3.38-.52,3.6.2,2.65.45,2.91,2.26,3.07,4.55.06,8.77-3.84,11.37-6.66l-.43.37a4.35,4.35,0,0,1-2.46,1.29M232,111c-1.05.77-1.6,1.54-3,1.72a2.17,2.17,0,0,1-1.58-.63,2.51,2.51,0,0,1-.63-1.79c0-1.43,1.16-9.26,1.7-12.73l1.61-10A26.94,26.94,0,0,0,224.5,87c-16.06,0-24.39,14.53-24.39,24.25.15,4.84,1.65,6.31,4.44,6.4,4,0,7.26-2.17,9.72-4.56a5.19,5.19,0,0,1-2.26.72,3.18,3.18,0,0,1-2.86-1.86,7.21,7.21,0,0,1-.64-3.21,34.17,34.17,0,0,1,2.74-13.06c1.72-3.81,4-7,7.35-7.07a6,6,0,0,1,3.2.69l.67.39-.12.77a102.26,102.26,0,0,1-2.45,12.14,37.82,37.82,0,0,1-2.8,7.31c.22-.27.41-.53.6-.78l.78-1,.91.9.54.54-.09.57a48.19,48.19,0,0,0-.59,4.92c.12,2.27.89,2.49,1.92,2.6,5.21.06,9.61-4.85,12.1-7.72l0,0c-.36.34-.8.73-1.25,1.11M256,70c-3.51,0-8.69,2.35-12.15,4.35a8.83,8.83,0,0,1,2.24-.38h.11a2.18,2.18,0,0,1,2,1.39,4.76,4.76,0,0,1,.22,1.58c0,.53-.35,2.41-.49,3.37L243,110.93c-.15.84-.55,3.44-.53,3.63.19,2.64.44,2.91,2.25,3.07,4.54.05,8.74-3.82,11.35-6.64l-.41.36a4.43,4.43,0,0,1-2.45,1.28,2.36,2.36,0,0,1-1.81-.68,2.9,2.9,0,0,1-.6-2.12l5.43-33.5c.27-1.8.9-5.19.87-5.2,0-.73-.17-.9-.21-.93A1.43,1.43,0,0,0,256,70"/><path class="cls-3" d="M402.37,65.42c7.62-.12,18.31-2.46,20.52-7.8a23.69,23.69,0,0,0-4.8-.53c-6.09,0-10.53,2.87-15.72,8.33m15.55-12.27a27.36,27.36,0,0,0,5.05.49,21.29,21.29,0,0,0,16.56-7.46,26.28,26.28,0,0,0-5.39-.6c-7.15,0-11.76,3.49-16.22,7.57m8.37-17A5.08,5.08,0,0,0,424.9,36h-.07C420,36,412,41.87,410,53.88c6.43-3.92,13.48-9.64,16.34-17.72m-18.47,9.77c0-.2,0-.4,0-.6h-.44c-5.94,0-10.61,8.76-12.71,21.47,7.14-5.09,13.21-13.38,13.16-20.87M389.17,77.52a26.64,26.64,0,0,0,2.89.16,18.06,18.06,0,0,0,15.82-8.27,29.68,29.68,0,0,0-4.24-.33c-8.28,0-12.53,4-14.47,8.44m39.06-35c10.33-1.35,18.79-4.9,21.52-13.16-8.93.34-17.54,7.22-21.52,13.16M392,55.76c-5.49,4.16-7.23,8.61-7.25,12.77a16.67,16.67,0,0,0,1.52,6.75c3.31-4.7,5.84-13.17,5.8-18.14a11.78,11.78,0,0,0-.07-1.38M359,38.11c-2.51,1.54-3.65,4.29-3.67,8.28,0,4.53,1.62,10.46,4.42,16.86a37.09,37.09,0,0,0,2.55-13.15c0-4.56-1-8.82-3.3-12M385.89,5.72a15.29,15.29,0,0,0-.52-4C378.1,7,374.64,17.37,374.57,24.55c6.64-5.69,11.35-12.06,11.32-18.83M365.48,57.89c5.84-4,13.1-11.1,12.95-16.62a6.92,6.92,0,0,0-.09-1.11c-8.39,3.35-11.15,8.54-12.86,17.73m6.31-18.78c4.38-1.81,12.69-6.52,14.26-17.64-10,3.91-12.4,10.46-14.26,17.64m-1.63-12.85a25.19,25.19,0,0,0-.69-6c-3,1-6.41,5.88-6.38,13a27.15,27.15,0,0,0,2.41,10.82c2.46-5.18,4.66-11.44,4.66-17.81M360.83,73a14.57,14.57,0,0,0,.19,2.3c9.45-4.81,11.19-12.11,11.24-17-8.84,4.1-11.4,9.74-11.43,14.72M350.21,62.41c0,6,3.32,10,7.2,12.52,0-.22,0-.45,0-.68.1-6.35-3.12-15.51-5.87-18.82a20.47,20.47,0,0,0-1.33,7"/><path class="cls-4" d="M32,106.37v0c0,4.53-3,12-10.24,20.33,19.35-10.47,50.11-32.3,51.31-70.61-5,27.08-27.23,41.57-41.07,50.23"/><path class="cls-5" d="M72.66,37.65c3.87,39.09-25.14,57.7-41.8,68.12.39,4.64-3.48,14.7-14.71,25.15C36.67,120.86,83.5,93.38,72.66,37.65M32,106.42v0c13.84-8.67,36-23.16,41.07-50.23-1.2,38.3-32,60.13-51.31,70.6C29.07,118.47,32,111,32,106.42"/><path class="cls-2" d="M45.57,118.78a3.32,3.32,0,0,0,2.49,1,7.77,7.77,0,0,0,6.16-3.81,17.36,17.36,0,0,0,2.58-7.39l-.92,1a112.87,112.87,0,0,1-10.31,9.28M69.45,20.53c-.33-.57-.51-.67-1-.69-.74-.07-2.61.85-5.12,3.67-12.93,14.35-31.76,25-46,30.78C8.2,58,4.9,63.83,4.88,69A11.39,11.39,0,0,0,16.05,80.59a14.77,14.77,0,0,0,8.28-2.83l2.41-1.65L26.06,79C24.45,85.57,16.72,98.85,4.78,112c-2.76,3-3.73,5-3.66,5.59,0,.26-.1.34,1.3.46,3.33.05,10.89-3,15.4-6a20.34,20.34,0,0,1,7.25-2.78,10,10,0,0,0,.55-2.71v-.18c0-.07,0-.19,0-.37a1.6,1.6,0,0,1,0-.28,5.25,5.25,0,0,1,2.48-4.47c7.7-4.8,17.61-11.16,25.52-20.06a73,73,0,0,0-8.84-19.37l-.56-.8.72-.67c7.56-6.91,22.12-24.59,24.25-32a18.6,18.6,0,0,0,.79-5,6.42,6.42,0,0,0-.5-2.79M17.92,44.27A20.45,20.45,0,0,0,29.67,40c5.17-3.81,8.06-9.14,8-13.39A7.59,7.59,0,0,0,36.28,22c-1.55-2.1-4.18-3.2-7.42-3.21a20.27,20.27,0,0,0-11.75,4.29c-5.17,3.81-8.07,9.13-8,13.38a7.65,7.65,0,0,0,1.44,4.65c1.55,2.08,4.18,3.18,7.42,3.18"/><path class="cls-6" d="M30.34,40.92C38,35.27,41,26.48,37.19,21.31s-13.13-4.81-20.75.84S5.75,36.57,9.59,41.76s13.14,4.8,20.75-.84M17.11,23.06a20.3,20.3,0,0,1,11.75-4.29c3.24,0,5.87,1.11,7.42,3.21a7.59,7.59,0,0,1,1.43,4.63c0,4.25-2.87,9.58-8,13.39a20.45,20.45,0,0,1-11.75,4.27c-3.24,0-5.87-1.1-7.42-3.18a7.58,7.58,0,0,1-1.44-4.65c0-4.25,2.88-9.57,8-13.38m27,95.46c1.72,3.78,8,2.9,11.08-1.94,1.89-2.71,2.86-6.68,3.1-11.31-1,1.18-2.09,2.33-3.18,3.44a110.28,110.28,0,0,1-11,9.81m12.73-10a17.5,17.5,0,0,1-2.58,7.39,7.77,7.77,0,0,1-6.16,3.81,3.32,3.32,0,0,1-2.49-1,113,113,0,0,0,10.31-9.28l.92-1m5.75-85.78C49.79,36.92,31.07,47.52,17,53.24-8.19,63.31,7.2,90.83,25,78.7c-1.48,6.22-9.17,19.53-21,32.56s5.91,7.39,14.5,1.77a19.59,19.59,0,0,1,7.48-2.72,11.32,11.32,0,0,0,.82-3.89c0-.1,0-.24,0-.44a4.15,4.15,0,0,1,1.93-3.72c7.79-4.86,17.94-11.35,26-20.57l.15-.17a74.38,74.38,0,0,0-9.17-20.28c7.7-7.11,22.2-24.57,24.56-32.56,2.18-7.38.34-14.78-7.69-5.92m6.61,5.6C67,35.81,52.47,53.49,44.91,60.4l-.72.67.56.8a73,73,0,0,1,8.84,19.37c-7.91,8.9-17.83,15.26-25.52,20.06a5.25,5.25,0,0,0-2.48,4.47,1.6,1.6,0,0,0,0,.28c0,.18,0,.3,0,.37v.18a10,10,0,0,1-.55,2.71,20.41,20.41,0,0,0-7.25,2.78c-4.51,3-12.07,6-15.4,6-1.4-.12-1.27-.2-1.3-.46C1.05,117,2,115,4.78,112,16.72,98.85,24.45,85.57,26.06,79l.68-2.85-2.41,1.65a14.74,14.74,0,0,1-8.27,2.83A11.39,11.39,0,0,1,4.88,69c0-5.18,3.32-11,12.5-14.72,14.23-5.79,33.06-16.43,46-30.78,2.51-2.82,4.39-3.74,5.12-3.68.44,0,.62.13,1,.7a6.42,6.42,0,0,1,.5,2.79,18.6,18.6,0,0,1-.79,5"/><path class="cls-6" d="M145.8,88.91c2.71,0,5.43,3.12,6.65,5.43h.74c1.9-1.43,2.92-3.46,3.73-6-.74-.88-3-2.44-7.87-2.44-14.72,0-19.67,16.42-19.67,21.3,0,6.79,2.17,11.6,8.55,11.6,10.37,0,14.79-8.21,17.1-12.62L153.26,105c-.95,1.49-5.22,8.07-8.89,8.07s-4.34-2.92-4.34-7.87c0-6.38,2.65-16.28,5.77-16.28m-5.13,5.4a38.18,38.18,0,0,0-1.77,10.88,15.51,15.51,0,0,0,.9,6.27,4.64,4.64,0,0,0,4.57,2.73c4-.23,7.35-4.92,9-7.39-2.43,4.47-6.61,10.84-15.46,10.83-5.6-.06-7.28-3.8-7.42-10.47,0-2.12,1.18-7.39,4.13-11.87s7.5-8.29,14.42-8.3c3.75,0,5.71,1,6.56,1.64A9.92,9.92,0,0,1,153,93c-1.48-2.36-4-5.14-7.2-5.26-2.81.29-3.93,3.22-5.12,6.53m232.35-3c0-1.43.81-2.38,2-2.38,3.26,0,6,4.07,7.4,5.83h.74c1.83-1.15,3-3.39,3.67-5.83-1.9-1.83-3.19-3-8.68-3-6.18,0-12.49,4.14-12.49,10.11,0,9.29,11.8,11.46,11.8,17.16a2.81,2.81,0,0,1-2.57,2.58c-3.87,0-7.13-5.9-7.81-8.62h-.75a13.17,13.17,0,0,0-5.35,6.92c1.22,2.58,3.73,4.75,10.11,4.75,7.46,0,13.77-3.73,13.77-11.53,0-9.57-11.8-11-11.8-15.94m-2,26.34c-5.78-.06-7.75-1.7-8.88-3.7a11.86,11.86,0,0,1,4.14-5.47c1.2,3.2,4.06,8.13,8.54,8.38a3.9,3.9,0,0,0,3.7-3.71c-.12-3.75-3.49-5.72-6.31-8.11s-5.49-5-5.49-9c0-5.08,5.61-9,11.36-9,4.89.08,5.81.8,7.39,2.27a8.76,8.76,0,0,1-2.64,4.29c-1.49-1.89-4-5.63-7.88-5.77a3.29,3.29,0,0,0-3.09,3.51c.18,3.5,3.57,5,6.36,7.15s5.43,4.53,5.44,8.78c0,7.06-5.49,10.32-12.64,10.41M94.1,73l-.34,2,2.1.34a2,2,0,0,1,1.83,2.17c0,.41-.4,3.67-.67,5.3l-3.93,25.1c-.82,5.15-1,7-3.6,7.46l-2.11.34-.33,2h34.19A50.4,50.4,0,0,0,125,104.17l-3.53-.67c-3.39,8.27-4.68,11.19-12.08,11.19a16.13,16.13,0,0,1-5.9-1.29l2.71-17.3h3.94c5,0,5,.55,5,2.85v2.24h2.72L120,87.55H117.3l-1,3.4c-.62,2-2.18,2.1-6,2.1h-3.53l2.64-17h5.3c7.59,0,6.78,4.14,7.59,9.09l3.4-.34a60.81,60.81,0,0,0,.81-10.38,5.26,5.26,0,0,0-.13-1.42Zm31.23,1.42a57,57,0,0,1-.68,9.34l-1.44.15c-.26-2-.34-3.94-1.21-5.69-1-2.12-3.4-3.35-7.35-3.3h-6.26l-3,19.29h4.86a17.4,17.4,0,0,0,4.56-.36,3.61,3.61,0,0,0,2.55-2.54l.78-2.6h.55l-1.82,11.37h-.61V99c0-1,.1-2.34-1.13-3.23-1.15-.7-2.47-.72-5-.75H105.2l-3,19.14.85.34a17.37,17.37,0,0,0,6.32,1.37c3.8,0,6.44-.79,8.35-2.85,1.76-1.88,2.89-4.51,4.41-8.19l1.58.3a50.7,50.7,0,0,1-3.22,11.54H88.84l.83-.14A4,4,0,0,0,93,113.84a29.12,29.12,0,0,0,1.21-5.76L98.13,83c.28-1.72.68-4.81.69-5.47a3.16,3.16,0,0,0-2.75-3.29l-.83-.13h30.09Zm65,37.11c-1,0-1.28-.67-1.28-1.49a33.66,33.66,0,0,1,.61-3.6l2.23-11.67a23.71,23.71,0,0,0,.48-4.4c0-3.06-1.56-4.48-4.75-4.48-6.38,0-11.53,5.56-13.91,8.61l-.13-.13,2.91-17.84c.27-1.77.88-4.69.88-5.36,0-1.77-.81-2.24-2.24-2.24-4.74,0-11.39,3.59-14.65,5.7l.75,1.76a8.52,8.52,0,0,1,4-1.22c.95,0,1.15.75,1.15,1.83a21,21,0,0,1-.27,3.19l-6.24,38.6,10-1,.82-4.88c2-12,4.27-20.9,9.22-20.9,1.43,0,1.83,1,1.83,2.78a29.28,29.28,0,0,1-.47,4l-2.31,12c-.2,1.08-.54,3.32-.54,3.79,0,2.85,1,4.21,3.39,4.21,5.77,0,10.52-5.15,13-7.93l-1.29-1.77c-.54.54-2.44,2.44-3.26,2.44m-17.17-14a81.27,81.27,0,0,0-3.55,15.17l-.68,4-7.71.78,6-37.14a21.78,21.78,0,0,0,.3-3.39,4,4,0,0,0-.36-1.84A2.1,2.1,0,0,0,165.27,74a8.27,8.27,0,0,0-2.18.34c3.46-2,8.6-4.36,12.09-4.33a1.47,1.47,0,0,1,.9.18s.2.21.21.93c0,.34-.6,3.43-.88,5.19l-3,18.4.53.55.84.85c-.2.45-.4.91-.58,1.38m8.69,20.13c-1.81-.17-2.06-.42-2.26-3.08,0-.21.32-2.59.52-3.59l2.31-12a29.85,29.85,0,0,0,.49-4.22,5.21,5.21,0,0,0-.53-2.62,2.66,2.66,0,0,0-2.31-1.29H180a5.44,5.44,0,0,0-1.53.25c2.51-2.2,5.73-4.13,9.2-4.1,2.86.19,3.43.74,3.61,3.35a22.12,22.12,0,0,1-.45,4.2l-2.24,11.67A30.85,30.85,0,0,0,188,110a2.78,2.78,0,0,0,.5,1.72,2.3,2.3,0,0,0,1.91.9,4.4,4.4,0,0,0,2.46-1.28l.43-.38c-2.6,2.82-6.82,6.72-11.37,6.66m76.33-46.49c0-1.77-.82-2.24-2.24-2.24-4.75,0-11.4,3.59-14.65,5.7l.75,1.76a9.17,9.17,0,0,1,4-1.22c1.16,0,1.16,1.15,1.16,1.83,0,.2-.34,2.31-.47,3.19l-4.89,30.6c-.14.88-.54,3.32-.54,3.79,0,2.85,1,4.21,3.39,4.21,5.76,0,10.51-5.15,13-7.93l-1.28-1.77c-.55.54-2.45,2.44-3.26,2.44s-1.29-.34-1.29-1.49l5.43-33.51c.27-1.84.88-5,.88-5.36m-2,5.19-5.43,33.5a2.92,2.92,0,0,0,.6,2.13,2.37,2.37,0,0,0,1.81.67,4.43,4.43,0,0,0,2.45-1.28l.41-.36c-2.61,2.82-6.81,6.7-11.34,6.64-1.82-.16-2.07-.42-2.27-3.08,0-.18.39-2.78.54-3.62l4.88-30.59c.14-1,.47-2.84.49-3.38a4.73,4.73,0,0,0-.22-1.57,2.18,2.18,0,0,0-2-1.39h-.11a8.68,8.68,0,0,0-2.23.38c3.45-2,8.63-4.39,12.14-4.35.6,0,.86.11.9.17s.2.21.21.93c0,0-.6,3.41-.87,5.2M316.9,92.84c0-5-4.34-7-9.22-7-10.92,0-20.49,10.18-20.49,21.91,0,1.76,0,11,9.91,11,9.7,0,14.92-7.46,17.91-11.74l-1.77-1.42c-1.35,1.7-5.63,7.46-10.38,7.46-4.27,0-5-4.81-5-7.46,2.92-.2,19.06-4.75,19.06-12.76M308,101.13a38.31,38.31,0,0,1-10,3.32l.28-.11c5.15-2,10.46-5.23,10.49-11.57a7.41,7.41,0,0,0-.59-3,3.24,3.24,0,0,0-3-2c-3.72.14-5.51,3.8-6.7,7.19a41.7,41.7,0,0,0-1.76,8.21l-.18,1.83.18-.07v.66a12.64,12.64,0,0,0,1,5.2,5.48,5.48,0,0,0,5.14,3.39c4.9-.11,8.7-4.71,10.55-7l.06,0c-3.05,4.31-7.92,10.42-16.37,10.4-4.6,0-6.52-2-7.66-4.2a13,13,0,0,1-1.12-5.66c0-11.13,9.16-20.76,19.36-20.78,4.69.09,8.09,1.69,8.09,5.86.09,3.15-3.48,6.19-7.8,8.28m-10.13,2.16c.21-2,1.9-14.38,7.33-14.38,2,0,2.44,2.24,2.44,3.86,0,5.57-4.68,8.56-9.77,10.52M282.51,71.14c0-1.77-.81-2.24-2.24-2.24-4.75,0-11.4,3.59-14.65,5.7l.75,1.76a9.18,9.18,0,0,1,4-1.22c1.15,0,1.15,1.15,1.15,1.83,0,.2-.34,2.31-.48,3.19l-4.88,30.6c-.14.88-.54,3.32-.54,3.79,0,2.85,1,4.21,3.39,4.21,5.76,0,10.51-5.15,13-7.93l-1.28-1.77c-.55.54-2.45,2.44-3.26,2.44s-1.29-.34-1.29-1.49l5.43-33.51c.27-1.84.88-5,.88-5.36m-2,5.19-5.43,33.5a2.85,2.85,0,0,0,.61,2.13,2.3,2.3,0,0,0,1.8.67,4.4,4.4,0,0,0,2.46-1.28l.39-.34c-2.61,2.81-6.81,6.67-11.33,6.62-1.82-.17-2.06-.42-2.27-3.08,0-.19.4-2.78.53-3.62l4.89-30.59c.13-1,.47-2.84.49-3.37a4.5,4.5,0,0,0-.22-1.58A2.17,2.17,0,0,0,270.48,74h-.12a8.26,8.26,0,0,0-2.23.37c3.45-2,8.63-4.39,12.14-4.35.6,0,.86.11.9.17s.2.2.21.94c0,0-.61,3.39-.87,5.19m-51.46,35.24c-.62,0-1.09-.34-1.09-1.29,0-1.15,1.15-9.16,1.7-12.55l1.76-11.06a26.58,26.58,0,0,0-6.92-.81C207.67,85.86,199,101,199,111.23c0,5.09,2.11,7.53,5.56,7.53,7,0,11.67-5.9,14-9l.13.13a45.37,45.37,0,0,0-.61,5.09c0,2.71,1.5,3.73,3.06,3.73,6.44,0,11.26-6.24,13.57-8.82l-1.36-1.69c-.68.54-3.53,3.32-4.34,3.32m-7.87,6.06c-1-.1-1.81-.33-1.93-2.6a48.19,48.19,0,0,1,.59-4.92l.09-.57-.54-.54-.91-.9-.78,1c-.19.25-.38.5-.6.77a37.72,37.72,0,0,0,2.8-7.3,102.65,102.65,0,0,0,2.45-12.13l.12-.78-.67-.39a6,6,0,0,0-3.21-.69c-3.34.12-5.62,3.26-7.34,7.07a34.17,34.17,0,0,0-2.74,13.06,7.18,7.18,0,0,0,.64,3.21,3.16,3.16,0,0,0,2.86,1.86,5.19,5.19,0,0,0,2.26-.72c-2.46,2.39-5.73,4.59-9.72,4.56-2.79-.09-4.29-1.55-4.44-6.4,0-9.72,8.33-24.22,24.38-24.24a26.44,26.44,0,0,1,5.65.54l-1.61,10c-.54,3.47-1.69,11.3-1.7,12.73a2.47,2.47,0,0,0,.63,1.78,2.06,2.06,0,0,0,1.58.63c1.35-.17,1.9-.94,3-1.72.45-.37.89-.76,1.25-1.09l0,0c-2.49,2.87-6.89,7.78-12.09,7.72m-9.17-5c-1.76,0-2.37-2-2.37-3.94,0-8.28,4.07-19,9-19a4.71,4.71,0,0,1,2.64.55c-.34,2.17-3.05,22.39-9.23,22.39m141.32-1.16c-.87,0-1.28-.34-1.28-1.49,0-.54.41-2.51.61-3.6L354.83,95a37.5,37.5,0,0,0,.54-5,3.9,3.9,0,0,0-4.2-4.2c-6.44,0-14.25,6.71-14.86,9.22l-.13-.13a34.46,34.46,0,0,0,.67-4.68c0-2.85-.88-4.41-3.18-4.41-4.75,0-11.95,5.76-14.05,7.6l.95,1.69c.61-.47,3-2,4.34-2,.75,0,1.16.74,1.16,2,0,.48-.21,2.11-.34,3l-3.05,20.62,10.17-1,.82-5.56c1.15-7,4.06-20.22,9.56-20.22,1.09,0,1.7,1.3,1.7,2.31a37.4,37.4,0,0,1-.61,4.41L342,110.76c-.13.74-.54,3.32-.54,3.79,0,2.85,1,4.21,3.39,4.21,5.77,0,10.51-5.15,13-7.93l-1.29-1.77c-.55.54-2.45,2.44-3.27,2.44M335.76,99.06A73.65,73.65,0,0,0,332.54,112l-.68,4.7-7.86.78,2.84-19.18h0a28.07,28.07,0,0,0,.35-3.14,4.28,4.28,0,0,0-.43-2.07A2.15,2.15,0,0,0,324.91,92a7.2,7.2,0,0,0-2.8.87c3-2.36,8.38-6,11.55-5.87,1.6.11,1.89.55,2.06,3.29a34.48,34.48,0,0,1-.63,4.35l-.19.65.6.61L336.61,97c-.3.67-.58,1.35-.85,2m1.63-3.63,0-.08a3.84,3.84,0,0,1,.93-1.45,13.63,13.63,0,0,0-.95,1.53m7.47,22.2c-1.82-.16-2.06-.42-2.27-3.08,0-.19.4-2.93.53-3.6l2.31-12.06a34.74,34.74,0,0,0,.62-4.62,3.19,3.19,0,0,0-2.82-3.44,5.24,5.24,0,0,0-2.56.78c.48-.4,1-.79,1.53-1.16,2.71-1.92,6.14-3.48,9-3.46,1.83.1,3,.74,3.07,3.07a38.72,38.72,0,0,1-.52,4.74l-2.17,11.4a36.69,36.69,0,0,0-.63,3.81,2.75,2.75,0,0,0,.61,1.94,2.35,2.35,0,0,0,1.8.68,4.43,4.43,0,0,0,2.47-1.28l.44-.38c-2.61,2.81-6.83,6.72-11.38,6.66"/><path class="cls-5" d="M387.59,78.45c13.25,2.1,19.64-5.3,22.11-9.87-13.61-2.65-20,3.61-22.11,9.87m20.29-9a18.1,18.1,0,0,1-15.82,8.26,26.64,26.64,0,0,1-2.89-.16c1.94-4.4,6.19-8.4,14.47-8.44a28.38,28.38,0,0,1,4.24.34M351.09,53.49c-5.33,12.58.91,19.91,7.29,23.33,1.11-7.5-3.33-20.65-7.29-23.33m6.32,21.44c-3.88-2.52-7.2-6.55-7.2-12.52a20.51,20.51,0,0,1,1.33-7c2.74,3.31,6,12.47,5.87,18.82v.68m2.81,2c12.25-5.49,13.55-15.19,13.11-20.36-12.84,5.23-14.78,14-13.11,20.36m.8-1.64a14.57,14.57,0,0,1-.19-2.3c0-5,2.59-10.62,11.43-14.72-.05,4.91-1.79,12.21-11.24,17m31.73-21.38c-11.34,7.61-10.13,17.16-6.67,23.52,5-5.67,8.51-19.11,6.67-23.52M386.3,75.28a16.83,16.83,0,0,1-1.51-6.75c0-4.16,1.76-8.61,7.25-12.77a11.66,11.66,0,0,1,.07,1.38c0,5-2.49,13.44-5.81,18.14m-27-38.62c-7.72,3.59-6,15.68.46,29.39,4.38-9.26,5.51-22.13-.46-29.39m-4,9.73c0-4,1.16-6.73,3.67-8.28,2.27,3.17,3.3,7.43,3.3,12a37.22,37.22,0,0,1-2.55,13.15c-2.81-6.41-4.43-12.33-4.42-16.87m44.47,20.15c8,.27,22.65-1.71,24.49-9.75-10.8-2.66-16.91,1.24-24.49,9.75m2.55-1.12c5.19-5.47,9.63-8.32,15.71-8.33a23.07,23.07,0,0,1,4.81.54C420.68,63,410,65.3,402.37,65.42m-38.44-5.19c6.88-4.17,18-13.83,15.18-21.57-10.5,3.68-13.48,10.3-15.18,21.57m1.55-2.34c1.71-9.18,4.47-14.38,12.86-17.73a8.32,8.32,0,0,1,.1,1.11c.14,5.52-7.12,12.61-13,16.62M427.7,35.5c-5.47-2.91-17.52,4.08-19.17,20.52,7.23-4.11,16.12-10.57,19.17-20.52m-2.87.48h.07a5,5,0,0,1,1.39.18C423.43,44.24,416.38,50,410,53.88c2-12,10-17.9,14.88-17.9m1.27,7.89c12-1.16,22.57-5,25.15-15.66-11.08-.39-21.53,8.75-25.15,15.66m2.13-1.38c4-5.94,12.59-12.82,21.52-13.16-2.73,8.26-11.19,11.81-21.52,13.16M415.59,53.78c3.26.87,16.64,3.95,26-8.27-13.14-3.51-19.7,2.4-26,8.27m7.38-.15a27.46,27.46,0,0,1-5.05-.48c4.45-4.08,9.07-7.56,16.22-7.57a26.35,26.35,0,0,1,5.39.6A21.25,21.25,0,0,1,423,53.63m-14.11-9.34c-8.42-1.21-13.6,9.85-15.69,24.85,8.73-5.35,16.71-15.51,15.69-24.85m-1.49,1h.43c0,.2,0,.4,0,.6.05,7.49-6,15.78-13.16,20.87,2.1-12.71,6.77-21.47,12.71-21.47m-37.21-4.41c3.2-1.05,16.09-5.79,17.2-21.13-12.91,4.25-15.18,12.79-17.2,21.13m1.63-1.81c1.86-7.19,4.26-13.73,14.26-17.64-1.57,11.12-9.88,15.82-14.26,17.64M370.29,19c-6.17.57-12.42,13-4.81,27.67,3.8-7.4,7.7-17.67,4.81-27.67m-.82,1.3a25.34,25.34,0,0,1,.69,6c0,6.37-2.2,12.63-4.66,17.81a27.18,27.18,0,0,1-2.41-10.82c0-7.07,3.38-12,6.38-13M386,0c-9.49,5.74-13.23,19.11-12.48,26.87C382.94,19.33,389.68,10.32,386,0m-.64,1.76a15.67,15.67,0,0,1,.52,4c0,6.78-4.68,13.15-11.32,18.82.07-7.17,3.53-17.59,10.8-22.78"/></g></g></svg>